<?xml version="1.0" encoding="UTF-8"?><svg id="Layer_1" xmlns="http://www.w3.org/2000/svg" viewBox="0 0 200 200.01"><defs><style>.cls-1{fill:#010101;}.cls-2{fill:#010000;}.cls-3{fill:#020202;}.cls-4{fill:#020201;}.cls-5{fill:#fefefe;}.cls-6{fill:#fedc19;}.cls-7{fill:#fedc1a;}.cls-8{fill:#fd943a;}.cls-9{fill:#fe943a;}.cls-10{fill:#fec494;}.cls-11{fill:#b66a2a;}.cls-12{fill:#bababa;}</style></defs><circle class="cls-7" cx="100" cy="100.01" r="100"/><rect class="cls-7" x="37.7" y="25.26" width="124.73" height="149.6"/><rect class="cls-7" x="12.46" y="62.45" width="175.05" height="75.08"/><g id="zAGpbr"><g><path class="cls-7" d="M137.5,173.26c0,4.68,0,9.37,0,14.05-1.07,0-2.15-.02-3.22-.02-23.4,0-46.8-.01-70.21,.03-1.09,0-1.44-.28-1.41-1.61,.08-3.82,.06-7.64,0-11.45-.01-1.03,.27-1.28,1.12-1.28,24.17,.02,48.34,.02,72.51,.02,.42,0,.85-.04,1.22,.27Z"/><path class="cls-6" d="M162.51,162.41s.09,0,.13,0c-.27,.42-.15,.89-.15,1.34-.03,3.7-.04,7.4-.06,11.1-7.85,0-15.71-.02-23.56,.01-1.01,0-1.39-.2-1.37-1.31,.07-3.71,.03-7.43,.03-11.15,0,0,0,0,0,0,.44-.39,.99-.38,1.52-.38,7.31,0,14.62,0,21.93,0,.54,0,1.07,.03,1.53,.37Z"/><path class="cls-7" d="M37.6,174.87c-.02-4.14-.05-8.28-.07-12.42,.05-.06,.1-.11,.16-.17,.49-.29,1.03-.24,1.57-.24,7.15,0,14.3,0,21.45,0,.6,0,1.24-.07,1.75,.38,0,0,0,0,0,0,0,3.72-.03,7.45,.03,11.17,.02,1-.24,1.3-1.27,1.29-7.87-.04-15.73,0-23.6,0Z"/><path class="cls-7" d="M62.4,25.08c.22-2.91,.05-5.82,.09-8.72,.02-1.3-.03-2.6-.05-3.9,3.26,0,6.52,.02,9.78,.02,21.39,0,42.79,0,64.18,0,.38,0,.77-.02,1.15-.03,.02,4.2,.03,8.4,.05,12.61-.08,.13-.2,.23-.34,.3-.56,.2-1.14,.15-1.71,.15-23.69,0-47.38,0-71.07,0-.57,0-1.15,.05-1.71-.14-.15-.06-.26-.16-.35-.29Z"/><path class="cls-7" d="M12.45,62.44c4.2,.01,8.4,.11,12.6-.05,.12,.1,.2,.23,.22,.39,.03,2.03,0,4.06,0,6.1,.02,22.7-.03,45.4,.02,68.11,0,.08-.01,.15-.02,.23-.02,.16-.1,.29-.22,.39-2.33-.25-4.67-.06-7.01-.1-1.53-.03-3.07-.05-4.6,.02-.84,.04-1.07-.26-.99-1.04,.06-.53,.01-1.07,.01-1.61,0-24.14,0-48.28-.01-72.42Z"/><path class="cls-7" d="M40.31,162.46c-4.73,0-9.45-.01-14.18,0-.65,0-1.14,.05-1.13-.91,.05-9.87,.05-19.73,.06-29.6,.04-.04,.08-.07,.12-.11,.5-.45,1.13-.41,1.72-.41,3.87-.02,7.74-.01,11.61,0,.65,0,1.32-.02,1.85,.47l-.02-.02c.55,.63,.45,1.41,.46,2.16,.05,4.38-.08,8.76,.08,13.14-.18,4.36-.03,8.73-.09,13.09,0,.74,.1,1.52-.44,2.15l-.05,.05Z"/><path class="cls-7" d="M175.03,38.05c-.3,.37-.16,.81-.17,1.22,0,7.32-.02,14.64,.01,21.96,0,.93-.23,1.25-1.21,1.24-3.75-.06-7.51-.03-11.27-.03,0,0,0,0,0,0-.47-.55-.37-1.23-.37-1.87,0-6.74,0-13.49,0-20.23,0-.38-.02-.77,0-1.15,.06-.94-.38-1.28-1.3-1.27-2.91,.02-5.82,.01-8.73,0-.65,0-1.3,.04-1.95-.11-.52-.18-1.06-.17-1.59-.17-2.84,0-5.68,0-8.51,0-.35,0-.69,.02-1.04-.01-.51-.05-1.23,.09-1.23-.67,0-.73,.69-.7,1.23-.71,3.45-.03,6.9,.12,10.35-.09,.19-.01,.41-.02,.56,.08,1.65,1.06,3.49,.67,5.27,.71,1.69,.04,3.38,0,5.06,.02,.74,0,.94-.14,.8-.99-.46-2.8-.57-5.64,.08-8.44,.17-.75,.04-1.11-.75-1.13-.23,0-.46-.01-.69-.01-6.21,0-12.43,0-18.64,0-.78,0-1.52,.02-2.04,.77-.22,.32-.61,.51-1.01,.23-.48-.33-.47-.85-.42-1.35,.03-.4,.14-.75,.64-.81,.58-.06,1.14,.1,1.72,.1,6.98,0,13.96,0,20.94,0,1.4,0,1.36-.03,1.43,1.33,.17,3.18,.02,6.36,.09,9.54,0,.37-.15,.77,.15,1.1,.42,.27,.89,.16,1.34,.16,3.77,.03,7.54,.05,11.31,.07-.02,.16-.04,.33-.06,.49Z"/><path class="cls-7" d="M162.44,37.33c-.43-.31-.25-.77-.26-1.17-.02-2.61-.04-5.22,.01-7.83,.02-.83-.38-1.64-.06-2.48,.11-.29-.14-.47-.49-.43-3.21,.38-6.43,.12-9.64,.16-3.76,.05-7.52,.01-11.28,.01-.61,0-1.21,.01-1.82-.17-.78-.24-1.28,.02-1.15,.96,.05,.37-.09,.87,.42,.94,.45,.07,.67-.34,.72-.73,.07-.55,.44-.54,.84-.54,6.98,0,13.96,0,20.95,0,.87,0,1.33,.38,.86,1.19-.55,.97-.53,1.97-.52,3.01,0,1.42,.02,2.84,0,4.26-.01,.63,.03,1.34,.36,1.77,1.07,1.39-.09,1.05-.76,1.06-2.92,.02-5.83,0-8.75,0-.31,0-.74,.1-.9-.05-1.07-1.1-2.39-.61-3.62-.63-2.91-.03-5.83-.03-8.74-.07-.38,0-.76-.03-.77,.41-.01,.45,.43,.34,.71,.34,3.38,0,6.75,0,10.13,.01,.44,0,.93-.15,1.32,.22-.06,.05-.11,.1-.17,.16-.46,.25-.97,.22-1.46,.22-3.07,0-6.14,0-9.21,0-.57,0-1.16,.05-1.64-.37l.02,.02c-.36-.4-.38-.91-.38-1.4-.01-3.21-.01-6.42,0-9.63,0-.5,0-1,.36-1.41,0,0,.07-.08,.07-.08,7.93,0,15.86,.02,23.79-.02,.93,0,1.13,.27,1.12,1.15-.06,3.71-.05,7.43-.06,11.15Z"/><path class="cls-7" d="M25.04,62.38c0-8.02,0-16.03-.04-24.05,0-.77,.31-.86,.95-.85,3.49,.02,6.98-.02,10.47,.04,.92,.01,1.16-.24,1.15-1.15-.05-3.45,0-6.9-.04-10.36,0-.72,.15-.98,.93-.98,7.98,.04,15.95,.03,23.93,.04,.03,.03,.05,.06,.08,.09,.03,.16-.01,.29-.12,.4-.32,.19-.5,.52-.53,.85-.13,1.25-.99,1.39-1.99,1.39-5.79,0-11.58,0-17.37,0-.81,0-1.61-.02-2.42,.02-.6,.03-.92,.33-.94,.93-.05,1.92-.05,3.83,0,5.75,.01,.57,.34,.81,.88,.84,.38,.02,.77,.02,1.15,.02,6.14,0,12.27,0,18.41,0,.54,0,1.08-.03,1.6,.12,.39,.11,.71,.33,.72,.78,0,.5-.39,.61-.77,.69-.26,.05-.53,.04-.8,.04-7.09,0-14.18,0-21.27,0,7.24,0,14.48,0,21.73,0,.53,0,1.08-.08,1.58,.2,.14,.1,.18,.22,.1,.38l.02-.02c-.59,.5-1.31,.38-1.99,.38-6.91,0-13.82,0-20.73,0-1.78,0-1.79,.01-1.79,1.79,0,6.91,0,13.82,0,20.73,0,.68,.12,1.4-.38,1.99l.02-.02c-.4,.36-.91,.38-1.4,.38-3.21,.01-6.42,.01-9.64,0-.49,0-1.01,.04-1.4-.36l-.09-.07Z"/></g></g><rect class="cls-7" x="159.23" y="61.77" width="15.85" height="100.65"/><g><path d="M58.89,158.54c0,1.94,.02,3.88-.03,5.82-.02,.81,.23,1.17,1.06,1.06,.28-.04,.57,0,.86,0,28.43,0,56.86-.01,85.29,.04,1.54,0,2.09-.35,1.94-1.93-.15-1.64-.04-3.31-.04-4.96-.08-.07-.17-.15-.25-.23-.52-.28-1.09-.31-1.67-.31-8.5,0-17-.07-25.5,.03-3.31-.11-6.62-.04-9.92-.04-16.14,0-32.29,0-48.43,0-1.02,0-2.06-.15-3.04,.31-.09,.07-.17,.15-.26,.23Z"/><path d="M161.67,138c1.77,0,3.54-.08,5.3,.04,1.3,.09,1.59-.32,1.59-1.59-.05-11.81-.03-23.62-.03-35.43q0-4.13-4.13-4.13c-.91,0-1.83,0-2.74,.01-.07,.08-.15,.17-.22,.25-.38,.75-.3,1.56-.3,2.35,.01,3.71-.05,7.42,.03,11.13-.1,8.48-.03,16.97-.03,25.45,0,.57,.02,1.14,.3,1.66,.08,.08,.15,.17,.23,.25Z"/><path d="M113.72,42.08c-11.44,0-22.87,0-34.31,0-.07,.08-.14,.17-.22,.25-.32,2.27-.75,4.54,.28,6.75,.78,.47,1.65,.38,2.5,.39,9.71,0,19.41,0,29.12,0,.85,0,1.72,.08,2.51-.36,1.12-2.21,.64-4.5,.33-6.78-.07-.08-.15-.17-.22-.25Z"/><path d="M38.33,96.9c-1.94,0-3.88,.03-5.82-.03-.82-.02-1.07,.24-1.06,1.06,.02,10.73,.02,21.46,0,32.19,0,.83,.26,1.07,1.07,1.05,1.94-.06,3.88-.03,5.82-.03,.07-.09,.15-.17,.22-.26,.25-.47,.29-.98,.29-1.5,0-8.5,.07-16.99-.03-25.49-.09-2.25,.32-4.52-.27-6.75-.07-.08-.15-.16-.22-.24Z"/><path class="cls-2" d="M147.95,69.49c0-6.39-.02-12.79,.04-19.18,.01-1.12-.3-1.47-1.42-1.41-1.82,.1-3.65,.04-5.48,.04-.07,.08-.15,.17-.22,.25-.33,.63-.3,1.33-.3,2.01-.01,5.36-.01,10.72,0,16.08,0,.74-.04,1.49,.38,2.16,2.21,1.02,4.49,.62,6.76,.27,.08-.07,.16-.15,.25-.22Z"/><path d="M52.03,55.79c-1.83,0-3.66,.06-5.48-.04-1.13-.06-1.43,.3-1.42,1.42,.06,6.39,.04,12.79,.04,19.18,.08,.07,.16,.14,.23,.21,2.17,.44,4.33,.45,6.5,0,.19-.12,.33-.28,.42-.49,.25-.65,.23-1.34,.23-2.02,0-5.28,0-10.56,0-15.84,0-.73,.05-1.48-.3-2.17-.07-.08-.15-.16-.22-.25Z"/><path d="M45.18,76.34c-1.83,0-3.66,.06-5.48-.04-1.13-.06-1.43,.3-1.42,1.42,.06,6.39,.04,12.79,.04,19.18,0,0-.03-.03-.03-.03,2.31,.89,4.62,.84,6.93,.04,.56-.74,.48-1.61,.49-2.46,.01-5.23,.01-10.47,0-15.7,0-.85,.06-1.72-.57-2.43l.03,.03Z"/><path class="cls-2" d="M161.66,96.9c0-4.17-.02-8.33,.03-12.5,.01-.97-.26-1.28-1.24-1.24-1.88,.08-3.77,.03-5.65,.03-.07,.09-.15,.17-.23,.26-.44,.91-.31,1.89-.31,2.85,0,2.95-.06,5.9,.02,8.85,.05,1.8,.47,2.27,2.24,2.25,1.72-.02,3.52,.51,5.15-.52l-.03,.03Z"/><path class="cls-2" d="M154.81,83.2c0-4.17-.02-8.33,.03-12.5,.01-.97-.26-1.28-1.24-1.24-1.88,.08-3.77,.03-5.65,.03l.03-.03c-.5,.55-.56,1.23-.56,1.92-.02,3.29-.05,6.59,0,9.88,.04,1.99,.47,2.47,2.42,2.44,1.67-.02,3.42,.49,4.98-.54l-.03,.03Z"/><path d="M58.9,42.08c-1.87,0-3.74,.06-5.61-.04-1.1-.06-1.31,.33-1.3,1.34,.06,4.13,.03,8.27,.04,12.4,0,0-.03-.03-.03-.03,2.05,1.04,4.21,.59,6.32,.35,.88-.1,1.02-.98,1.05-1.74,.07-1.76,.09-3.52,0-5.27-.09-2.25,.31-4.53-.27-6.76-.07-.08-.14-.16-.22-.24Z"/><path class="cls-1" d="M141.09,48.94c0-4.17-.02-8.34,.04-12.5,.01-.97-.26-1.28-1.24-1.24-1.88,.08-3.77,.04-5.65,.04-.07,.09-.15,.17-.22,.26-.43,.91-.3,1.89-.31,2.85,0,2.95-.06,5.9,.02,8.85,.05,1.8,.47,2.26,2.25,2.24,1.72-.03,3.52,.51,5.15-.53l-.04,.04Z"/><path d="M134.24,35.24c0-1.94-.02-3.88,.03-5.82,.02-.81-.22-1.08-1.05-1.07-3.88,.04-7.76,.04-11.64,0-.84,0-1.07,.27-1.05,1.08,.05,1.94,.03,3.88,.03,5.82,.08,.07,.17,.14,.25,.22,1.14,.49,2.35,.28,3.53,.29,2.56,.03,5.11,.02,7.67,0,.79,0,1.6,.03,2.26-.56l-.04,.04Z"/><path class="cls-1" d="M38.34,131.14c0,4.13,.01,8.27-.05,12.4-.01,1,.19,1.41,1.29,1.35,1.86-.1,3.74-.04,5.61-.04,.07-.08,.14-.16,.21-.24,.58-2.23,.19-4.5,.27-6.74,.1-1.71,.04-3.41,.03-5.12,0-1.39-.66-2.18-2.08-2.1-1.78,.09-3.64-.51-5.33,.54l.04-.04Z"/><path d="M154.81,151.71c1.88,0,3.77-.05,5.65,.03,.98,.04,1.25-.27,1.24-1.24-.05-4.16-.03-8.33-.03-12.49,0,0,.02,.01,.02,.01-2.06-1.02-4.2-.55-6.32-.35-.63,.06-.97,.65-.98,1.25-.06,4.18-.44,8.37,.2,12.54,.08,.09,.15,.17,.23,.25Z"/><path class="cls-4" d="M120.57,35.24c-1.94,0-3.88,.02-5.82-.04-.82-.02-1.09,.24-1.06,1.06,.06,1.94,.03,3.88,.04,5.82,0,0-.04-.03-.04-.03,2.05,1.05,4.2,.56,6.32,.37,.48-.04,.86-.42,.91-.91,.19-2.12,.68-4.27-.37-6.32l.03,.04Z"/><path class="cls-3" d="M72.56,35.23c0-1.94-.02-3.88,.03-5.81,.02-.81-.22-1.18-1.05-1.06-.06,0-.11,0-.17,0-1.82,.03-3.63,.07-5.45,.1-.45,2.25-.11,4.51-.18,6.77,.08,.07,.15,.14,.23,.2,2.12,.44,4.24,.44,6.36,0,.08-.07,.15-.14,.23-.21Z"/><path class="cls-4" d="M65.75,35.23c-1.92,0-3.84,.03-5.75-.04-.89-.03-1.18,.24-1.14,1.14,.07,1.92,.04,3.83,.05,5.75,0,0-.04-.03-.04-.03,2.05,1.05,4.2,.56,6.32,.37,.48-.04,.86-.42,.91-.91,.19-2.12,.68-4.27-.37-6.32l.04,.04Z"/><path class="cls-3" d="M45.19,144.84c0,1.92,.03,3.84-.04,5.75-.03,.89,.25,1.17,1.14,1.14,1.92-.07,3.83-.03,5.75-.04,.07-.08,.14-.16,.21-.23,.44-2.15,.42-4.3,.02-6.45-.11-.19-.26-.34-.46-.43-2.23-.24-4.47-.69-6.65,.3l.04-.03Z"/><path class="cls-1" d="M147.96,158.56c1.94,0,3.88-.03,5.81,.02,.82,.02,1.08-.24,1.06-1.06-.05-1.94-.02-3.88-.02-5.81,0,0,.02,.01,.02,.01-2.05-1.03-4.19-.55-6.31-.36-.48,.04-.86,.42-.9,.9-.19,2.12-.67,4.26,.36,6.31v-.02Z"/><path class="cls-3" d="M52.04,151.69c0,1.92,.03,3.84-.04,5.75-.03,.89,.24,1.17,1.14,1.14,1.92-.07,3.83-.03,5.75-.04,0,0-.03,.04-.03,.04,.98-2.17,.54-4.41,.3-6.64-.1-.2-.24-.36-.44-.47-2.25-.32-4.51-.73-6.72,.26l.04-.04Z"/><path class="cls-4" d="M79.41,42.08c0-1.94-.02-3.88,.04-5.82,.02-.82-.24-1.09-1.07-1.06-1.94,.06-3.88,.03-5.82,.03,0,0,.04-.04,.04-.04-1.05,2.05-.56,4.2-.37,6.32,.04,.48,.43,.86,.91,.91,2.12,.19,4.27,.68,6.32-.37l-.04,.03Z"/><path class="cls-11" d="M147.97,158.57c0-1.93,.02-3.86-.02-5.79-.02-.81,.28-1.1,1.08-1.08,1.93,.04,3.86,.02,5.79,.02,0-4.1,.02-8.19-.04-12.29-.02-1.1,.29-1.51,1.43-1.45,1.82,.09,3.64,.03,5.46,.03-.02-9.15-.05-18.3-.07-27.44-2.02-.95-4.11-.52-6.18-.31-.81,.08-1.01,.84-1.09,1.55-.11,1.02-.04,2.05-.07,3.07-.05,1.85-.19,1.99-2.1,2.03-.91,.02-1.82,0-2.73,.02-1.34,.02-1.96,.7-1.99,2.01-.02,.85-.01,1.71-.02,2.56-.02,2.14-.11,2.24-2.19,2.25-2.85,.02-5.69,0-8.54,.01-.84,0-1.72-.09-2.46,.48-.59,.73-.5,1.61-.5,2.45-.02,2.96-.05,5.92,0,8.89,.03,1.41-.54,1.98-1.92,1.88-.79-.05-1.59-.02-2.39,0-2.11,.07-2.51,.44-2.54,2.52-.05,2.9,0,5.81-.02,8.71-.01,2.34-.1,2.43-2.37,2.46-4.51,.06-4.52,.06-4.47,4.55,0,.95-.2,1.96,.52,2.78,9.15,.03,18.29,.05,27.44,.08Z"/><path class="cls-12" d="M120.54,158.5c0-1.77,.08-3.54-.01-5.3-.07-1.25,.41-1.58,1.57-1.5,1.25,.09,2.52-.07,3.76,.04,1.38,.13,1.59-.48,1.57-1.68-.07-3.48,.03-6.96-.05-10.44-.03-1.27,.32-1.74,1.62-1.63,1.3,.11,2.63-.04,3.93,.04,1.08,.07,1.36-.35,1.35-1.38-.03-4.11,.01-8.21,.03-12.32-.08-.08-.16-.15-.24-.23-1.9-.61-3.84-.35-5.76-.22-.97,.07-1.31,.8-1.39,1.67-.11,1.2-.05,2.4-.07,3.59-.02,.99-.48,1.44-1.47,1.45-1.03,0-2.06-.03-3.08,.03-1.8,.1-2.22,.48-2.26,2.29-.08,3.08,0,6.16-.03,9.25-.02,1.97-.17,2.11-2.17,2.15-.91,.02-1.83,0-2.74,.04-1.25,.07-1.85,.72-1.91,1.95-.05,1.03-.05,2.05-.03,3.08,.02,1.2-.45,1.83-1.71,1.77-.57-.02-1.14,0-1.71,0-15.98,0-31.96,0-47.94,.01-1,0-2.08-.24-2.94,.56,0,2.28,0,4.57,.01,6.85,19.82,0,39.64-.01,59.47-.02,.74,0,1.48-.04,2.22-.06Z"/><path class="cls-9" d="M134.3,124.32c4,0,8-.08,11.99,.01,1.41,.03,1.79-.45,1.69-1.76-.1-1.31,.02-2.63-.03-3.94-.03-.89,.31-1.23,1.2-1.2,1.37,.05,2.74-.05,4.11,.03,1.17,.07,1.67-.29,1.58-1.52-.09-1.25,.06-2.52-.04-3.76-.12-1.34,.43-1.67,1.67-1.61,1.71,.09,3.42,0,5.14,0,.03-4.56,.05-9.13,.08-13.69-1.88,0-3.76-.04-5.64,.04-.98,.04-1.26-.3-1.25-1.26,.05-4.16,.03-8.32,.04-12.48-1.88,0-3.76-.04-5.64,.04-.98,.04-1.26-.3-1.25-1.26,.05-4.16,.03-8.32,.04-12.48-2.28,0-4.57-.01-6.85-.02-1.31-.85-2.77-.43-4.17-.49-2-.09-2.12-.17-2.16-2.16-.01-.74,.01-1.48-.02-2.22-.08-2.07-.44-2.42-2.58-2.48-.68-.02-1.37,0-2.05,0-2.06-.03-2.17-.14-2.2-2.27-.01-.91,.01-1.82-.05-2.74-.07-1.17-.67-1.75-1.84-1.81-1.14-.06-2.28-.04-3.42-.04-1.08,0-1.54-.51-1.55-1.57,0-1.14,.04-2.28-.06-3.42-.07-.77-.26-1.6-1.15-1.68-2.07-.18-4.18-.6-6.21,.32-11.41,0-22.82,0-34.23,0-.67-.56-1.48-.51-2.27-.52-5.33-.01-10.66-.02-15.99,0-.78,0-1.61-.09-2.25,.54-.02,1.93-.08,3.87-.05,5.8,.01,.81-.26,1.1-1.07,1.08-1.93-.05-3.87-.02-5.81-.03,0,6.86,0,13.72,0,20.58,1.22,.87,2.63,.45,3.95,.52,.96,.05,1.92,.05,2.88-.02,3.58,.08,7.17,.01,10.76,.03,2.4,.02,2.44,.05,2.45,2.52,0,2.68,.02,5.35,0,8.03-.01,1.9-.16,2.05-2.03,2.07-3.7,.04-7.4-.04-11.1,.04-1.48-.07-2.96-.07-4.43-.02-1.38,.05-1.95-.49-1.92-1.89,.05-2.96,.02-5.91,0-8.87,0-.85,.08-1.72-.53-2.44-2.29,0-4.58,0-6.87,0,.01,6.86,.02,13.73,.03,20.59,.08,.07,.16,.14,.24,.22,.86,.42,1.79,.3,2.69,.3,7.13,.01,14.27,0,21.4,0,2.43,0,2.5,.09,2.51,2.49q.02,3.25-3.29,3.27c-.46,0-.91,0-1.37,.03-1.68,.13-2.11,.51-2.15,2.22-.08,3.48-.05,6.96-.01,10.44,0,.57,.06,1.14,.43,1.63,.58,.46,1.28,.46,1.96,.46,3.25,.02,6.5,.04,9.75,0,2.17-.03,2.55-.46,2.62-2.65,.03-.8,.04-1.6,.01-2.4-.05-1.33,.58-1.81,1.86-1.8,2.97,.03,5.93,.03,8.9,0,2.53-.02,2.9-.39,2.93-2.86,.06-4.39-.44-3.98,4.11-3.99,8.79-.01,17.57,0,26.36,0,2.65,0,2.7,.06,2.71,2.65q.02,4.17,4.16,4.2c2.67,.01,2.69,.03,2.69,2.64,0,2.74,0,5.48,0,8.21,0,.79-.07,1.61,.47,2.3l.11,.03Z"/><path class="cls-10" d="M113.68,48.89c1.77,.01,3.54,.11,5.29,0,1.33-.08,1.69,.43,1.6,1.67-.09,1.3,.02,2.62-.03,3.93-.04,.95,.28,1.34,1.27,1.3,1.42-.06,2.85,.04,4.27-.03,1.07-.06,1.4,.38,1.35,1.39-.06,1.31,.05,2.62-.03,3.93-.07,1.16,.28,1.66,1.52,1.57,1.36-.09,2.73,.02,4.1-.04,.98-.04,1.31,.34,1.27,1.29-.06,1.36,.04,2.74-.03,4.1-.06,1.08,.25,1.55,1.42,1.49,1.82-.09,3.64-.04,5.47-.05,0-6.85,0-13.7,0-20.54-1.88,0-3.77-.03-5.65,.04-.98,.04-1.26-.28-1.25-1.25,.06-4.17,.04-8.33,.04-12.5-4.58,0-9.16,0-13.75,0,0,1.94-.02,3.88,.03,5.82,.02,.82-.25,1.1-1.07,1.07-1.94-.05-3.88-.03-5.82-.04,0,2.28,0,4.56,0,6.84Z"/><path class="cls-10" d="M58.94,48.91c6.84,0,13.67-.02,20.51-.03,0-2.28,0-4.56,0-6.84-1.94,0-3.88-.02-5.82,.04-.82,.02-1.09-.25-1.07-1.07,.06-1.94,.03-3.88,.04-5.82-2.3,0-4.6,0-6.89,0,0,1.94-.02,3.88,.03,5.82,.02,.82-.25,1.09-1.07,1.07-1.94-.05-3.88-.03-5.82-.04,.03,2.29,.06,4.58,.09,6.86Z"/><path class="cls-10" d="M134.19,124.3c.02-4.16,.02-8.33,.08-12.49,.02-1.03-.44-1.25-1.34-1.22-1.42,.05-2.85-.03-4.28,.03-.99,.04-1.3-.36-1.26-1.3,.06-1.31-.06-2.63,.04-3.93,.1-1.27-.31-1.68-1.62-1.66-5.02,.07-10.04,.03-15.06,.03-5.36,0-10.73,.03-16.09-.02-1.21-.01-1.63,.36-1.54,1.56,.09,1.19-.06,2.4,.04,3.59,.1,1.3-.27,1.8-1.69,1.76-3.48-.1-6.96,.02-10.44-.06-1.3-.03-1.8,.39-1.6,1.65,0,.06,0,.11,0,.17-.14,1.63,.73,3.75-.37,4.76-1.07,.98-3.16,.27-4.8,.29-2.85,.04-5.7-.01-8.56-.03-2.01-.94-4.1-.48-6.17-.34-.55,.04-.98,.45-1.02,1-.17,2.07-.59,4.16,.31,6.17,.8,.75,1.81,.6,2.76,.6,9.41,.01,18.83,0,28.24,0,2.71,0,2.76,.06,2.77,2.78q.01,2.98-3.02,2.98c-9.19,0-18.37,0-27.56,0-2.53,0-2.54-.07-2.61-2.59-.03-1.23,.32-2.52-.47-3.66-1.25-1-2.73-.52-4.11-.58-2.12-.09-2.23-.14-2.26-2.21-.01-.91,0-1.82-.03-2.73-.05-1.24-.66-1.87-1.91-1.91-.85-.02-1.7-.02-2.56-.03-2.28-.02-2.35-.08-2.36-2.43-.01-2.84,0-5.68-.01-8.52,0-.79,.06-1.6-.45-2.3-2.3-.68-4.59-.82-6.86,.09-.02,8.17-.05,16.35-.07,24.53,0,.97-.01,1.93-.02,2.9,1.88,0,3.76,.03,5.64-.04,.96-.04,1.29,.25,1.26,1.24-.06,1.88,.02,3.75,.05,5.63,.7,.66,1.58,.51,2.41,.52,4.32,.06,3.8-.44,3.85,3.94,0,.84-.08,1.71,.51,2.43l-.02-.02c1.29,.87,2.76,.45,4.14,.5,2.11,.08,2.14,.12,2.23,2.23,.05,1.39-.37,2.85,.5,4.14,0,0-.02-.01-.02-.01,17.58,0,35.15-.04,52.73,.03,1.75,0,2.27-.44,2.17-2.18-.09-1.5-.72-3.44,.32-4.43,.95-.9,2.83-.25,4.31-.27,2.18-.04,2.18-.01,2.18-2.26,0-3.37,.03-6.73-.02-10.1-.02-1.05,.34-1.42,1.38-1.37,1.37,.07,2.74-.03,4.11,.03,1.02,.05,1.46-.27,1.4-1.35-.07-1.31,.07-2.63-.04-3.93-.11-1.33,.43-1.67,1.67-1.61,1.71,.09,3.42,.02,5.13,.02Z"/><path class="cls-8" d="M38.38,103.75c2.24,0,4.48,0,6.71,0,1-2.28,.92-4.58,.06-6.88,0,0,.03,.03,.03,.03-2.29-.01-4.59-.02-6.88-.03,.03,2.29,.05,4.58,.08,6.88Z"/><path class="cls-12" d="M52.01,144.89c0-1.77-.07-3.54,.04-5.3,.08-1.33-.44-1.67-1.68-1.6-1.71,.09-3.42,.02-5.13,.02-.03,2.29-.06,4.58-.09,6.88,2.29,0,4.57,0,6.86,.01Z"/><path class="cls-12" d="M58.86,151.74c0-1.87-.03-3.75,.03-5.62,.03-.96-.32-1.31-1.28-1.28-1.87,.05-3.75,.02-5.62,.03,0,2.29,0,4.57,.01,6.86,2.29,0,4.57,0,6.86,.01Z"/><path d="M45.15,96.87c-.02,2.29-.04,4.59-.06,6.88,.02,4.09,.08,8.18,.05,12.28,0,1.07,.21,1.53,1.39,1.45,1.47-.1,2.96,.01,4.43-.04,.81-.03,1.1,.24,1.07,1.06-.05,1.53,.05,3.07-.04,4.6-.05,1.01,.33,1.25,1.27,1.22,1.87-.07,3.75-.03,5.63-.04l-.04,.04c0-1.87,.06-3.75,0-5.62-.03-.94,.22-1.3,1.22-1.27,1.87,.07,3.75,0,5.62-.02,0-4.11,.05-8.21,0-12.32-.01-1.02,.22-1.45,1.32-1.36,1.25,.1,2.52-.1,3.76,.05,1.61,.2,1.95-.47,1.82-1.91-.14-1.58,.5-3.69-.3-4.62-.94-1.08-3.1-.33-4.73-.34-7.47-.05-14.94-.03-22.41-.03Z"/><path d="M58.87,89.98c4.21,.02,8.42,.02,12.63,.07,.8,0,1.1-.23,1.09-1.06-.03-3.87-.03-7.74,0-11.61,0-.83-.29-1.07-1.09-1.06-4.21,.05-8.42,.05-12.63,.07-.5,.48-.53,1.12-.53,1.75-.03,3.36-.03,6.73,0,10.09,0,.63,.03,1.26,.53,1.75Z"/><path d="M99.99,96.83c4.21,.02,8.42,.02,12.63,.07,.8,0,1.1-.23,1.09-1.06-.03-3.87-.03-7.74,0-11.61,0-.83-.29-1.07-1.09-1.06-4.21,.05-8.42,.05-12.63,.07-.5,.48-.53,1.12-.53,1.75-.03,3.36-.03,6.73,0,10.09,0,.63,.03,1.26,.53,1.75Z"/><path class="cls-5" d="M58.87,89.98c0-4.53,0-9.06,0-13.59-2.29-.02-4.58-.03-6.87-.05,0,0,.02-.02,.02-.02,0,4.1,.03,8.19-.03,12.29-.02,1.09,.26,1.52,1.42,1.46,1.82-.1,3.64-.06,5.46-.08Z"/><path class="cls-5" d="M99.99,96.83c0-4.53,0-9.06,0-13.59-1.88-.02-3.77-.01-5.65-.07-.84-.03-1.23,.18-1.22,1.13,.04,3.82,.04,7.65,0,11.47-.01,.95,.38,1.16,1.22,1.13,1.88-.06,3.77-.05,5.65-.07Z"/><path d="M58.89,124.28c0,1.94,.02,3.88-.04,5.82-.02,.81,.24,1.08,1.06,1.07,10.72-.02,21.44-.02,32.16,0,.81,0,1.1-.24,1.07-1.07-.05-1.48-.1-2.97,.01-4.45,.09-1.2-.41-1.38-1.46-1.38-10.95,.04-21.9,.03-32.84,.04,0,0,.04-.04,.04-.04Z"/></g></svg>