<?xml version="1.0" encoding="utf-8"?>
<!-- Generator: Adobe Illustrator 27.5.0, SVG Export Plug-In . SVG Version: 6.00 Build 0)  -->
<svg version="1.1" id="Layer_1" xmlns="http://www.w3.org/2000/svg" xmlns:xlink="http://www.w3.org/1999/xlink" x="0px" y="0px"
	 viewBox="0 0 200 200" style="enable-background:new 0 0 200 200;" xml:space="preserve">
<style type="text/css">
	.st0{fill:#2C0E4C;}
	.st1{fill:#2B0B49;}
	.st2{fill:#FCFCFA;}
	.st3{fill:#4A1D83;}
	.st4{fill:#8642D8;}
	.st5{fill:#FDD760;}
	.st6{fill:#602EAC;}
	.st7{fill:#955DF6;}
	.st8{fill:#8343D6;}
	.st9{fill:#DE8F5E;}
	.st10{fill:#FCEF6F;}
	.st11{fill:#BB8EF9;}
	.st12{fill:#DBC1FB;}
	.st13{fill:#7541CB;}
	.st14{fill:#FFFFFF;}
	.st15{fill:#FA96FB;}
</style>
<g>
	<path class="st0" d="M79.4,41.3c0-0.3,0-0.6,0-0.9c0.4-0.4,0.5-0.9,0-1.3c1.5-6.9,3.5-13.5,8.4-18.8c0.9-1,2.3-1.3,3.5-0.1
		c0.9,0.9,1.3,0.8,1.9-0.3c0.6-1.3,1.5-2.5,2.2-3.7c2.1-3.5,6.3-2.9,8.5-0.7c2.3,2.3,4.4,4.7,6.5,7c0.1,0.1,0.1,0.3,0.2,0.4
		c6.5,2.9,8.1,9.2,10.1,15.1c0.9,2.7,0.7,5.4,0.9,8.7c7.1-10.9,15.1-20.2,23.7-29c1.1,2.1,0.5,3.9-0.8,5.6c-0.5,0.6-0.8,1.2-0.7,1.9
		c0,0,0,0,0,0c-0.2,0.2-0.3,0.3-0.5,0.5c-3.4,3.5-6.4,7.3-9.4,11.1c-0.3,0.1-0.7,0.1-0.6,0.6l-0.1,0.2c-0.5-0.3-1-0.8-1.5-0.3
		c-0.8,0.8,0.7,1.1,0.5,1.8l0,0c-0.4,0-0.7,0.1-0.9,0.4c-0.3,0.4-0.7,0.9-1,1.3c-0.3,0-0.5,0-0.8,0c0-0.7,0-1.6-1.2-1.5
		c0,0.9,0.3,1.4,1.1,1.6c0,0.5,0,0.9,0,1.4c-0.8,2.1-2.5,3.7-3.7,5.6c-1.4,2.3-1.5,2.3,1,3.4c0.7,0.8,1.7,0.9,2.7,0.8l0,0
		c0.2,0.4,0.5,0.5,0.9,0.4l0,0c0.3,0.6,0.8,0.5,1.3,0.5l0,0c-0.1,2.4,1.5,0.4,2.2,0.9l0,0c0.2,0.7-1.1,0.9-0.5,1.7
		c2.4-0.4,3,0.4,2.4,2.9c-0.1,0.2-0.1,0.4-0.1,0.6c-3-2.7-6.9-3.1-10.5-4.3c-1.9-0.7-4-1.4-6.1-0.9c-1.1,2.4-3.3,3.9-4.9,5.8
		c-0.3,0.2-0.5,0.3-0.8,0.5c-0.2,0.1-0.3,0.2-0.5,0.3c-2.8,2-6.4,2.4-9.3,4.1c-0.2,0-0.3,0-0.5,0c-0.3,0-0.4,0.1-0.5,0.4
		c-0.3,0.2-0.6,0.3-0.9,0.5c-1.1,0.2-1.7,1.8-3.1,1.3c-0.9-1-0.6-2.5-1.3-3.6c-0.7-2.4-3-1.9-4.7-2.6c-2.8-1.1-5.5-2.2-7.8-4.1
		c-0.5-0.6-1-1.3-1.5-1.9c-1.2-1.5-2.5-1.6-3.9-0.3c-3.8,0.1-7.2,1.6-10.6,3.1c-4.3,1.9-8.1,4.4-12.1,6.8c-0.4-2.6-2.2-0.2-3.2-0.9
		c-0.3-0.2-0.9,0.1-1,0.6c-0.2,0.6,0.4,0.7,0.7,1c0.4,0.4,0.8,0.6,1.4,0.6c-0.1,0.6-0.1,1.3-1,1.2c-0.8-1.5-1.9-0.5-2.8-0.2
		c-0.7-0.7,0.7-1.8-0.8-2c0.8-1.5,2.4-2.2,3.6-3.3c2.2-2,2.2-1.9-0.4-3.4c-1-0.8-2-1.6-2.7-2.6c-0.1-0.4,0-0.9-0.2-1.3
		c-1.3-2.7-0.7-3.6,2.3-3.7c1.2,0,2.4,0,3.6,0c0.8,0,1.1-0.4,0.6-1.1c-1-1.3-2-2.5-3-3.8c-0.4-1-0.8-2.1-1.2-3.1
		c-0.3-0.9-0.6-1.9,0.1-2.5c1.2-1.1,0.5-1.9-0.1-2.8c-4.8-6.2-9.6-12.4-14.4-18.7c0.3-0.6,0.5-1.4,1.4-1.4c1,1,2.1,1.9,3,2.9
		c4.4,5.5,8.8,10.9,13,16.5c1.9,2.5,4.1,4.8,5.4,7.7c-0.3,0.2-0.6,0.4-0.8,0.7c-0.2,0-0.3-0.1-0.5-0.1c-0.8-0.5-1.8-1.5-2.4-0.7
		c-0.7,0.8,0.4,1.5,1,2.2c0.9,1.1,1.5,2.5,2.5,3.6c0.9,1,0.8,1.9,0.3,3c-1.7,1.5-3.8,0.7-6,1c1,0.8,2.1,1.4,0.8,2.6
		c-0.3,0.3,0,0.6,0.3,0.8c1.8,1.6,2.9,1.5,4.8-0.4c0.7-0.5,1.5-0.9,2.2-1.4c0.3-0.1,0.8,0,0.9-0.5l0,0c0.4-0.1,0.8,0,0.9-0.5
		c0.7-0.1,1.3-0.3,1.8-0.9c1.3,0.1,2.5-0.2,3.5-1c0.9-0.4,1.8-0.9,2.7-1.3c1.1,0.1,2.4-0.1,2.9-1c0.4-0.8-0.8-1.6-1.3-2.4
		c-2.5-3.5-4.9-6.9-7.4-10.4c-0.4-0.8,1.4-0.7,0.8-1.9c-0.6-1.2-0.8-2.6-1.2-3.9c3.5,3.2,6.1,7.1,8.8,10.9c1.2,1.6,2.2,3.3,3.7,4.7
		c0.8-1.1,0.5-2.3,0.1-3.5c0-0.3,0-0.6,0-1C79.8,42.2,79.8,41.8,79.4,41.3z M114.4,32.4L114.4,32.4c-0.4-1-0.4-2.3-1.8-2.6
		c-1.1,0.3-0.3,2.2-1.7,2.1c-0.4-1.5-0.4-3.2-1.2-4.3c-2.4-3-4.5-6.3-7.7-8.6l0,0c-0.1-0.9-0.4-1.4-1.4-1.2c-2.5,0.4-3.2,2.4-4,4.4
		c-1.4,2.4-2.4,4.9-3,7.6c-0.8,0.7-1.5,0.8-2-0.4c-0.4-1.1-0.9-2.1-1.3-3.2c0.1-0.7-0.3-1.1-0.8-1.9c-2,3.1-4.5,5.6-4,9.4
		c-1,1.3-1.3,3-1.8,4.5c-0.1,0.1-0.2,0.3-0.3,0.4c-0.9,7.2,1.2,13.1,7.9,16.7c2.8,1.6,4.9,1.3,7.6-1c1.3-1.1,2-2.8,3.2-4.2
		c0.8,2.1-0.5,3.6-0.7,5.3c-2.7,2.7-2.7,2.7,0,5.2c0.8-1.1,1.7-2,1.9-3.4c1.9-4.1,1.9-8.3,0.2-12.5c-0.4-0.9-0.9-1.7-0.6-2.7
		c0.3,0.2,0.6,0.3,0.9,0.5c2.8,4.7,4.1,9.6,2.1,15c-0.2,0.4-0.4,0.8,0,1.2c0.3,0.3,0.7,0.2,1,0c4-1.3,7.4-3.5,9.2-7.4
		c1.4-3.1,3.4-6.3,0.8-9.8c1-2-0.1-3.9-0.6-5.7c0.1-0.3,0-0.4-0.3-0.5C115.5,34.4,115.6,33.1,114.4,32.4z"/>
	<path class="st0" d="M174.6,163.8c-0.5,0.8-1.1,1.2-2.1,1.4c-1,0.2-1.9,0.8-2.4,1.8c-1.4,0.6-3,0.8-4.1,2.1
		c-2.1,0.2-3.8,1.5-5.6,2.4c-0.9,0.5-1.8,0.8-2.8,0.8c-3.4,0.8-6.6,2.3-10.1,2.6c-0.8,0.1-1.3,0.6-1.9,1c-0.2,0-0.3,0-0.5,0
		c-1.4-0.1-2.7,0.1-4,0.8c-2.5,0.5-4.8,1.7-7.1,2.6c-2.4,0.2-4.2,1.8-6.2,2.8c-3.4,1.5-6,4.2-9.1,6.1c-3,1.8-5.9,3.8-9.6,4.2
		c-1.2,0.3-2.4,0.5-3.6,0.8c-0.7-0.7-1.4-0.7-1.8,0.3c0,0.1,0,0.2,0.1,0.2c-2.4-0.1-4.8-0.1-7.2-0.2c-0.1-0.9-0.8-0.7-1.3-0.8
		c-2.5-0.4-5-0.9-7.4-1.9c-1.4-0.6-2.6-1.7-4.2-1.6c-0.1,0-0.3,0-0.4-0.1c-0.6-1.1-1.4-1.7-2.7-1.7c0,0,0,0,0,0
		c0-0.9-0.6-0.9-1.3-0.9c-0.6-0.3-0.6-1.3-1.4-1.4c-1-1-2.3-1.6-3.5-2.2c-2.3-1.3-4.7-2.7-7.2-3.6c-0.9-1.4-4.8-2.9-6.7-2.5
		c-0.3,0-0.6,0-0.9,0l0.1-0.1c0,0,0-0.1,0-0.1c-2-1.5-4.2-2.1-6.7-1.7c-4.8-0.8-9.6-2-13.9-4.5c-1.8-1.8-4.1-2.7-6.6-3.1
		c-0.7-0.5-1.3-1.1-2.2-1.3c-0.9-0.5-1.5-1.5-2.7-1.3c-2.1-0.7-3.4-2.6-4.8-4c-3.6-3.7-7.1-7.5-9.4-12.2c-1.2-2.5-0.8-4.3,2-6.4
		c0.8-0.7,0.8-0.6,0-1.2c-2.3-1.8-5-3.2-6.3-6.1c0.3,0,0.5,0,0.8,0c0.1,0,0.1,0.1,0.2,0.1c-0.1,0-0.1-0.1-0.2-0.1
		c1.1-2,0-4.9-2.2-5.5c1.7-2.4,4.8-2.6,7-4.4c-0.9-0.6-2-0.9-2.5-1.8c-0.8-1.5-0.1-3.7,1.8-4.9c0.8-0.5,1.5-1.2,2.2-1.8
		c0.9-0.8,1.4-1.4,0.4-2.8c-1.4-1.7,0.1-3.4,1.4-4.2c2-1.2,2.8-3,3.3-4.9c0.9-3,1.2-6.2,2.3-9.2c0.3-0.9,0.1-1.9-0.7-2.8
		c-3.6-4.7-6.3-9.8-7.3-15.7c-0.1-0.4,0-0.7,0.1-1.1c1.3,0,2.6,0,0.7-1.5c-0.5-0.4-0.2-1-0.4-1.4c-0.8-2.3,1.8-3.7,1.5-6
		c0.5,0.7,0,1.6,0.7,2.2c0,0.3,0.1,0.6,0.1,0.9c-1.1,1.2-0.1,2.1,0.3,3.1c1.5,7.2,4.2,13.9,9.1,19.6c0.6,0.7,0.4,1.5,0,2.3
		c-1.2,2.3-1.4,4.8-2,7.3c-0.8,3.3-1.5,6.7-3.9,9.3c-0.3,0.3-0.9,0.9-0.4,1c2.8,1,0.4,2.3,0.1,3.1c-0.9,2.2-3.3,3.3-4.3,5.5
		c-0.7,0.9-0.4,1.5,0.7,1.2c2.4-0.8,2.7,0.7,3,2.4l0,0c-0.4,0-0.7,0.1-0.9,0.5c0,0.7-0.2,1.3-0.9,1.7c-2.2,1.3-4.4,2.8-6.7,4
		c-1,0.5-1.1,0.8-0.5,1.8c2.7,3.9,6,6.6,11.1,6.2c0.3,0,0.8,0.1,1,0.4c0.1,0.2,0,0.8-0.2,0.9c-2.3,1.7-3.8,4.3-6.3,5.6
		c-1.1,0.6-1.2,0.9-0.5,1.9c5.9,8.2,12.2,15.9,22.1,19.5c1.3,0.5,2.4,1.6,4,1.3c0.4,0.1,1-0.1,1.2,0.5c0.7,1.7,2.1,1.8,3.6,1.8l0,0
		c0.2,0.5,0.5,0.6,0.8,0.1c0.4-0.1,0.7-0.1,0.9,0.3c0.3,0.6,0.9,0.5,1.4,0.5c0.1,0,0.3,0,0.4,0.1c0.2,0.2,0.3,0.2,0.4,0
		c0.4-0.1,0.7-0.1,0.9,0.4c0.3,0.6,0.9,0.5,1.4,0.4l0,0c0.5,1.7,1.1,0.4,1.7,0.1c0.4-0.1,0.7,0,0.9,0.4c0.2,0.5,0.5,0.5,0.9,0.1
		c0.4-0.1,0.7-0.1,0.9,0.3c0.3,0.6,0.9,0.5,1.4,0.5c1.7-0.1,3.3,0.6,4.8,1.3c0.2,0.4,0.6,0.5,1,0.5c0.1,0,0.3,0,0.4,0.1
		c0.2,0.3,0.6,0.4,0.9,0.4l0,0c0.4,1.1,1.4,0.9,2.2,0.9l0,0c0.2,0.4,0.5,0.5,0.9,0.5c3.5,0.9,6.4,3.1,9.2,5.2
		c4.2,3.1,8.4,6.2,13.6,7.2c0.7,0.1,1.4,0.1,2,0.6c0.7,0.3,1.4,1.2,2.3,0.3c0.9,0,1.8,0.1,2.6,0.1c2.8,0.6,5.4,0.2,8-1
		c0.3-0.6,0.9-0.2,1.4-0.4c0.7-0.5,1.5-0.9,2.2-1.4c2.4-1.1,4.9-1.9,7-3.6c5-4.1,10.4-7.4,16.6-9.2c3.7-1.1,7.4-2.1,11.1-3.1
		c0.9,0.7,1.9,0.5,2.8,0.3c3.6-1.2,7.2-2,10.9-2.5c0.6-0.1,1-0.3,1-0.9l0,0c2.1-0.2,4.6,0.2,4.8-3.1c0-0.1,0.1-0.3,0.1-0.4
		c0.3-0.2,0.6-0.4,0.9-0.6c0.1,0.6,0.1,1.2,0.3,1.7c0.1,0.3,0.4,0.8,0.9,0.1C169.7,164.2,171.8,163.1,174.6,163.8z M13.3,135.9
		c-0.6-0.7-1-1.3-1.8-1.2c-0.3,0-0.4,0.4-0.2,0.7C11.6,136.2,12.2,136.3,13.3,135.9z M14.1,136.8c-0.1,0.1-0.1,0.2-0.2,0.4
		c0.1,0.1,0.3,0.2,0.4,0.1c0.1,0,0.1-0.2,0.2-0.4C14.4,136.9,14.2,136.9,14.1,136.8z"/>
	<path class="st0" d="M187.5,148.2c-0.3,1.8-1.6,3.1-2.6,4.5c-0.2-1.7-0.5-1.9-0.9-1.3c-1,1.3-1.6,0.2-2.3-0.1
		c0-0.3,0.1-0.6,0.1-0.9c0.6,0,0.8-0.4,0.8-0.9c0,0,0,0,0,0c0.7-0.8,1.6,1.4,2.3-0.2c0.4-1.1,0.6-2.1-0.5-2.9c0-0.1,0-0.2,0-0.3
		c0.2-0.5,1.3-0.8,0.5-1.6c-1.4-1.3-1.7-3.9-4.4-3.7c-0.2,0-0.4-0.1-0.7-0.1c-0.3,0-0.6-0.2-0.5-0.6c0.1-0.5,0.5-0.7,0.9-0.9
		c0.3-0.1,0.5-0.3,0.8-0.1c1.2,1.1,1.2,1.1,2.5,0.5c-0.9-0.3-1.5-0.7-1.4-1.6c2.2-0.7,3.9-2,5.5-3.6c2.5-2.5,2.4-2.6-0.6-4.3
		c-2.8-1.6-5.6-3.3-7.1-6.4c-0.2-1.4,0.5-2,1.9-1.9c0.7,0.1,1.5,0.2,2.1-0.3c0.7-0.9-0.4-1-0.6-1.4c-1.5-2.1-3.5-3.7-4.3-6.3
		c0.6-0.6,2.2-0.2,2-1.5c-0.1-0.8-0.9-0.7-1.6-0.7l0,0c-0.1-0.8-0.2-1.6-1.2-1.8c-0.7-1.6-1.9-2.9-2.3-4.6c-0.7-2.9-1.5-5.8-2.1-8.8
		c-0.2-0.7-0.1-1.5-0.9-1.8c0-0.3-0.1-0.6-0.1-0.9c-0.2-0.9,1.2-1.2,0.9-2.1c0.2-0.1,0.4-0.2,0.5-0.4c3-5.1,6-10.2,7.1-16.2
		c1.7-0.4,0.2-2.2,1.2-2.9c0.9,0.1,0.1,1.2,0.8,1.4c0.8-5.6,0.7-11.2,0.2-16.8c0,2.6,0,5.3,0,7.9c-0.4-0.8-0.5-1.6-0.4-2.4
		c0.2-6.4-0.3-12.7-1.3-18.9c-0.1-0.6,0-1.2-0.8-1.3c-0.1-2.3-1.6-4.3-1.4-6.6c-0.2-3.8-1-7.3-3.5-10.3c-0.2-0.9-0.7-1.6-1.3-2.2
		c-0.1-2.1-0.8-3.9-2.3-5.4c-1.1-1.9-2.1-3.8-3.3-5.6c-1.3-1.9-2.7-3.8-5.1-4.6c-0.3-0.1-0.9-0.1-1-0.3c-0.2-0.5,0.2-0.9,0.6-1.3
		c0.5-0.5,1.5,0.2,2-1c-1.8,0.1-3.8-1.1-4.9,0.8c-0.8,1.4-1.3,1.1-2.2,0.4c0.2-0.2,0.3-0.4,0.5-0.5c0.3,0.1,0.4-0.1,0.5-0.3
		c3-2.1,6.8-1.7,9.7,1c3.3,3,5.1,6.9,7.2,10.7c2.5,4.8,4.4,9.8,5.9,15c-0.1,0.3,0.1,0.4,0.3,0.5c0.7,2.9,1.5,5.9,1.9,8.8
		c0.4,2.8,1.1,5.6,1.3,8.5c0.2,2.8,0.8,5.6,0.4,8.5c-1.9-0.1-1.4,1.4-1.3,2.3c0,1-0.8,2.6,1.3,2.6c0.2,1.5,0.3,3-0.1,4.5
		c-1.2,0-0.5-1.4-1.4-1.9c0.4,2.8-1,5.5,0.4,8.1c-0.5,5.5-2.2,10.7-5.3,15.1c-2.3,3.4-3.3,6.3-1.5,10.1c0.7,1.6,0.6,3.6,1,5.3
		c0.6,2.3,2,4.2,3.9,5.7c1.3,1.1,2,2.4,0.5,3.9c-0.7,0.7-0.1,1,0.3,1.4c1,1,2,2,3,3c2.5,2.5,2.4,4.1-0.6,5.9
		c-0.1,0.1-0.4,0.1-0.4,0.2c-0.1,0.3,0.1,0.5,0.4,0.6c1.4,1.1,3,1.9,4.6,2.6c2.2,1.1,3,3.8,1.6,5.9c-1.6,2.4-4.8,6.1-8.4,7.6
		c1.2,0.9,2.4,1.7,3.1,2.9C186.2,145.3,186.1,147,187.5,148.2z"/>
	<path class="st1" d="M18.2,68.9c-0.7-0.6-0.2-1.5-0.7-2.2c0.3,2.2-2.3,3.6-1.5,6c0.2,0.5-0.1,1.1,0.4,1.4c1.9,1.5,0.5,1.5-0.7,1.5
		c-1.3-2.7-0.9-5.6-1-8.4c0-0.6,0.2-1.3-0.3-1.8c0-3.1,0-6.2,0-9.4c0.5-0.9,0.5-1.8,0-2.7c-0.3-2.2,0.3-4.2,0.9-6.2
		c0.3,0,0.5,0,0.8,0c0.1,1.5-0.2,3.1,0.5,4.6c0-1.5,1.4-3.2-0.5-4.6c-0.3-0.9,0.6-2.1-0.8-2.7c1.1-5.3,2.4-10.5,4.1-15.6
		c2.2-6.7,5.4-13,9.2-19C29.7,8,31.1,6.5,33,5.3c3.9-2.4,6.7-1.6,10.1,1.2c6.6,5.4,12.1,12.1,18.2,18.1c0.9,0.9,1.4,2.1,2.4,2.9
		c-0.9,2.2-0.1,3.7,3.1,4c0,0,0,0,0,0c0.4,1.3,0.5,2.7,1.2,3.9c0.7,1.2-1.1,1-0.8,1.9c-1.6-0.4-1.1-2.3-2.2-3
		c-3.4-2.3-5.3-6-8.1-8.9c-1.1-1.2-1.9-2.6-3.5-3.2l0,0c-0.2-0.2-0.3-0.3-0.5-0.5l0,0c-0.2-0.2-0.3-0.3-0.5-0.5
		c-0.3-0.3-0.6-0.6-0.9-0.9c-1.8-1.8-3.6-3.6-5.4-5.4c0,0,0,0,0,0c-0.2-0.2-0.3-0.3-0.5-0.5c-1.8-1.9-3.4-4.1-5.7-5.3
		C40,9.1,39.8,9,39.6,8.8c0,0,0,0,0,0c-0.2-0.5-0.8-0.4-1.2-0.6l0-0.1c-2-1.2-3.1,0.3-4.4,1.3l-0.2,0.1c-0.2,0.2-0.6,0.2-0.5,0.6
		c-0.8,0.6-1.4,1.3-1.9,2.3c-0.7,1.5-1.2,3.2-2.2,4.4c-2.5,3-3.1,6.8-4.9,10c-1.2,2.1-1.7,4.5-2.3,6.9c-1.1,3.8-2.4,7.6-2.5,11.6
		c-1.1,2.7-1.3,5.7-1.4,8.5C18.1,58.9,18.2,63.9,18.2,68.9z M15.3,64.6c0.1,0,0.3,0,0.4,0c0-2.6,0-5.2,0-7.8c-0.1,0-0.3,0-0.4,0
		C15.3,59.4,15.3,62,15.3,64.6z M17.3,64.9c0.2-0.2,0.4-0.4,0.4-0.5c0-0.2-0.1-0.5-0.2-0.5C17.1,63.7,17,64,17,64.3
		C17,64.5,17.2,64.6,17.3,64.9z"/>
	<path class="st1" d="M158.4,6.1c0.9,0.7,1.4,1,2.2-0.4c1.1-1.9,3.1-0.6,4.9-0.8c-0.5,1.2-1.5,0.5-2,1c-0.4,0.4-0.8,0.8-0.6,1.3
		c0.1,0.2,0.6,0.2,1,0.3c-0.8,1.2-2.4,1-3.4,2c-2.5,2.6-5.2,5.1-8.1,7.3c-2.9,2.2-5,4.9-7.3,7.6c-0.6,0-0.8,0.7-1.3,0.9
		c-0.1-0.8,0.3-1.3,0.7-1.9c1.3-1.7,2-3.5,0.8-5.6c0,0,0,0,0,0c1.6,0.4,1.6-1,2-1.8c0.2-0.2,0.3-0.3,0.5-0.5
		c0.6,0.1,0.9,1.2,1.9,0.4c0.9-0.8,0.2-1.4-0.1-2.1c0.1-0.2,0.3-0.3,0.4-0.5c0.4,0,0.7-0.1,0.9-0.5C153.1,10.3,155.6,8,158.4,6.1z"
		/>
	<path class="st1" d="M181.6,151.3c0.7,0.3,1.4,1.4,2.3,0.1c0.4-0.6,0.7-0.4,0.9,1.3c0,0,0,0,0,0c-0.2,0.2-0.3,0.3-0.5,0.5
		c0,0.1,0,0.3-0.1,0.4c-0.1,0.2-0.2,0.3-0.4,0.5c0,0,0,0,0,0c-0.2,0.2-0.3,0.3-0.5,0.5c0,0.1,0,0.3-0.1,0.4
		c-0.1,0.2-0.2,0.3-0.4,0.5c-2.4,2.8-4.7,5.6-7.5,8c-0.2,0.1-0.3,0.2-0.5,0.3c-0.1,0.1-0.3,0.1-0.4,0.1c-2.8-0.8-4.9,0.4-6.5,2.6
		c-0.5,0.7-0.8,0.2-0.9-0.1c-0.2-0.5-0.2-1.1-0.3-1.7c0.3-0.6,0.8-1,1.4-1.3c3.4-1.8,6.1-4.6,8.8-7.3
		C178.7,154.5,179.6,152.4,181.6,151.3z"/>
	<path class="st2" d="M145.6,175.9c0.6-0.4,1-0.9,1.9-1c3.5-0.2,6.7-1.8,10.1-2.6c-0.4,0.4,1.3,1,0,1.2c-3.5,0.7-6.7,2.5-10.4,2.7
		C146.7,176.3,146.1,176.4,145.6,175.9z"/>
	<path class="st3" d="M83.7,189.2c1.7-0.1,2.8,1,4.2,1.6c2.4,1,4.9,1.4,7.4,1.9c0.5,0.1,1.2,0,1.3,0.8c0.1,0.1,0.1,0.1,0.1,0.2
		c-1.4,0-2.6-1-4-0.5c-2.5-0.6-5-1.4-7.3-2.8C84.7,190.1,84,190,83.7,189.2z"/>
	<path class="st1" d="M7.6,129.3c2.1,0.6,3.3,3.5,2.2,5.5l0,0c-0.3,0-0.5,0-0.8,0c-0.2-0.6-1.1-0.9-1-1.7
		C7.9,131.9,8.3,130.5,7.6,129.3L7.6,129.3z"/>
	<path class="st2" d="M127.8,182.1c2.1-1,3.8-2.6,6.2-2.8c-1.4,2.2-3.8,2.6-6,3.4C128,182.7,127.9,182.3,127.8,182.1z"/>
	<path class="st1" d="M185.1,73.8c-1.4-2.6,0-5.3-0.4-8.1c0.9,0.5,0.1,1.9,1.4,1.9c-0.7,1.1-0.4,2.4-0.4,3.6
		C185.7,72.1,185.4,73,185.1,73.8z"/>
	<path class="st3" d="M32.5,167.4c2.5,0.4,4.8,1.3,6.6,3.1C36.4,170.5,34.4,169,32.5,167.4z"/>
	<path class="st0" d="M66.8,31.5c-3.2-0.4-4-1.8-3.1-4C64.4,29.1,66.4,29.7,66.8,31.5z"/>
	<path class="st1" d="M186.1,63.2c-2.1,0-1.3-1.6-1.3-2.6c0-1-0.6-2.4,1.3-2.3C186.3,59.9,186.3,61.5,186.1,63.2z"/>
	<path class="st3" d="M53,174.9c2.5-0.4,4.7,0.2,6.7,1.7c-0.5,0-0.9,0.1-1.4,0.1c-0.3-0.6-0.8-0.5-1.3-0.4
		C55.9,175.3,53.9,176.5,53,174.9z"/>
	<path class="st3" d="M60.5,176.8c1.9-0.4,5.8,1.1,6.7,2.5c-1.6-0.1-2.8-1.4-4.4-1.3C62.2,177.3,61,177.6,60.5,176.8z"/>
	<path class="st1" d="M187.5,148.2c-1.3-1.2-1.3-2.9,0-4C188.6,145.5,187.9,146.9,187.5,148.2z"/>
	<path class="st2" d="M141.1,176.7c1.3-0.6,2.6-0.8,4-0.8C144.5,177.5,142.6,177.9,141.1,176.7z"/>
	<path class="st2" d="M166,169.1c1-1.3,2.6-1.5,4.1-2.1C169.1,168.5,168,169.6,166,169.1z"/>
	<path class="st0" d="M149.6,13.8c0.3,0.7,1,1.3,0.1,2.1c-0.9,0.9-1.3-0.2-1.9-0.4C148.3,14.8,148.8,14.2,149.6,13.8z"/>
	<path class="st2" d="M27.6,164.8c1.2-0.2,1.8,0.8,2.7,1.3c0,0.8-1,1-1.1,1.8C29.2,166.6,28.1,165.8,27.6,164.8z"/>
	<path class="st3" d="M80.6,187.4c1.3-0.1,2.1,0.6,2.7,1.7C81.8,189.4,81.1,188.6,80.6,187.4z"/>
	<path class="st0" d="M7.6,129.3c0.7,1.2,0.3,2.5,0.4,3.8C7,131.9,6.6,130.7,7.6,129.3z"/>
	<path class="st0" d="M15.2,44.5c1.4,0.5,0.5,1.8,0.8,2.7l0,0c-0.3,0-0.5,0-0.8,0C15.2,46.2,15.2,45.4,15.2,44.5z"/>
	<path class="st0" d="M147.4,16c-0.4,0.9-0.4,2.2-2,1.8C146.2,17.4,145.7,15.5,147.4,16z"/>
	<path class="st3" d="M79.4,43.6c0.4,1.2,0.7,2.4-0.1,3.5C79.3,45.9,79.3,44.8,79.4,43.6z"/>
	<path class="st3" d="M14.3,53.4c0.6,0.9,0.6,1.8,0,2.7C14.3,55.1,14.3,54.3,14.3,53.4z"/>
	<path class="st3" d="M79.3,186.5c0.7,0,1.3,0,1.3,0.9C79.9,187.4,79.4,187.2,79.3,186.5z"/>
	<path class="st3" d="M14.4,65.4c0.5,0.5,0.3,1.2,0.3,1.8C13.9,66.7,14.3,66,14.4,65.4z"/>
	<path class="st3" d="M79.4,41.3c0.4,0.4,0.5,0.9,0,1.3C79.4,42.2,79.4,41.8,79.4,41.3z"/>
	<path class="st3" d="M79.3,39.1c0.5,0.4,0.4,0.9,0,1.3C79.3,40,79.3,39.6,79.3,39.1z"/>
	<path class="st0" d="M150.9,12.8c-0.2,0.4-0.5,0.5-0.9,0.5C150.1,12.8,150.6,12.9,150.9,12.8z"/>
	<path class="st2" d="M186.5,125.1c-0.3-0.1-0.5-0.3-0.4-0.6c0-0.1,0.3-0.2,0.4-0.2C186.5,124.6,186.5,124.8,186.5,125.1z"/>
	<path class="st0" d="M175,163.7c0.2-0.1,0.3-0.2,0.5-0.3C175.4,163.6,175.3,163.8,175,163.7z"/>
	<path class="st0" d="M183,155.4c0.1-0.2,0.2-0.3,0.4-0.5C183.4,155.2,183.2,155.3,183,155.4z"/>
	<path class="st0" d="M183.4,154.5c0.2-0.2,0.3-0.3,0.5-0.5C183.8,154.2,183.6,154.3,183.4,154.5z"/>
	<path class="st0" d="M183.9,154c0.1-0.2,0.2-0.3,0.4-0.5C184.4,153.9,184.1,154,183.9,154z"/>
	<path class="st0" d="M184.3,153.2c0.2-0.2,0.3-0.3,0.5-0.5C184.7,152.9,184.5,153,184.3,153.2z"/>
	<path class="st2" d="M182.5,32.5c-0.2-0.1-0.4-0.1-0.3-0.5C182.3,32.2,182.4,32.3,182.5,32.5z"/>
	<path class="st2" d="M159.4,5.3c-0.1,0.2-0.2,0.4-0.5,0.3C159.1,5.5,159.3,5.4,159.4,5.3z"/>
	<path class="st4" d="M98.8,66.7c1.4,0.5,2-1,3.1-1.3c0.2,1.4-0.1,2.2-1.7,2.4c-0.6,0.1-1.1,0.6-0.9,1.3c0,0.2,0.3,0.4,0.4,0.4
		c1.6-0.6,3.3-1,4.8-1.8c1.1-0.6,0.4-2,0.8-2.8c-0.6-0.7-1.5,2.4-1.6-0.4c2.9-1.7,6.5-2.2,9.3-4.1c0.1,0.1,0.2,0.1,0.3,0.2
		c0.1-0.2,0.1-0.4,0.2-0.6c0.3-0.2,0.5-0.3,0.8-0.5c0.9-0.1,1.5,1.2,1.7,1.1c1.9-1.1,2.2,0.8,3,1.5c1.4,1.4,1.6,3.4,2.2,5.1
		c0.3,0.7-1.8,0.9-2.6,1.6c-3,2.5-3.1,3.1-0.7,6.1c0,0.1,0.1,0.1,0.1,0.2c0,0.7-0.4,1-1,1.4c-1.1,0.8-2,1.7-2.7,2.9
		c-1.4,2.4-1.7,2.5-3.6,0.5c-0.7-0.7-1.2-0.7-1.3,0.2c-0.2,1.8-1.1,3.6-1,5.3c0.1,1.5-0.3,2-1.5,2.7c-1.3,0.7-1.2,1.6,0.2,2.2
		c1.2,0.5,2.5,1,3.9,0.9c-0.7,2.2-2.3,3.9-3.6,5.8c-0.3,0-0.6,0-0.9,0c-0.1-0.3,0-0.7-0.5-0.7c-0.1,0-0.1,0.1-0.1,0.1
		c0,0.5,0.4,0.5,0.7,0.5c0,0.5,0,0.9,0,1.4c-1.5,4.4-4.7,8.1-5.6,12.9c-1-0.5-1.2-1.4-1.4-2.1c-2-5.7-4.8-10.9-8.1-16
		c-2.7-4.2-5.9-8-9.4-11.5c-3.5-3.4-7.6-5.7-11.6-8.3c-0.2-0.1-0.3-0.3-0.5-0.4l0,0c0.2-1-0.2-2,0.3-2.9c0.7,0.1,0.6,0.5,0.7,0.9
		c0.2,0.7,0.3,1.5,1.3,1.5c0.3,0,0.7,0,0.7-0.4c0-0.7-0.3-1.3-0.9-1.7c-0.9-0.6-0.7-1.1,0.1-1.7c1.6-1,3.3-2,4-3.9
		c0.5-1.3,1.1-2.4,2.8-1.8c0.3,0.1,0.9-0.3,1.2-0.5c0.8-0.7,1.3-0.5,2.1,0.1c2.1,1.8,4,1.4,5.2-1.2c1.3,0.4,2.7,0.9,4,1.3
		c0,2-0.3,4.3,2.6,4.7c0.2,0,0.3,0.3,0.4,0.5c0.3,1.2,0.9,2.2,2.3,1.8C98,69.4,99,68.4,98.8,66.7z M107.3,95
		c-0.1-0.2-0.2-0.3-0.2-0.4c-0.2,0.1-0.4,0.2-0.5,0.4c-0.1,0.2,0.1,0.5,0.3,0.4C107,95.4,107.2,95.2,107.3,95z"/>
	<path class="st5" d="M40.1,9.3c2.4,1.3,3.9,3.4,5.7,5.3c0.2,0.2,0.3,0.3,0.5,0.5c0,0,0,0,0,0c0.7,3.5,2.4,5.1,5.4,5.4
		c0.3,0.3,0.6,0.6,0.9,0.9c0.2,0.2,0.3,0.3,0.5,0.5c0,0,0,0,0,0c0.2,0.2,0.3,0.3,0.5,0.5c0,0,0,0,0,0c0.1,0.3,0,0.6,0.2,0.8
		c2.8,3.5,5.7,7,8.5,10.6c3,3.7,5.4,7.8,8.2,11.6c1.3,1.8,2.5,3.6,2.7,5.9c-0.9,0.4-1.8,0.9-2.7,1.3c-1.5-0.8-2.5,0.2-3.5,1
		c-0.5,0.6-1.1,0.8-1.8,0.9c-0.4,0-0.7,0.1-0.9,0.5c0,0,0,0,0,0c-0.4,0-0.7,0.1-0.9,0.5c-0.7,0.5-1.5,0.9-2.2,1.4c0-1.3,0-2.6,0-3.9
		c0.5-1.1,0.6-1.9-0.3-3c-1-1.1-1.5-2.5-2.5-3.6c-0.6-0.7-1.7-1.4-1-2.2c0.7-0.7,1.7,0.2,2.4,0.7c0.1,0.8,0.7,0.8,1.2,0.8
		c0.3-0.2,0.7,0.5,0.8,0c0.1-0.5-0.2-1-0.7-1.4c-1.2-2.9-3.5-5.2-5.4-7.7c-4.2-5.6-8.6-11.1-13-16.5c-0.9-1.1-2-2-3-2.9
		c-1.7-1.9-3.2-1.6-4.5,0.6c-0.9,1.5-1.1,3.3-2,4.6c-1.7,2.5-2.5,5.4-3.3,8.3c-1.2,4.3-1.6,8.7-1.5,13.2c-0.2-0.4-0.4-0.9-0.5-1.3
		c0.1,2.5-0.8,5.1,0.2,7.5c0,0.5-0.1,1,0.4,1.3c0.2,1.2,0.4,2.4,0.5,3.5c-0.5,1-0.5,1.9-0.2,3c0.8,2.4,1.9,4.7,3.2,7
		c1.6,2.9,3.3,5.6,5,8.4c-2.1,2.7-3.9,5.5-5.3,8.6c-0.5,1.1-1.1,0.9-1.9,0.4c-3.5-2.1-5.2-5.6-6.5-9c-3.2-8.4-4-17.3-2.9-26.3
		c0.1-0.6,0.1-1.2-0.7-1.4c0.1-4,1.4-7.8,2.5-11.6c0.7-2.3,1.1-4.7,2.3-6.9c1.8-3.2,2.4-7,4.9-10c0.9-1.1,1.5-2.9,2.2-4.4
		c0.5-1,1.1-1.6,1.9-2.3c0.3-0.1,0.8-0.1,0.5-0.6c0,0,0.2-0.1,0.2-0.1C35.6,9,37.1,9,38.5,8.1c0,0,0,0.1,0,0.1
		c0,0.9,0.7,0.6,1.2,0.6c0,0,0,0,0,0C39.8,9,40,9.1,40.1,9.3z"/>
	<path class="st6" d="M53.8,66.7c0.9,0,0.9-0.6,1-1.2c0.1,0,0.2,0,0.4-0.1c0.2-0.1,0.3-0.3,0.5-0.4c0.6,0,1-0.4,1.3-0.9
		c3.9-2.4,7.8-5,12.1-6.8c3.4-1.5,6.8-3,10.6-3.1c0,0.3,0,0.7,0,1c-0.9,0.5-1.8,0.9-2.7,1.4c-0.5,0.3-1.1,0.6-1,1.3
		c0.1,0.7,1,0.2,1.3,0.8c-1.2,0.9-1.6,2.2-1.5,3.7c-1.6,1.3-3,2.9-4.7,4c-2.1,1.3-3.2,3.1-3.8,5.3c-0.2,0.1-0.4,0.1-0.5,0.2
		c0,0.1-0.1,0.1-0.2,0.2c-2,2-3.9,4.2-5,6.9c-0.9,1.6-3.1,2.2-3.1,4.4c-0.3,0.5-0.8,0.9-1.4,1c-1.8-0.1-2.5,1.5-3.7,2.3
		c-4.7,3.4-6.9,8.2-7.9,13.8c-0.8,4.5-0.9,9.3-3.1,13.5c-2.8,5.1-6.7,7.5-12.5,6.1c-0.7-0.2-1.5,0-2-0.8c-0.9-1.8-1.8-3.6-0.6-5.6
		c1.1-1.8,1.5-3.9,2.2-5.9c1-3,2.1-6,1.9-9.2c1.2,0,1.9-0.4,2.3-1.6c0.5-1.5,1.1-3,1.7-4.5c2.4-6,5.7-11.6,9.7-16.7
		c0.6-0.2,0.9-0.7,1-1.2c0.1-0.2,0.3-0.3,0.4-0.5c0.3-0.3,0.6-0.6,0.9-0.9c0.8-0.4,1.4-1.1,1.8-1.8c0.6-0.2,0.9-0.7,1-1.2
		C51.6,69.3,52.1,67.3,53.8,66.7z M36,109.7c3.2-7.8,4.7-16.2,10.1-23C39.2,92.8,37.7,101.3,36,109.7z"/>
	<path class="st7" d="M118,75.2c0-0.1,0-0.1-0.1-0.2c-2.4-3-2.2-3.6,0.7-6.1c0.9-0.7,2.9-0.8,2.6-1.6c-0.7-1.7-0.8-3.8-2.2-5.1
		c-0.8-0.8-1.1-2.6-3-1.5c-0.2,0.1-0.8-1.1-1.7-1.1c1.7-1.9,3.8-3.4,4.9-5.8c0.1,0.6,0.5,0.8,1.1,0.9c10.3,2.1,19,7,27,13.7
		c1.1,0.9,2.2,2.4,4,2.4c0.1,0.1,0.3,0.3,0.4,0.4c0.1,0.1,0.3,0.3,0.4,0.4c0.1,0.1,0.3,0.3,0.4,0.4c0.1,0.1,0.3,0.3,0.4,0.4
		c0.1,0.1,0.3,0.3,0.4,0.4c0.1,0.1,0.3,0.3,0.4,0.4c0.1,0.1,0.3,0.3,0.4,0.4c0.1,0.1,0.2,0.3,0.3,0.4c0.2,0.2,0.3,0.3,0.5,0.5
		c1,0.9,1.9,1.8,2.7,2.9c4.5,6,7.2,12.9,9.9,19.8c-1.2,1.2-2.7,2-4.5,1.8c-0.5-5.2-2.6-9.8-5.9-13.9c-0.8-1-1.7-2-3.3-2.1
		c0.6,1.4,1.1,2.7,1.7,3.9c-0.5,1.7,1,2.2,1.7,3.3c0.2,0.3,0.5,0.5,1,0.4l0,0c-0.3,1,0.2,1.8,0.7,2.7c0.9,1.8,1.7,3.7,2,5.8
		c-0.7,0.7-1.4,1.3-1.8-0.3c-0.2-0.9-0.5-1.8-0.8-2.9c-0.9,1.1-0.3,2.2-0.7,3.1c-1.3-1.3-0.3-3.2-1.1-5c-0.8,1.5-0.2,2.9-0.6,4.1
		c-0.5-0.4-0.2-1.4-1.2-1.3c-1.7-5.9-5.5-10-10.7-13c-1-1.8-4.2-3-6.7-2.7c-0.3,0-0.6,0-0.9,0.1c-0.7-1.4-2.1-0.6-3.2-0.9
		c-0.7-1.3-1.5-1.3-2.2,0c-0.1,0-0.3,0.1-0.4,0.1c-0.2-0.1-0.3-0.1-0.5-0.2c0.1-0.8,0.2-1.5,0.3-2.3c0,0,0,0.1,0,0.1
		c0.7-0.2,0.5-0.8,0.5-1.3l0,0c0.1-0.2,0.3-0.3,0.4-0.5c0.3-0.6,0.7-1.2,0.8-1.8c0.1-0.5,0.9-1,0.4-1.6c-0.5-0.5-1.1,0.1-1.6,0.2
		c-2.4,0.7-4,2.6-6.2,3.6c-0.2,0.2-0.3,0.3-0.5,0.5l0,0c-0.6-0.1-1.3,0.2-1.7-0.6C121.1,73.9,121,73.9,118,75.2z M143.7,72.6
		c0-0.4,0-0.7-0.4-0.9c-2.6-2.9-6.2-4.2-9.8-5.4c-0.7-0.2-1.5-0.8-2.2,0c-1,0-1.9,0-2.9,0c-1.3,0.1-3,0.1-2.8,1.9
		c0.2,1.4,0.5,3.2,2.9,3c5.1-0.4,9.9,0.8,14.3,3.6c1.3,0.8,2.5,1.9,4.1,2.2c0.1,0.1,0.1,0.1,0.2,0.2c-0.1-0.1-0.1-0.1-0.2-0.2
		c-0.9-1.4-1-3.4-3.1-4C143.8,72.8,143.8,72.7,143.7,72.6z M124.9,75.7c0-0.5-0.5-0.6-0.9-0.7c-0.1-0.1-0.5,0.1-0.5,0.2
		c-0.1,0.5,0.3,0.8,0.7,0.9C124.5,76.1,124.8,76,124.9,75.7z"/>
	<path class="st1" d="M48.9,71.1c-0.4,0.8-1,1.4-1.8,1.8c-0.6,0-0.9,0.3-0.9,0.9c-0.1,0.2-0.3,0.3-0.4,0.5c-0.9,0-1,0.6-1,1.2
		c-4,5.1-7.3,10.6-9.7,16.7c-0.6,1.5-1.2,3-1.7,4.5c-0.4,1.2-1.1,1.6-2.3,1.6c-0.8-5.5,1.4-10.4,3.6-15.2c1.2-2.5,2.9-4.8,4.4-7.1
		c0.9-1.4,0.9-2.5-0.5-3.5c-0.4-0.8-0.8-1.7-1.3-2.5c-3.3-4.8-6-10.1-8.4-15.4c-0.2-1.2-0.4-2.4-0.5-3.5c0-0.4,0-0.9,0-1.3
		c0-0.9,0-1.8-0.1-2.6c0-1.2,0-2.4,0-3.6c-0.1-4.5,0.3-8.9,1.5-13.2c0.8-2.8,1.6-5.7,3.3-8.3c0.9-1.4,1.1-3.1,2-4.6
		c1.3-2.2,2.8-2.5,4.5-0.6c-0.9,0-1.1,0.8-1.4,1.4c-0.2,0-0.3,0-0.5,0.1c-1,0.6-1.3,1.6-1.4,2.7c-2.5,4.6-4.3,9.4-5.1,14.6
		c-0.9,4.9-0.5,9.8-0.3,14.7c-0.4,1-0.1,2,0.2,3c0.9,2.5,2,5,3.5,7.3c0.7,0.8,0.2,2.5,1.8,2.7c0.2,0.7-0.3,1.6,0.6,2.1l0,0
		c0.1,0.4,0.5,0.5,0.8,0.5c0.1,0.9,0.2,1.7,1.4,1.8c0,0.6,0.3,1.1,0.9,1.3c0,0.4,0,0.8,0.1,1.1c1.1,2.4,1.5,2.4,3.3,0.6
		c0.7-0.7,1.5-1.4,2.3-2.1c0.2-0.1,0.3-0.3,0.5-0.4c0.2-0.4,0.5-0.7,0.9-0.9c0.8-0.1,1.3-0.5,1.3-1.3c0.4-0.7,0.9-1.3,1.7-1.4
		c1.5,0.2,0.1,1.3,0.8,2c0.8-0.3,1.9-1.4,2.8,0.2c-1.7,0.6-2.2,2.6-3.9,3.2C49,69.8,49,70.4,48.9,71.1z"/>
	<path class="st8" d="M103.7,42.7c-0.3-0.2-0.6-0.3-0.9-0.5c0,0,0,0,0,0c-0.2-0.2-0.3-0.3-0.5-0.5l0,0c-0.2-0.2-0.4-0.3-0.6-0.5
		c-1.2,0.3-0.6,1-0.5,1.7c0.4,3.2,0.5,6.3-3,8.1c-3.6-1.9-7.1-3.9-8.2-8.3c-0.5-1.9,0-5.4,1.1-6.4c1.1,0.5,2.4,2.2,3.1-0.3
		c0.2-1.8,1.3-3.3,1.8-5c0.8-2.9,1.8-5.7,4-8c1.8,1.7,3.6,3.4,5.1,5.3c1.1,1.3,1.8,3.1,3.6,3.6c0.5,0.6,1.1,1.2,1,2.1
		c0,0.1-0.1,0.3-0.1,0.4c-0.4-0.3-0.8-0.6-1.3-0.8c-0.5-0.3-1-0.5-1.5-0.7c-0.1,1.5-1.9,1.4-2.4,2.5c-0.2,0.5,0.3,0.8,0.7,0.8
		c1.7-0.1,1.9,1,1.8,2.3c-0.8-0.3-1.2-1.6-2.5-1.3c0.9,1.1,1.6,2.1,1.7,3.4C105,40.7,104.7,42.2,103.7,42.7z"/>
	<path class="st1" d="M135.8,59.1c0-0.2,0.1-0.4,0.1-0.6c0.7-2.5,0-3.4-2.4-2.9c-0.6-0.8,0.7-1,0.5-1.7c2.3,0.7,4.4,1.9,6.4,3.1
		c2.8,1.7,2.8,1.8,4.9-1.2c-0.4-0.4-2.1,0.2-1.1-1.4c0.2-0.4-0.2-0.9-0.9-0.7c-1.9,0.6-2.9-0.8-3.9-2c0.1-0.7,0.3-1.5,0.4-2.2
		c1.4-0.2,1.7-1.3,2-2.4l0.1-0.1c0.5-0.2,0.6-0.6,0.6-1.1c0.3-0.2,0.6-0.5,0.8-0.7c0.5-0.4,1.2-1,0.8-1.7c-0.5-0.8-1.2-0.1-1.7,0.2
		c-1,0.5-1.9,1.1-3.1,1.7c0.7-2.5,2.1-4.3,3.3-6.1c2.4-3.5,5.2-6.9,7.9-10.2c1.1-1.4,2.2-2.9,3.5-4.2c1.2-1.2,2.5-2.4,3.3-3.8
		c1.2-2,2.8-3.7,4.3-5.4c0.4-0.5,0.8-0.8,1.4-0.2c-0.5,1,0,2.2-0.9,3.1c-0.8,1.2-1.6,2.4-2.5,3.6c-3.8,5-7.7,10-11.6,15.1
		c-0.3,0.4-1.3,0.8-0.5,1.6c1.6,1.8,0.7,3.5-0.1,5.3c-0.4,0.9-0.9,1.7-1.4,2.5c-1.1,0.8-2.5,2-2.2,3c0.3,1.1,2.1,0.3,3.2,0.5
		c0.3,0,0.6,0,0.9,0c2,0.2,2.9,1.6,2.1,3.4c-0.4,1.1-1,2.1-1.5,3.2c-0.3,0.3-0.6,0.6-0.9,0.9c-1,0.4-2,0.9-2.6,1.9
		c-0.8-0.3-1.6,0.7-2.5,0.2c-1.5-1-2.3-0.7-3.3,1.1C138.2,60.3,137,59.7,135.8,59.1z"/>
	<path class="st6" d="M37.8,18.3c0.2,0,0.3,0,0.5-0.1c4.8,6.2,9.6,12.4,14.4,18.7c0.7,0.9,1.3,1.7,0.1,2.8c-0.7,0.6-0.4,1.7-0.1,2.5
		c0.4,1,0.8,2.1,1.2,3.1c-1.4,0.9-2.8,0.4-4.2,0.2c-1.3-0.2-2.5-1.1-3.8-0.2c-0.5-0.4-0.9-0.9-1.4-1.3c-0.1-1.1-0.8-2-1.3-3
		c-2.5-4.8-4.6-9.8-5.4-15.2c0-0.3,0-0.6,0-0.9c0-0.4,0-0.9,0-1.3C37.8,21.8,37.8,20.1,37.8,18.3z"/>
	<path class="st4" d="M103.7,42.7c1-0.5,1.3-2,2.8-1.9c0,0,0,0,0,0c0,0.4,0.1,0.7,0.4,0.9c0,0.3,0,0.5,0,0.8c0,0.7-0.4,1.5,0.5,1.9
		c0.7,1.1,1.3,0.8,1.5-0.3c0.4-2.1-0.5-3.8-1.6-5.4c0.1-1.3-0.1-2.4-1.8-2.3c-0.5,0-1-0.3-0.7-0.8c0.5-1.1,2.3-0.9,2.4-2.5
		c0.5,0.2,1,0.4,1.5,0.7c0.4,0.2,0.9,0.5,1.3,0.8c0,0,0,0,0,0c0,0.3,0,0.6,0,0.9c-2.1,1.1,0.1,1.5,0.1,2.4c1.4-1-0.2-1.6-0.1-2.3
		c0.3,0,0.6,0,0.9,0c0.6,0.4,0.9-0.3,1.3-0.4c0.4,0,0.8,0,1.2,0c0.5,0.7,0.9,1.5,1.4,2.2c0.6,1.5,0.4,3.3,1.9,4.4
		c2.5,3.5,0.6,6.7-0.8,9.8c-1.8,3.9-5.2,6.1-9.2,7.4c-0.4,0.1-0.7,0.2-1,0c-0.4-0.4-0.1-0.8,0-1.2C107.8,52.4,106.5,47.4,103.7,42.7
		z M112.2,42.2c-0.1-0.1-0.3-0.2-0.5-0.3c0,0-0.1,0.1-0.2,0.2C111.8,42.2,112,42.2,112.2,42.2c0.7,2.7,0.3,5.4,0.4,8.1
		c-0.5,0.3-0.5,0.8,0,1c0.8,0.3,0.8-0.4,0.9-0.9C115.2,47.5,114.8,44.5,112.2,42.2z"/>
	<path class="st6" d="M98.4,51.1c3.5-1.8,3.4-4.9,3-8.1c-0.1-0.7-0.8-1.4,0.5-1.7c0.2,0.2,0.4,0.3,0.6,0.5c0,0,0,0,0,0
		c0,0.3,0.2,0.5,0.5,0.5c0,0,0,0,0,0c-0.3,1,0.3,1.8,0.6,2.7c1.8,4.2,1.8,8.3-0.2,12.5c-0.9-0.5,0-1.3-0.3-1.9
		c-0.6-0.3-1,1.1-1.6,0.1c0.2-1.7,1.5-3.2,0.7-5.3c-1.3,1.4-1.9,3.1-3.2,4.2c-2.7,2.3-4.8,2.6-7.6,1c-6.7-3.7-8.8-9.5-7.9-16.7
		c0.1-0.1,0.2-0.3,0.3-0.4c0.5-1.6,0.8-3.2,1.8-4.5c0.5,0.1,0.7-0.2,1-0.6c0.5-0.8,0.6-2.4,1.7-2.2c0.8,0.1,0.6,1.7,0.9,2.6
		c0,0.1,0,0.1,0,0.2c-0.3,0.1-0.6,0.2-0.8,0.4c-2.4,4.4-1.3,12.8,2.3,16.2C93.6,53,95.4,54.1,98.4,51.1z"/>
	<path class="st9" d="M139.4,51.6c1,1.2,2,2.6,3.9,2c0.7-0.2,1.1,0.4,0.9,0.7c-1,1.6,0.7,1,1.1,1.4c-2.1,3-2,2.9-4.9,1.2
		c-2-1.2-4.2-2.4-6.4-3.1c0,0,0,0,0,0c-0.6-0.6-1.4-0.7-2.2-0.9c0,0,0,0,0,0c-0.3-0.6-0.9-0.4-1.3-0.5c0,0,0,0,0,0
		c-0.2-0.5-0.5-0.4-0.9-0.4c0,0,0,0,0,0c-0.6-1.2-1.7-0.8-2.7-0.8c-2.5-1.1-2.4-1.1-1-3.4c1.2-1.9,2.9-3.4,3.7-5.6
		c0.3-0.5,0.5-0.9,0.8-1.4c0.3-0.4,0.7-0.9,1-1.3c0.3-0.1,0.7,0,0.9-0.4c0,0,0,0,0,0c0.6-0.3,0.8-0.9,1-1.5c0,0,0.1-0.2,0.1-0.2
		c0.3-0.1,0.6-0.2,0.6-0.6c3.1-3.8,6.1-7.6,9.4-11.1c0.2-0.2,0.3-0.3,0.5-0.5c0,0,0,0,0,0c0.5-0.2,0.7-0.9,1.3-0.9
		c-0.1,0.4-0.1,0.9-0.3,1.3c-2.1,2.7-4.2,5.5-6.5,8.1c-2.2,2.4-4,5.3-5.1,8C131.2,46.4,133.5,50.6,139.4,51.6z"/>
	<path class="st6" d="M36.4,63.2c-1.6-0.3-1.1-1.9-1.8-2.7c0.6-0.3,0.8-0.8,1-1.4c1-2.5,2.5-4.8,4.5-6.5c1.5-1.3,0.6-1.6-0.3-2.3
		c-2.2-1.8-4.8-3.2-6.1-5.9c0,0,0,0,0,0c0.3,0,0.6,0,0.9,0c0.8,1.2,1.9,2,3,2.9c1.5,1.2,3.5,1.6,4.6,3.2c-0.9,0.8-0.1,1.4,0.5,1.7
		c2.5,1.3,5,2.7,7.9,3c0.7,1,1.8,1.8,2.7,2.6c0,0.8-0.5,1.2-1.2,1.5c-1.8,0.7-3.6,1.6-5.5,2.1C43.4,62.4,39.9,62.6,36.4,63.2z"/>
	<path class="st3" d="M50.7,55.2c-2.9-0.3-5.4-1.6-7.9-3c-0.6-0.3-1.4-0.8-0.5-1.7c0.7,0.1,1.4,0.1,2.2,0.2c0.5,1.6,1.8,0.6,2.8,0.8
		c0.4,0.1,0.7-0.2,0.7-0.7c-0.1-0.7-0.8-0.8-1.2-1.1c-0.8-0.6-1.5-1.2-2.3-1.8c0-0.3,0-0.7,0-1c0.7,0.1,1.3,0.3,2.2,0.4
		c-0.3-0.8-0.6-1.5-0.8-2.1c1.3-0.9,2.6,0,3.8,0.2c1.4,0.2,2.9,0.7,4.2-0.2c1,1.3,2,2.5,3,3.8c0.6,0.7,0.3,1.1-0.6,1.1
		c-1.2,0-2.4,0-3.6,0c-3.1,0-3.7,1-2.3,3.7C50.7,54.3,50.6,54.7,50.7,55.2z"/>
	<path class="st5" d="M100.2,23.1c-2.2,2.2-3.1,5.1-4,8c-0.5,1.7-1.5,3.2-1.8,5c-3.4-1.9-5.2-6.4-4.1-9.9c0.4,1.1,0.8,2.1,1.3,3.2
		c0.5,1.1,1.2,1.1,2,0.4c1.5-1.4,1.7-3.5,2.5-5.3c0.3-0.7,1.3-1.3,0.4-2.3c0.8-1.9,1.5-4,4-4.4c0.1,0.9,0.5,1.2,1.4,1.2c0,0,0,0,0,0
		c0.1,0.5,0.3,0.9,0.4,1.4l0,0c-0.5,0-1-0.1-1.4,0.5C99.6,21.2,100.4,22.3,100.2,23.1z"/>
	<path class="st3" d="M36.4,63.2c3.4-0.6,7-0.9,10.4-1.8c1.9-0.5,3.7-1.4,5.5-2.1c0.7-0.3,1.1-0.7,1.2-1.5c2.6,1.5,2.6,1.5,0.4,3.4
		c-1.2,1.1-2.7,1.8-3.6,3.3c-0.9,0.1-1.4,0.7-1.8,1.4c-0.9,0-1.3,0.5-1.3,1.3c-0.4,0.2-0.7,0.5-0.9,0.9c-0.1,0-0.3,0-0.4,0
		c0-1-0.2-1.7-1.4-1c-1.4,0.8-2.8,1.7-4.4,1.9c-0.6-0.2-0.9-0.7-0.9-1.3c3.7-1.5,7.6-2.5,10.5-5.5c-4,1.3-8,2.5-12.2,2.5
		c-0.1,0-0.3,0.4-0.4,0.7C36.2,64.8,36.6,63.9,36.4,63.2z"/>
	<path class="st10" d="M73,51.1c-0.2-2.3-1.4-4.1-2.7-5.9c-2.8-3.8-5.2-7.9-8.2-11.6c-2.8-3.5-5.7-7-8.5-10.6
		c-0.2-0.2-0.1-0.6-0.2-0.8c1.6,0.7,2.4,2.1,3.5,3.2c2.8,2.9,4.7,6.6,8.1,8.9c1.1,0.7,0.6,2.6,2.2,3c2.5,3.5,4.9,6.9,7.4,10.4
		c0.5,0.8,1.7,1.5,1.3,2.4C75.5,51,74.1,51.2,73,51.1z"/>
	<path class="st11" d="M135.8,59.1c1.2,0.6,2.4,1.2,3.6,1.8c1.2,0.8,2.4,1.5,3.5,2.3c1.2,0.9,2.5,1.9,3.7,2.8c0,0.1,0.1,0.1,0.2,0.2
		c0.2,0.5,0.6,0.6,1,0.6l0,0c0,0.6,0.4,0.8,0.9,0.9c0.1,0.1,0.3,0.3,0.4,0.4c0.5,0.4,0.9,0.9,1.4,1.3c0,0,0,0,0,0
		c0.3,0.4,0.7,0.8,1,1.3l0,0c-1.8,0.1-2.9-1.4-4-2.4c-8-6.6-16.8-11.6-27-13.7c-0.6-0.1-1-0.3-1.1-0.9c2.1-0.5,4.2,0.2,6.1,0.9
		C128.9,56,132.8,56.4,135.8,59.1z"/>
	<path class="st6" d="M91.3,62.7c-1.3-0.4-2.7-0.9-4-1.3c-1.3-0.8-2.7-1.5-4-2.3c0-0.8-0.7-1.1-0.9-1.7c0.7-0.9,2-0.2,2.7-1
		c2.3,1.9,5.1,3,7.8,4.1c1.6,0.6,4,0.2,4.7,2.6c-1.1,0.7-2.1,0.8-3.4,0.3C93.3,63,92.3,62.9,91.3,62.7z"/>
	<path class="st9" d="M90.3,26.2c-1.1,3.5,0.8,7.9,4.1,9.9c-0.8,2.6-2,0.8-3.1,0.3c-0.7-0.9-1.5-1.8-2.2-2.7c0-0.1,0-0.1,0-0.2
		c-0.3-0.9-0.1-2.5-0.9-2.6c-1.1-0.2-1.2,1.4-1.7,2.2c-0.3,0.4-0.4,0.7-1,0.6c-0.5-3.8,2.1-6.3,4-9.4C90,25.1,90.4,25.5,90.3,26.2z"
		/>
	<path class="st8" d="M91.3,62.7c1,0.2,2,0.3,2.9,0.7c1.2,0.5,2.3,0.4,3.4-0.3c0.6,1.1,0.4,2.6,1.3,3.6c0.2,1.7-0.8,2.7-2.3,3
		c-1.4,0.4-2-0.6-2.3-1.8c-0.1-0.2-0.2-0.5-0.4-0.5C90.9,67,91.3,64.7,91.3,62.7z"/>
	<path class="st10" d="M102.4,20.4c-0.1-0.5-0.3-0.9-0.4-1.4c3.2,2.3,5.2,5.6,7.7,8.6c0.9,1.1,0.9,2.9,1.2,4.3
		c-1,0.4-0.4-2.2-1.8-0.9c-0.6-1.8-1.8-3.2-3-4.6c-1.7-1.8-3.8-3.3-5-5.6C101.3,20.4,101.9,20.4,102.4,20.4c0,0.1,0.1,0.1,0.2,0.2
		C102.5,20.5,102.5,20.5,102.4,20.4z"/>
	<path class="st9" d="M61,52.6c0,1.3,0,2.6,0,3.9c-2,1.9-3,2-4.8,0.4c-0.3-0.3-0.7-0.5-0.3-0.8c1.3-1.2,0.2-1.8-0.8-2.6
		C57.2,53.3,59.3,54.1,61,52.6z"/>
	<path class="st5" d="M109.1,31.1c1.4-1.3,0.8,1.3,1.8,0.9c1.5,0,0.7-1.8,1.7-2.1c0.4,1,0.8,2,1.8,2.6c0,0,0,0,0,0
		c0,1.3,0.5,2.3,1.4,3.1c0.2,0.1,0.4,0.2,0.3,0.5c-0.5,0.4-0.3,1.4-1.3,1.3c-0.5-0.7-0.9-1.5-1.4-2.2c0-0.1,0.1-0.2,0.1-0.3
		c-1-1.3-2.2-1-3.4-0.6c0.1-0.9-0.5-1.5-1-2.1C109,31.7,109.1,31.4,109.1,31.1z"/>
	<path class="st3" d="M101.4,55.5c0.6,1,1.1-0.4,1.6-0.1c0.3,0.6-0.7,1.4,0.3,1.9c-0.2,1.4-1.2,2.3-1.9,3.4
		C98.7,58.2,98.7,58.2,101.4,55.5z"/>
	<path class="st8" d="M103.7,64.6c0.1,2.8,1.1-0.3,1.6,0.4c-0.5,0.8,0.2,2.3-0.8,2.8c-1.5,0.8-3.2,1.2-4.8,1.8
		c-0.1,0-0.3-0.2-0.4-0.4c-0.2-0.7,0.3-1.2,0.9-1.3c1.6-0.2,1.9-1.1,1.7-2.4c0.3-0.2,0.6-0.3,0.9-0.5c0.2-0.1,0.3-0.2,0.5-0.4
		C103.4,64.6,103.6,64.6,103.7,64.6z"/>
	<path class="st3" d="M85.1,56.4c-0.7,0.7-2,0.1-2.7,1c-0.4,0-0.9-0.1-1.3-0.1c0-0.1,0-0.2,0-0.4c0-0.3,0-0.6,0-0.9
		c0.5-0.1,1.3,0.3,1.6-0.6c-0.7-0.6-1.4-0.3-2.1-0.3c-0.3,0-0.6,0-0.9,0c0-0.3,0-0.6,0-1c1.4-1.3,2.7-1.2,3.9,0.3
		C84.1,55.2,84.6,55.8,85.1,56.4z"/>
	<path class="st1" d="M55.2,65.4c-0.1,0-0.2,0.1-0.4,0.1c-0.5,0-1-0.3-1.4-0.6c-0.3-0.3-0.9-0.4-0.7-1c0.1-0.5,0.7-0.8,1-0.6
		c1,0.7,2.8-1.8,3.2,0.9c-0.3,0.5-0.7,0.8-1.3,0.9C55.5,65.1,55.4,65.2,55.2,65.4z"/>
	<path class="st10" d="M114.8,37.4c1,0.1,0.8-0.9,1.3-1.3c0.5,1.9,1.7,3.7,0.6,5.7C115.2,40.7,115.5,38.8,114.8,37.4z"/>
	<path class="st10" d="M96.6,22.2c0.9,0.9-0.1,1.6-0.4,2.3c-0.8,1.8-1,3.9-2.5,5.3C94.2,27.1,95.1,24.5,96.6,22.2z"/>
	<path class="st10" d="M66.8,53.4c1-0.8,2-1.9,3.5-1C69.3,53.2,68.1,53.5,66.8,53.4z"/>
	<path class="st1" d="M133.3,37.7c-0.2,0.6-0.4,1.2-1,1.5c0.2-0.7-1.3-1-0.5-1.8C132.3,36.8,132.8,37.4,133.3,37.7z"/>
	<path class="st10" d="M114.5,32.4c-1-0.6-1.4-1.6-1.8-2.6C114,30.1,114.1,31.4,114.5,32.4z"/>
	<path class="st10" d="M115.8,35.5c-0.9-0.8-1.4-1.9-1.4-3.1C115.6,33.1,115.5,34.4,115.8,35.5z"/>
	<path class="st1" d="M129.5,40.9c-0.9-0.1-1.1-0.7-1.1-1.6C129.6,39.3,129.5,40.1,129.5,40.9C129.6,40.9,129.5,40.9,129.5,40.9z"/>
	<path class="st1" d="M126.9,51.2c1,0,2.1-0.4,2.7,0.8C128.6,52.1,127.6,52,126.9,51.2z"/>
	<path class="st1" d="M131.8,52.9c0.8,0.2,1.6,0.3,2.2,0.9C133.3,53.3,131.7,55.3,131.8,52.9z"/>
	<path class="st10" d="M102,19.1c-0.8,0-1.3-0.4-1.4-1.2C101.6,17.7,101.9,18.2,102,19.1z"/>
	<path class="st1" d="M61,44c0.5,0.3,0.8,0.8,0.7,1.4c-0.1,0.5-0.5-0.2-0.8,0c-0.2-0.2-0.5-0.5-0.7-0.7C60.4,44.4,60.7,44.2,61,44z"
		/>
	<path class="st10" d="M60.2,44.6c0.2,0.2,0.5,0.5,0.7,0.7c-0.6,0-1.2,0-1.2-0.8C59.8,44.6,60,44.6,60.2,44.6z"/>
	<path class="st1" d="M130.4,40.9c-0.3,0.5-0.5,0.9-0.8,1.4c0-0.5,0-0.9,0-1.4c0,0,0,0,0,0C129.8,40.9,130.1,40.9,130.4,40.9z"/>
	<path class="st1" d="M130.5,52.4c0.5,0.1,1-0.1,1.3,0.5C131.3,52.9,130.8,53,130.5,52.4z"/>
	<path class="st1" d="M129.6,52c0.4,0,0.8,0,0.9,0.4C130.1,52.5,129.8,52.4,129.6,52z"/>
	<path class="st10" d="M64.1,54.7c0.2-0.4,0.5-0.5,0.9-0.5C64.9,54.7,64.5,54.7,64.1,54.7z"/>
	<path class="st1" d="M132.2,39.1c-0.1,0.5-0.6,0.4-0.9,0.4C131.5,39.2,131.9,39.1,132.2,39.1z"/>
	<path class="st10" d="M63.2,55.2c0.2-0.4,0.5-0.5,0.9-0.5C64,55.2,63.6,55.1,63.2,55.2z"/>
	<path class="st7" d="M113.5,60.1c-0.1,0.2-0.1,0.4-0.2,0.6c-0.1-0.1-0.2-0.1-0.3-0.2C113.2,60.3,113.4,60.2,113.5,60.1z"/>
	<path class="st1" d="M133.9,36.9c0,0.4-0.2,0.5-0.6,0.6C133.2,37,133.6,37,133.9,36.9z"/>
	<path class="st4" d="M103.3,64.6c-0.2,0.1-0.3,0.2-0.5,0.4C102.9,64.7,103,64.5,103.3,64.6z"/>
	<path class="st3" d="M83.7,38.3c-0.1,0.1-0.2,0.3-0.3,0.4C83.5,38.6,83.6,38.4,83.7,38.3z"/>
	<path class="st1" d="M143.8,25.3c-0.2,0.2-0.3,0.3-0.5,0.5C143.5,25.6,143.7,25.5,143.8,25.3z"/>
	<path class="st9" d="M38.7,72.5c1.4,1,1.4,2.2,0.5,3.5c-1.5,2.3-3.2,4.6-4.4,7.1c-2.2,4.8-4.4,9.7-3.6,15.2
		c0.2,3.2-0.9,6.3-1.9,9.2c-0.7,2-1.1,4-2.2,5.9c-1.2,2-0.3,3.8,0.6,5.6c0.4,0.8,1.3,0.6,2,0.8c5.8,1.4,9.7-1,12.5-6.1
		c2.3-4.2,2.3-8.9,3.1-13.5c1-5.6,3.2-10.4,7.9-13.8c1.2-0.9,1.9-2.5,3.7-2.3c-0.2,1.7-1.5,2.6-2.2,4c-2.7,5-5.3,10.1-7.1,15.6
		c-2.5,7.5-4.4,15.2-4.8,23.1c-0.3,5.3-0.6,10.6,0.3,16c-1.8,0.3-2.9-1.1-4.4-1.6c-4.7-1.5-8.6-4.1-12.3-7.5c-0.5,5,1.2,9.5,3.1,14
		c1.9,4.6,4.7,8.5,9.1,11.3c-1.9,1-3.5-0.7-5.2,0.2c0.4,1.2,1.3,2,2.3,2.8c2.5,2,5,4.2,7.6,6.2c-1.6,0.3-2.7-0.8-4-1.3
		c-9.9-3.6-16.2-11.4-22.1-19.5c-0.7-1-0.7-1.3,0.5-1.9c2.5-1.4,4-4,6.3-5.6c0.2-0.1,0.3-0.7,0.2-0.9c-0.2-0.2-0.6-0.4-1-0.4
		c-5.1,0.5-8.4-2.2-11.1-6.2c-0.6-0.9-0.6-1.2,0.5-1.8c2.3-1.2,4.5-2.6,6.7-4c0.7-0.4,0.9-1,0.9-1.7c0.3-0.1,0.7,0,0.9-0.5
		c0,0,0,0,0,0c0.6-0.2,0.2-0.9,0.6-1.3c1.5-1.6,0.5-1.9-1-1.8c-1.1,0.1-2.1-0.1-3.2-0.5c1-2.2,3.4-3.3,4.3-5.5
		c0.3-0.9,2.7-2.1-0.1-3.1c-0.5-0.2,0.1-0.7,0.4-1c2.4-2.6,3.1-5.9,3.9-9.3c0.6-2.4,0.8-5,2-7.3c0.4-0.8,0.5-1.6,0-2.3
		c-4.9-5.6-7.6-12.3-9.1-19.6c-0.1-1,0.4-2.2-0.3-3.1c0-0.3-0.1-0.6-0.1-0.9c0-5-0.1-10.1,0.1-15.1c0.1-2.9,0.3-5.8,1.4-8.5
		c0.8,0.1,0.8,0.7,0.7,1.4c-1.1,9-0.3,17.9,2.9,26.3c1.3,3.4,3,7,6.5,9c0.8,0.5,1.4,0.8,1.9-0.4c1.4-3.1,3.2-5.9,5.3-8.6
		C37.5,72.8,38.1,72.7,38.7,72.5z"/>
	<path class="st12" d="M43.3,168.2c-2.5-2.1-5-4.2-7.6-6.2c-1-0.8-1.9-1.6-2.3-2.8c1.7-0.9,3.2,0.8,5.2-0.2
		c-4.4-2.8-7.2-6.7-9.1-11.3c-1.8-4.5-3.6-9-3.1-14c3.7,3.4,7.6,6.1,12.3,7.5c1.5,0.5,2.6,1.9,4.4,1.6l0,0.2
		c0.2,1.6,0.5,3.2,0.7,4.8c0.5,3.8,2.1,7.4,2.9,11.1c-4-1.9-6.7-5.3-9.8-8.3c2.9,5.3,6.7,9.5,12.5,11.6c0.1,1.2,0.7,2.3,1.3,3.4
		c-0.3,0-0.7-0.1-0.9,0.1c-0.5,0.4,0.1,0.6,0.3,0.8c2.3,1.6,5,2.3,7.7,3.1c6.6,2.3,13.2,4.7,19.1,8.6c1.1,1.2,2,2.5,3.5,3.1
		c0.3,0.2,0.6,0.3,0.9,0.5c0.1,0.5,0.3,0.8,0.8,0.8c0.3,0.3,0.6,0.5,1,0.5c0.1,1,0.8,1.3,1.5,1.8c7.8,5,16,5.9,24.8,3.2
		c0,0.4,0,0.8,0,1.2c-0.4,0.2-1.1-0.2-1.4,0.4c-2.7,0-5.3,0.8-8,1c-0.9,0-1.8-0.1-2.6-0.1c-0.7-0.7-1.5-0.3-2.3-0.3
		c-0.6-0.5-1.3-0.5-2-0.6c-5.3-1-9.4-4.1-13.6-7.2c-2.8-2.1-5.7-4.2-9.2-5.2c-0.1-0.5-0.6-0.4-0.9-0.5c0,0,0,0,0,0
		c-0.6-0.6-1.4-0.9-2.2-0.9c0,0,0,0,0,0c-0.2-0.5-0.5-0.4-0.9-0.4c-0.1-0.1-0.3-0.1-0.4-0.1c-0.1-0.5-0.6-0.4-1-0.5
		c-1.5-0.7-3.1-1.4-4.8-1.3c-0.3-0.7-0.9-0.3-1.4-0.5c-0.2-0.5-0.6-0.4-0.9-0.3c-0.3,0-0.6-0.1-0.9-0.1c-0.2-0.4-0.5-0.5-0.9-0.4
		c-0.6,0-1.2-0.1-1.7-0.1c0,0,0,0,0,0c-0.3-0.6-0.9-0.3-1.4-0.4c-0.2-0.4-0.5-0.5-0.9-0.4c-0.1,0-0.3,0-0.4,0
		c-0.1,0-0.3-0.1-0.4-0.1c-0.3-0.7-0.9-0.3-1.4-0.5c-0.2-0.4-0.5-0.4-0.9-0.3c-0.3,0-0.6-0.1-0.8-0.1c0,0,0,0,0,0
		c-0.9-1.1-2.4-1.2-3.6-1.8C44.3,168.1,43.8,168.3,43.3,168.2z"/>
	<path class="st2" d="M146.5,171.9c-3.7,1-7.5,2-11.1,3.1c-6.2,1.9-11.7,5.1-16.6,9.2c-2.1,1.7-4.6,2.5-7,3.6c0.1-1,1-1,1.6-1.3
		c2.7-1.6,5.5-3,7.5-5.6c0.3-0.2,0.5-0.4,0.8-0.6c0.2-0.1,0.3-0.3,0.5-0.4c0.7-0.3,1.4-0.7,1.6-1.7c-1.1,0.2-1.5,0.8-1.8,1.5
		c-0.1,0.2-0.3,0.3-0.4,0.5c-0.3,0.2-0.5,0.3-0.8,0.5c-0.4,0.2-0.8,0.4-1.2,0.6c-2.7-0.2,0-2.3-1.1-3.2c-0.2-0.2,1-0.4,1.6-0.4
		c2.3-0.1,3.3-1.4,2.6-3.6c-0.1-0.4-0.7-0.7-0.2-1.1c0.7-0.3,1.2,0.1,1.6,0.4c1.5,1.3,2.7-0.1,3.7-0.6c1.1-0.6-0.3-1.3-0.6-1.9
		c-0.2-0.4-0.2-0.9,0.1-1.2c0.2-0.3,0.8-0.6,0.9-0.3c1.6,2.8,2.4,1.4,3.3-0.5c0,0,0.1-0.1,0.2,0c2.7,0.3,5.5-0.4,8.2,0.4
		c-5.2,1.9-10.6,3.5-14.9,7.6c0.5,0.2,0.6,0.3,0.7,0.3c1-0.5,1.9-1,2.9-1.6c6-3.4,12.7-4.8,19.1-7.1c2.1-0.8,4.2-1.6,6.2-3.3
		c-1.3-0.3-1.9,0.4-2.6,0.7c-3.2,1.5-6.7,2.1-10,3c-0.1-0.3-0.2-0.7-0.4-1c-0.5-0.6-0.8-1.3-0.3-2c0.7-1,1.2,0,1.9,0.2
		c0.7,0.2,1.9,0.4,2-0.1c0.3-1.6,2.1-2.4,2.1-4.2c0-1.9,1-1.5,1.8-0.3c0.3,0.4,0.6,0.9,1.2,0.7c0.6-0.2,0.1-0.8,0.1-1.2
		c0-0.9,0.6-1.2,1.3-1.3c1-0.2,1.3,0.4,1.4,1.3c-0.4,0.7-1.5,0.5-1.7,1.5c3,0.2,8.3-3.2,10.7-6.9c1-0.6,1.6-1.4,1.7-2.6
		c0.1-0.2,0.2-0.4,0.4-0.5c-0.2-1.4,1.2-2.4,1.2-3.7c0-0.5-0.4-1.2,0.5-1c0.7,0.1,0.6,0.8,0.5,1.3c-0.3,1.1-0.7,2.2-1.2,3.8
		c1.5-1.1,2.5-1.9,3.6-2.8c0.5-0.4,0.5-1.1,0.1-1.6c-1-1.4,0.1-1.7,1.1-2c1-0.3,1.9,0.2,2.8,0.4c-0.9,4.1-3.3,7.4-6.1,10.4
		c-0.7,0.7-2.4,1-1.9,2c0.6,1.2,2,0.1,3,0.1c0.5,0,1.1-0.3,1.4,0.4c0.3,0.6-0.3,0.9-0.7,1.2c-2.2,2-3.9,4.5-6.8,5.8
		c-0.8,0.4-2.1,0.6-2.2,1.9c-2.5,1.2-5.3,1.6-7.9,2.6C149.2,171.3,147.6,170.6,146.5,171.9z"/>
	<path class="st5" d="M158.5,168.1c0.1-1.3,1.4-1.6,2.2-1.9c2.9-1.2,4.6-3.7,6.8-5.8c0.4-0.3,1-0.6,0.7-1.2
		c-0.3-0.6-0.9-0.4-1.4-0.4c-1,0.1-2.5,1.1-3-0.1c-0.5-1,1.3-1.3,1.9-2c2.9-3,5.2-6.3,6.1-10.4c0.1-0.2,0.3-0.3,0.4-0.5
		c0.1-0.1,0.2-0.3,0.3-0.4c0-0.3,0.1-0.6,0.1-0.9c0.8-1.5,1.2-3.2,1.4-4.9c1.2-0.1,1.9,0.7,2.4,1.6c1.6,2.7,4.7,4,6.4,6.5
		c-0.2,0.6-0.4,1.1-0.5,1.7c0,0,0,0,0,0c-0.3,0.3-0.8,0.4-0.8,0.9c0,0.3-0.1,0.6-0.1,0.9c-2,1.1-2.9,3.2-4.4,4.7
		c-2.7,2.7-5.4,5.5-8.8,7.3c-0.6,0.3-1.1,0.7-1.4,1.3c-0.3,0.2-0.6,0.4-0.9,0.6c-1.5-0.4-1.9,0.8-2.7,1.6c-0.3,0.1-0.8,0-0.9,0.4
		C161.1,167.5,160,168.6,158.5,168.1z"/>
	<path class="st1" d="M163.4,166.8c0.8-0.8,1.2-2,2.7-1.6c0,0.1-0.1,0.3-0.1,0.4c-0.2,3.3-2.7,2.9-4.8,3.1c-0.1,0-0.1-0.1-0.2-0.1
		c0.1,0,0.1,0.1,0.2,0.1c-0.1,0.6-0.4,0.8-1,0.9c-3.7,0.5-7.3,1.4-10.9,2.5c-0.9,0.3-1.9,0.4-2.8-0.3c1.1-1.2,2.7-0.6,4.1-1.1
		c2.6-1,5.4-1.3,7.9-2.6c1.5,0.4,2.6-0.7,4-0.9C163.2,168.1,163.3,167.5,163.4,166.8z"/>
	<path class="st11" d="M119.4,181.2c0.4-0.2,0.8-0.4,1.2-0.6c0.1,0.1,0.1,0.1,0.2,0.2c-2,2.5-4.8,3.9-7.5,5.6
		c-0.6,0.4-1.5,0.4-1.6,1.3c-0.7,0.5-1.5,0.9-2.2,1.4c0-0.4,0-0.8,0-1.2c0.2-0.5,0.8-0.6,1.2-0.9c0.6-0.6-0.2-0.4-0.4-0.6
		c2.1-1.2,4.4-1.9,6.3-3.4C117.6,182.5,118.6,182,119.4,181.2z"/>
	<path class="st1" d="M17.3,121.1c1,0.4,2.1,0.6,3.2,0.5c1.5-0.1,2.5,0.1,1,1.8c-0.4,0.4,0.1,1.1-0.6,1.3c-0.3-1.7-0.6-3.2-3-2.4
		C17,122.6,16.6,122,17.3,121.1z"/>
	<path class="st1" d="M100.2,190.6c2.7-0.2,5.3-1.1,8-1C105.6,190.8,103,191.2,100.2,190.6z"/>
	<path class="st1" d="M44.6,168.7c1.2,0.6,2.6,0.6,3.6,1.8C46.6,170.5,45.2,170.3,44.6,168.7z"/>
	<path class="st1" d="M13.3,135.9c-1.1,0.4-1.7,0.3-2.1-0.5c-0.1-0.3,0-0.7,0.2-0.7C12.3,134.6,12.7,135.2,13.3,135.9z"/>
	<path class="st1" d="M18.3,69.8c0.8,1,0.3,2.1,0.3,3.1C18.2,71.9,17.2,71,18.3,69.8z"/>
	<path class="st3" d="M105.5,193.2c-0.5,0.8-1.2,0.3-1.8,0.3C104.1,192.5,104.7,192.5,105.5,193.2z"/>
	<path class="st1" d="M95.3,190.1c0.8,0,1.6-0.4,2.3,0.3C96.6,191.3,96,190.4,95.3,190.1z"/>
	<path class="st1" d="M67.2,175.8c0.9,0,1.6,0.3,2.2,0.9C68.6,176.7,67.7,176.9,67.2,175.8z"/>
	<path class="st1" d="M54.4,172.2c0.6,0,1.2,0.1,1.7,0.1C55.5,172.6,54.8,173.9,54.4,172.2z"/>
	<path class="st1" d="M14.1,136.8c0.1,0.1,0.2,0.1,0.4,0.2c-0.1,0.1-0.1,0.3-0.2,0.4c-0.1,0-0.2-0.1-0.4-0.1
		C14,137.1,14.1,136.9,14.1,136.8z"/>
	<path class="st1" d="M49.9,170.9c0.5,0.1,1.1-0.2,1.4,0.5C50.7,171.3,50.2,171.5,49.9,170.9z"/>
	<path class="st1" d="M53,171.8c0.5,0.2,1.1-0.2,1.4,0.4C53.9,172.2,53.3,172.4,53,171.8z"/>
	<path class="st1" d="M58.8,173.1c0.5,0.2,1.1-0.2,1.4,0.5C59.6,173.6,59.1,173.7,58.8,173.1z"/>
	<path class="st1" d="M66.3,175.4c0.4-0.1,0.7-0.1,0.9,0.4C66.9,175.8,66.6,175.8,66.3,175.4z"/>
	<path class="st1" d="M65,174.9c0.4,0.1,0.8-0.1,1,0.5C65.5,175.4,65.2,175.3,65,174.9z"/>
	<path class="st1" d="M57,172.7c0.3,0,0.6,0.1,0.9,0.1C57.5,173.2,57.2,173.1,57,172.7z"/>
	<path class="st1" d="M48.1,170.4c0.3,0,0.6,0.1,0.8,0.1C48.6,171,48.3,170.9,48.1,170.4z"/>
	<path class="st1" d="M20.9,124.6c-0.1,0.5-0.6,0.4-0.9,0.5C20.2,124.7,20.5,124.6,20.9,124.6z"/>
	<path class="st1" d="M69.5,176.7c0.4,0.1,0.8,0,0.9,0.5C70,177.1,69.6,177.1,69.5,176.7z"/>
	<path class="st1" d="M51.6,171.4c0.1,0,0.3,0,0.4,0C51.9,171.6,51.8,171.6,51.6,171.4z"/>
	<path class="st1" d="M9.8,134.8c0.1,0,0.1,0.1,0.2,0.1C9.9,134.9,9.8,134.9,9.8,134.8C9.8,134.9,9.8,134.8,9.8,134.8z"/>
	<path class="st5" d="M43.1,142.8c-0.9-5.3-0.6-10.7-0.3-16c0.4-7.9,2.3-15.6,4.8-23.1c1.8-5.4,4.4-10.5,7.1-15.6
		c0.7-1.3,2.1-2.3,2.2-4c0.6-0.1,1-0.5,1.4-1c1.9-0.6,3.8-1.2,5.7-1.8c1.4-0.3,2.8-0.5,4.2-0.8c1-0.2,2.3,0.6,2.8-0.5
		c0.4-0.9-0.8-1.7-1.4-2.6c-0.2-0.2-0.4-0.4-0.7-0.6c-0.5-1.7-1.5-3.2-2.3-4.8c0.6-0.2,1.2,0.2,1.8,0.3c0.3,0.4,0.8,0.6,1.3,0.6
		c0,0,0,0,0,0c0.2,0.1,0.3,0.3,0.5,0.4c4,2.6,8.1,4.9,11.6,8.3c3.6,3.5,6.7,7.3,9.4,11.5c3.2,5.1,6,10.3,8.1,16
		c0.2,0.7,0.4,1.6,1.4,2.1c0.9-4.8,4.1-8.5,5.6-12.9c0.3-0.5,0.6-0.9,0.9-1.4c1.3-1.8,2.9-3.5,3.6-5.8c1.7-1.2,2.5-3.2,3.9-4.6
		c3.1-3.2,6.5-6.3,9.9-9.2c0,0,0,0,0,0c0.2-0.2,0.3-0.3,0.5-0.5c2.2-1,3.8-2.9,6.2-3.6c0.5-0.1,1.1-0.8,1.6-0.2
		c0.5,0.6-0.3,1-0.4,1.6c-0.1,0.6-0.5,1.2-0.8,1.8c-0.1,0.2-0.3,0.3-0.4,0.5c0,0,0,0,0,0c-0.5,0.3-0.6,0.8-0.5,1.3c0,0,0-0.1,0-0.1
		c-0.9,0.7-1.6,1.3-0.3,2.3c0.2,0.1,0.3,0.1,0.5,0.2c0.3,0.9-0.9,1.5-0.6,2.9c1.7-2.8,4.2-2,6.4-2.1c0.3,0,0.6,0,0.9-0.1
		c2.2,0.9,4.4,1.8,6.7,2.7c5.2,3,9,7.1,10.7,13c0.1,2.6,1.4,5,1.4,7.6c-0.3,1.4,0.1,2.8,0.4,4.1c1.4,5.4,4,9.9,9.8,11.7
		c2.2,0.7,4.5,0.4,6.1-1.3c1.2-1.3,2.1-3,1.3-4.9c-1.4-3.4-2.7-6.9-3.8-10.5c-0.2-1.8,0.3-3.6-0.5-5.3c0-0.5,0.1-0.9,0.1-1.4
		c1.8-0.2,1.4-2.6,3-3.1c0,0.3,0.1,0.6,0.1,0.9c-0.1,1.3-0.5,2.5-0.4,3.8c0.7,6.5,3.1,12.5,6,18.3c0.6,1.2,1,2.3-0.9,2.5
		c-0.6,0-1.1,0.1-1.1,0.8c-0.2,2,0.4,4.1,1.5,5.6c1.6,2,3.9,3.6,5.9,5.3c2.4,1.9,2.4,2-0.1,3.8c-0.3,0.3-0.8,0.4-1.2,0.6
		c-2.3,1.3-4.8,0.7-7.2,0.8c-0.1-0.8,0.3-1.8-0.6-2.5c-3.3,2.6-6.7,5.1-10.5,7.1c-0.5,0.2-0.9,0.3-1.4,0.5c-0.5-0.1-1-0.2-1.4,0.3
		c-0.1,0.1-0.3,0.3-0.4,0.4c-0.6,0.1-1.3,0.3-1.9,0.3c-3,0.3-5.6,2.2-8.8,2c-0.9-0.1-1.8-0.1-2.7-0.2c-0.6-0.6-1.4-0.4-2.1-0.4
		c-2.5,0.3-4.2-0.4-5.1-3c-0.3-0.8-0.9-1.9-2.2-1.9c-0.4,0-0.8,0.2-0.7,0.6c0.1,1.2,0.8,2,1.7,2.7c0.2,0.2,0.8,0.1,1,0.3
		c0.4,0.3,0,0.7-0.1,1c-0.3,0-0.6,0.1-1,0.1c-0.1,0-0.3,0-0.4,0l0,0c-3.1-2.9-4.9-7.6-10.8-7.6c2.9,1.7,5.3,3.3,7.1,5.5
		c0.4,0.4,1.2,0.8,0.8,1.4c-0.3,0.6-0.9,0.8-1.7,0.2c-0.6-0.5-0.7,0.2-0.8,0.6c-0.7,0.2-1.1-0.8-1.8-0.5l0.1,0
		c0.1-0.4-0.1-0.4-0.4-0.4c-0.1-0.1-0.3-0.1-0.4-0.1c-0.2-0.1-0.3-0.2-0.5-0.4c-1-0.4-2-0.6-3.1-0.6c-0.1-0.9-0.8-0.8-1.4-0.8
		c-0.2-0.4-0.5-0.4-0.9-0.4c-0.4-0.6-1.2-0.7-1.8-1.1c-2.5-2.1-4.5-5-7.6-6.5c-0.2-0.1-0.3-0.3-0.5-0.4c-0.1-0.4-0.5-0.4-0.8-0.3
		c-0.2,0-0.3-0.1-0.5-0.1c-1.7-1.7-3.9-2.3-6.2-2.7c0,0,0,0,0,0c-0.5-0.5-1-0.9-1.8-0.8c-1.2-0.4-2.4-0.7-3.5-1.1
		c-1.3-1.6-3.4-1.6-5.1-2.2c-4.3-1.6-7.6-4.2-9.3-8.6c-0.7-1.7-1.6-1.5-2.9-0.9c-1.6,0.8-3,2.1-4.9,2.4c-1.1-2.9-2.9-5.2-5.6-6.6
		c-5.2-2.9-10.5-3-16-0.3c-3,1.5-4.5,4.5-7.1,6.3c-1.1,0.8-2.6,1.7-2.9,2.9c-0.3,1.3,1.1,2.3,2.3,3.1c0.1,0.1,0.1,0.3,0.2,0.4
		c3.4,6.4,8.9,9.5,16,9.7c0,0.9-0.7,1.5-1.1,2.1c-1.5,2.4-3.1,4.9-4.6,7.3c-0.2,0.4-0.6,0.4-0.9,0.5c-0.3,0-0.4,0.1-0.5,0.3l0,0
		c-0.9,0-1.8,0-2.7-0.1c-1.6-0.5-3.2-0.5-4.8,0c-3.2-0.1-6.3-0.5-9.4-1.1L43.1,142.8z M151.4,119.8c-0.2-0.2-0.3-0.3-0.5-0.5l0,0
		c-0.4-1.5-1.3-2.5-2.9-2.9l0.2-0.1l-0.2,0.1c0.1-1-0.6-1.4-1.5-1.5c-2.3-1.9-4.7-3.5-7.6-4.5c-8.1-3-16.4,1.7-18.8,9.4
		c-0.5,0.3-0.3,0.9-0.5,1.3c-0.6,0.3-0.3,0.9-0.4,1.3c-1.2,1.1-0.9,2.9-1.7,4.2c-0.9,1.4-0.9,2.6,1.3,2.5c2,0,3.9,0.8,5.6,1.4
		c1.5,0.6,3,1.6,4.7,2.2c0.1,0.5,0.5,0.4,0.8,0.3c0.8,1,1.9,0.4,2.8,0.5l-0.1,0.1c-0.1,0.3-0.3,0.8,0.3,0.8c1.9,0,3.8,0.4,5.5-0.8
		c2.9-1.8,6.6-2.4,8.6-5.7c1.5-2.4,3.6-4.3,4.8-6.8C152.5,120.2,152.3,119.8,151.4,119.8L151.4,119.8z M140.8,88
		c7.5,7.3,10.5,16.9,13.9,26.3C154.3,105.9,148.2,90.8,140.8,88z M119.5,91c0.1-0.2,0.1-0.5,0.3-0.8c1.1-1.6,2.7-2.6,4.2-3.9
		c1.4-1.2,2.6-2.6,3.9-3.9c0.3-0.3,0.5-0.8,0.1-1.2c-0.4-0.4-0.8-0.2-1.2,0.1c-1,0.8-1.9,1.6-2.9,2.4c-2,1.5-3.6,3.3-5,5.2
		c-0.3,0.4-0.6,0.9-0.3,1.4C118.7,90.6,118.9,90.6,119.5,91z"/>
	<path class="st5" d="M139.4,51.6c-5.8-1-8.1-5.2-6.2-9.8c1.2-2.7,2.9-5.6,5.1-8c2.3-2.6,4.4-5.3,6.5-8.1c0.2-0.3,0.2-0.8,0.3-1.3
		c2.2-2.7,4.4-5.4,7.3-7.6c2.9-2.2,5.5-4.7,8.1-7.3c1-1,2.6-0.8,3.4-2c2.4,0.7,3.8,2.7,5.1,4.6c1.3,1.7,2.2,3.7,3.3,5.6
		c-0.1,2.2,1,3.8,2.3,5.4c0.7,0.6,1.1,1.4,1.3,2.2c0.2,2.3,1.7,4.3,1.8,6.6c-0.2,0.5-0.6,1-0.4,1.7c0.9,2.8,1.2,5.7,1.8,8.6
		c1.2,5.4,1.3,10.8,1.4,16.2c0.2,8.6,0,17.4-3.9,25.4c-1.1,2.3-2,4.7-3.8,6.5c-0.1-2.4-0.8-4.6-1.9-6.7c-2-4.1-4.6-7.7-7.6-11.1
		c3.6-4,5.9-8.8,8-13.6c0.6-1.4,1.5-2.9,0.6-4.6c0.8-1.1,0-2.5,0.7-3.5c0.2-0.2,0.4-0.5,0.4-0.7c0-3,0-6.1,0-9.1
		c0-0.5-0.3-0.8-0.8-0.9c0-0.9,0-1.8-0.1-2.6c-0.1-1.5,0.4-3.2-1-4.5c0.3-0.6-0.2-0.9-0.4-1.3c0.1-0.5,0.3-1.1-0.4-1.4l0,0
		c-0.2-1.6-0.1-3.3-1.4-4.5c-0.8-3.4-2.3-6.3-4.4-9.1c-0.6-0.8-1-1.2-1.9-1c-0.6-0.5-1-0.3-1.4,0.2c-1.5,1.7-3.1,3.3-4.3,5.4
		c-0.8,1.3-2,2.6-3.3,3.8c-1.3,1.2-2.4,2.7-3.5,4.2c-2.7,3.3-5.5,6.7-7.9,10.2c-1.2,1.8-2.6,3.6-3.3,6.1c1.2-0.7,2.1-1.3,3.1-1.7
		c0.5-0.3,1.2-0.9,1.7-0.2c0.4,0.7-0.2,1.2-0.8,1.7c-0.3,0.2-0.6,0.5-0.8,0.7c-0.5,0.2-0.9,0.4-0.6,1.1c0,0-0.1,0.1-0.1,0.1
		c-0.5-0.3-1.1-0.4-1.5,0.1c-0.4,0.1-0.9-0.1-1.1,0.4c0,0.1,0.1,0.3,0.2,0.3c0.5,0.1,0.7-0.3,0.9-0.7c1,1-0.8,1.4-0.4,2.3
		C139.7,50.1,139.5,50.9,139.4,51.6z"/>
	<path class="st10" d="M175.4,136.2c2.4-0.1,4.9,0.5,7.2-0.8c0.4-0.2,0.8-0.3,1.2-0.6c2.5-1.9,2.4-1.9,0.1-3.8
		c-2.1-1.7-4.3-3.2-5.9-5.3c-1.1-1.4-1.7-3.5-1.5-5.6c0.1-0.7,0.6-0.8,1.1-0.8c2-0.2,1.6-1.3,0.9-2.5c-2.9-5.8-5.3-11.8-6-18.3
		c-0.1-1.2,0.2-2.5,0.4-3.8c0.8,0.4,0.8,1.1,0.9,1.8c0.6,2.9,1.4,5.8,2.1,8.8c0.4,1.7,1.6,3,2.3,4.6c0.3,0.7,0.4,1.5,1.2,1.8
		c0,0,0,0,0,0c0.1,0.5,1.3,1.1-0.2,1.3c-0.9,0.1-0.8,0.5-0.2,0.9c0.7,2.6,2.8,4.2,4.3,6.3c0.3,0.4,1.3,0.5,0.6,1.4
		c-1-0.2-2-0.4-2.9-0.5c-0.8,0-1.8-0.5-2.3,0.2c-0.6,0.7,0.4,1.4,0.7,2.1c0.1,0.2,0.3,0.3,0.5,0.4c1.6,3,4.3,4.8,7.1,6.4
		c3.1,1.7,3.1,1.8,0.6,4.3c-1.6,1.6-3.3,2.9-5.5,3.6c-1.9,0-3.6,1.4-5.6,0.5c2.5,2.7,4.7,5.6,7.8,7.5c0,0.1,0,0.2,0,0.3
		c-0.5,0.4-0.5,1.2-1.2,1.5c-1.8-2.5-4.8-3.8-6.4-6.5c-0.5-0.9-1.2-1.7-2.4-1.6C174.8,138.6,174.2,137.1,175.4,136.2z"/>
	<path class="st9" d="M163.4,72.5c3,3.4,5.6,7,7.6,11.1c1,2.2,1.8,4.3,1.9,6.7c0,0.3,0,0.6,0,0.9c0.1,0.2-0.4,0.8,0.3,0.5l0.2,0
		l0.2,0c0.2,1-1.1,1.2-0.9,2.1c-1.6,0.5-1.1,2.9-3,3.1c0-8-3.3-14.7-8-21c-0.1-0.2-0.3-0.4-0.4-0.5l0,0c0-0.4-0.2-0.7-0.6-0.8
		c0,0,0,0,0,0c0.1-1.3,0.8-2.3,1.7-3.1C162.6,72.1,163,72.3,163.4,72.5z"/>
	<path class="st10" d="M172.8,91.2c0-0.3,0-0.6,0-0.9c1.9-1.8,2.7-4.3,3.8-6.5c3.9-8.1,4.1-16.8,3.9-25.4
		c-0.1-5.4-0.2-10.8-1.4-16.2c-0.6-2.8-0.9-5.8-1.8-8.6c-0.2-0.7,0.1-1.1,0.4-1.7c1,1,0.8,2.6,1.7,3.7c-0.1,2.3,1.3,4.3,1.4,6.6
		c-0.4,1.6,0.3,3.2,0.5,4.8c0.6,5.5,1.2,11.1,1.1,16.6c-0.1,0.1-0.1,0.3-0.2,0.4c0.1,3.8-1,7.4-0.9,11.2c-1.1,6-4.1,11-7.1,16.2
		c-0.1,0.2-0.3,0.3-0.5,0.4c0,0-0.2,0-0.2,0s-0.2,0-0.2,0C173.1,91.6,173,91.4,172.8,91.2z"/>
	<path class="st1" d="M181.3,75.2c-0.1-3.8,1.1-7.4,0.9-11.2c0.2-0.1,0.3-0.2,0.2-0.4c0.2-5.6-0.4-11.1-1.1-16.6
		c-0.2-1.6-0.9-3.1-0.5-4.8c0.8,0.1,0.7,0.7,0.8,1.3c1.1,6.3,1.5,12.6,1.3,18.9c0,0.8,0,1.6,0.4,2.4c0-2.6,0-5.3,0-7.9
		c0.5,5.6,0.6,11.2-0.2,16.8c-0.7-0.2,0.1-1.3-0.8-1.4C181.4,73,183,74.8,181.3,75.2z"/>
	<path class="st1" d="M184.3,146.1c-3.1-1.9-5.4-4.8-7.8-7.5c2,0.9,3.7-0.5,5.6-0.5c-0.1,0.9,0.5,1.3,1.4,1.6
		c-1.4,0.6-1.4,0.6-2.5-0.5c-0.3-0.3-0.5-0.1-0.8,0.1c-0.4,0.2-0.9,0.4-0.9,0.9c0,0.3,0.2,0.5,0.5,0.6c0.2,0,0.4,0.1,0.7,0.1
		c2.7-0.2,3,2.4,4.4,3.7C185.6,145.2,184.5,145.5,184.3,146.1z"/>
	<path class="st1" d="M179.4,35.6c-0.9-1.1-0.7-2.7-1.7-3.7c-0.1-2.3-1.6-4.3-1.8-6.6C178.4,28.3,179.2,31.9,179.4,35.6z"/>
	<path class="st1" d="M183,147.8c0.7-0.3,0.7-1,1.2-1.5c1.1,0.8,1,1.8,0.5,2.9c-0.6,1.7-1.6-0.5-2.3,0.2
		C182.7,149,182.9,148.4,183,147.8z"/>
	<path class="st1" d="M179.8,123.8c-0.2-0.1-0.4-0.2-0.5-0.4c-0.3-0.7-1.3-1.4-0.7-2.1c0.5-0.6,1.5-0.2,2.3-0.2c1,0,2,0.3,2.9,0.5
		c-0.6,0.6-1.4,0.4-2.1,0.3C180.3,121.8,179.7,122.3,179.8,123.8z"/>
	<path class="st10" d="M174.6,23.1c-1.2-1.6-2.4-3.2-2.3-5.4C173.8,19.2,174.4,21,174.6,23.1z"/>
	<path class="st1" d="M178.9,113.9c-0.6-0.4-0.7-0.8,0.2-0.9c1.5-0.2,0.3-0.8,0.2-1.3c0.7-0.1,1.6-0.1,1.6,0.7
		C181.1,113.8,179.6,113.3,178.9,113.9z"/>
	<path class="st1" d="M179.4,111.7c-0.8-0.3-0.9-1.2-1.2-1.8C179.2,110.1,179.3,110.9,179.4,111.7z"/>
	<path class="st1" d="M181.7,150.4c0-0.5,0.5-0.7,0.8-0.9C182.5,150.1,182.3,150.4,181.7,150.4z"/>
	<path class="st10" d="M51.7,20.4c-2.9-0.3-4.7-1.8-5.4-5.4C48.1,16.8,49.9,18.6,51.7,20.4z"/>
	<path class="st0" d="M15.3,64.6c0-2.6,0-5.2,0-7.8c0.1,0,0.3,0,0.4,0c0,2.6,0,5.2,0,7.8C15.6,64.6,15.5,64.6,15.3,64.6z"/>
	<path class="st0" d="M16,47.1c1.9,1.3,0.5,3,0.5,4.6C15.8,50.2,16.1,48.7,16,47.1C16,47.1,16,47.1,16,47.1z"/>
	<path class="st10" d="M38.5,8.1C37.1,9,35.6,9,34.1,9.4C35.4,8.4,36.5,6.9,38.5,8.1z"/>
	<path class="st0" d="M17.3,64.9c-0.2-0.2-0.3-0.4-0.4-0.6c0-0.3,0.1-0.6,0.5-0.5c0.1,0,0.2,0.3,0.2,0.5
		C17.7,64.5,17.5,64.6,17.3,64.9z"/>
	<path class="st10" d="M39.6,8.8c-0.5,0-1.1,0.3-1.2-0.6C38.8,8.4,39.4,8.3,39.6,8.8z"/>
	<path class="st10" d="M33.9,9.5c0.3,0.6-0.1,0.6-0.5,0.6C33.3,9.8,33.7,9.7,33.9,9.5z"/>
	<path class="st10" d="M40.1,9.3C40,9.1,39.8,9,39.6,8.8C39.8,9,40,9.1,40.1,9.3z"/>
	<path class="st10" d="M46.3,15.1c-0.2-0.2-0.3-0.3-0.5-0.5C46,14.7,46.2,14.9,46.3,15.1z"/>
	<path class="st10" d="M53,21.7c-0.2-0.2-0.3-0.3-0.5-0.5C52.7,21.4,52.8,21.6,53,21.7z"/>
	<path class="st10" d="M53.4,22.2c-0.2-0.2-0.3-0.3-0.5-0.5C53.1,21.9,53.3,22,53.4,22.2z"/>
	<path class="st8" d="M124.7,77.4c-3.4,2.9-6.8,6-9.9,9.2c-1.4,1.4-2.2,3.4-3.9,4.6c-1.4,0.1-2.6-0.5-3.9-0.9
		c-1.4-0.5-1.5-1.4-0.2-2.2c1.2-0.6,1.6-1.1,1.5-2.7c-0.1-1.7,0.8-3.5,1-5.3c0.1-0.9,0.6-0.9,1.3-0.2c1.9,2,2.2,1.9,3.6-0.5
		c0.7-1.2,1.6-2.1,2.7-2.9c0.5-0.4,1-0.7,1-1.4c3.1-1.3,3.1-1.3,5,1.6C123.4,77.6,124.1,77.3,124.7,77.4z"/>
	<path class="st8" d="M69.8,73c-0.5,0-1-0.2-1.3-0.6c-0.1-0.9-0.8-0.7-1.4-0.8c0.6-2.2,1.7-4,3.8-5.3c1.7-1.1,3.2-2.6,4.7-4
		c2.5-1.1,4.6-3.2,7.6-3.1c1.3,0.8,2.7,1.5,4,2.3c-1.2,2.6-3,3.1-5.2,1.2c-0.8-0.6-1.3-0.9-2.1-0.1c-0.3,0.3-0.9,0.6-1.2,0.5
		c-1.7-0.6-2.4,0.5-2.8,1.8c-0.7,2-2.4,2.9-4,3.9c-0.8,0.5-1.1,1-0.1,1.7c0.6,0.4,0.9,1,0.9,1.7c0,0.4-0.4,0.4-0.7,0.4
		c-1,0-1.1-0.8-1.3-1.5c-0.1-0.3,0-0.8-0.7-0.9C69.6,71,70,72.1,69.8,73z"/>
	<path class="st13" d="M107.3,95c-0.1,0.1-0.2,0.4-0.4,0.4c-0.3,0.1-0.4-0.2-0.3-0.4c0.1-0.2,0.3-0.3,0.5-0.4
		C107.1,94.7,107.2,94.9,107.3,95z"/>
	<path class="st13" d="M107.3,97c-0.3,0.5-0.6,0.9-0.9,1.4c0-0.5,0-0.9,0-1.4c0,0,0,0,0,0C106.7,97,107,97,107.3,97z"/>
	<path class="st13" d="M106.4,97c-0.3-0.1-0.7-0.1-0.7-0.5c0-0.1,0.1-0.1,0.1-0.1C106.4,96.3,106.3,96.7,106.4,97
		C106.4,97,106.4,97,106.4,97z"/>
	<path class="st8" d="M70.3,73.4c-0.2-0.1-0.3-0.3-0.5-0.4C70,73.1,70.2,73.3,70.3,73.4z"/>
	<path class="st10" d="M38.7,72.5c-0.6,0.2-1.2,0.3-1.8,0.5c-1.7-2.8-3.4-5.6-5-8.4c-1.2-2.2-2.4-4.5-3.2-7c-0.4-1.1-0.4-2,0.2-3
		C31.4,60,34,65.2,37.4,70C37.9,70.8,38.3,71.7,38.7,72.5z"/>
	<path class="st10" d="M28.4,43.5c0,1.2,0,2.4,0,3.6c-0.6,0.8-0.2,1.8-0.3,2.6l0,0c-1-2.5-0.2-5-0.2-7.5
		C28,42.7,28.2,43.1,28.4,43.5z"/>
	<path class="st10" d="M28.4,49.8c0,0.4,0,0.9,0,1.3c-0.5-0.3-0.4-0.8-0.4-1.3c0,0,0,0,0,0C28.2,49.8,28.3,49.8,28.4,49.8z"/>
	<path class="st3" d="M36,109.7c1.7-8.4,3.2-16.9,10.1-23C40.8,93.5,39.2,101.9,36,109.7z"/>
	<path class="st13" d="M66.8,72.1c0.8,1.6,1.8,3.1,2.3,4.8c-1.4,0.6-2.7,1.2-4.1,1.9c-1.2-1.1-2.4,0.5-3.6,0c1.2-2.7,3-4.8,5-6.9
		C66.6,71.9,66.7,72,66.8,72.1L66.8,72.1z"/>
	<path class="st13" d="M83.3,59.1c-3,0-5.1,2-7.6,3.1c-0.1-1.5,0.4-2.7,1.5-3.7c-0.3-0.6-1.2-0.1-1.3-0.8c-0.1-0.7,0.5-1,1-1.3
		c0.9-0.5,1.8-0.9,2.7-1.4c0.3,0,0.6,0,0.9,0c0,0.4,0.1,0.7,0.5,0.8c0,0.3,0,0.6,0,0.9c-0.1,0.1-0.2,0.1-0.3,0.2
		c0.1,0.1,0.2,0.1,0.3,0.2c0.4,0,0.9,0.1,1.3,0.1C82.6,58,83.3,58.4,83.3,59.1z"/>
	<path class="st8" d="M61.4,78.8c1.2,0.4,2.4-1.1,3.6,0c-0.3,0.9-2,1.3-0.9,2.6c-1.9,0.6-3.8,1.2-5.7,1.8
		C58.3,81,60.6,80.3,61.4,78.8z"/>
	<path class="st0" d="M48.9,71.1c0-0.7,0.1-1.3,1-1.2C49.8,70.4,49.5,70.9,48.9,71.1z"/>
	<path class="st0" d="M44.9,75.6c0-0.7,0.1-1.3,1-1.2C45.8,74.9,45.5,75.4,44.9,75.6z"/>
	<path class="st13" d="M67.2,71.6c0.6,0.1,1.3-0.1,1.4,0.8c-0.6-0.1-1.1-0.5-1.8-0.3c0,0,0,0,0,0c0-0.1-0.1-0.2-0.2-0.4
		C66.8,71.7,67,71.6,67.2,71.6z"/>
	<path class="st0" d="M46.3,73.9c0-0.6,0.3-0.9,0.9-0.9C46.9,73.3,46.6,73.6,46.3,73.9z"/>
	<path class="st0" d="M55.2,65.4c0.2-0.1,0.3-0.3,0.5-0.4C55.6,65.1,55.4,65.2,55.2,65.4z"/>
	<path class="st5" d="M66.6,71.7c0.1,0.1,0.1,0.2,0.2,0.4c-0.1-0.1-0.2-0.2-0.3-0.2C66.5,71.8,66.6,71.8,66.6,71.7z"/>
	<path class="st0" d="M161.7,76.1c4.7,6.2,8,13,8,21c0,0.5-0.1,0.9-0.1,1.4c-1.2,0.8-1.1-0.8-1.7-1c-2.7-6.9-5.4-13.8-9.9-19.8
		c-0.8-1.1-1.7-2-2.7-2.9c0.3,0,0.7,0,0.6-0.4c-0.1-0.5-0.6-0.5-1-0.5l0,0c-0.3-2-2.4-4.1-4.4-4.5c0,0,0,0,0,0
		c0.1-1.1-0.4-1.5-1.4-1.3c-0.1-0.1-0.3-0.3-0.4-0.4c0-0.6-0.3-0.9-0.9-0.9c0,0,0,0,0,0c-0.1-0.7-0.3-1.1-1-0.6
		c-0.1,0-0.1-0.1-0.2-0.2c0.4-0.8,0.6-1.4-0.4-2c-1.1-0.6-2.1-1.1-3.3-0.8c-1.2-0.8-2.4-1.5-3.5-2.3c1-1.9,1.8-2.1,3.3-1.1
		c0.9,0.6,1.6-0.4,2.5-0.2c3.3,1.9,5.8,4.9,8.9,7.1c0.2,1.2,1.5,1.5,2.2,2.2c1,1.1,1.8,2.3,3.1,3.1c-0.1,1.2,0.1,2.2,1.4,2.7
		c0,0,0,0,0,0c0,0.4,0.1,0.8,0.6,0.8c0,0,0,0,0,0C161.4,75.7,161.5,75.9,161.7,76.1z"/>
	<path class="st11" d="M143.9,73c2,0.6,2.2,2.5,3.1,4l0,0c-1.6-0.3-2.8-1.3-4.1-2.2c-4.4-2.8-9.1-4-14.3-3.6c-2.4,0.2-2.8-1.5-2.9-3
		c-0.2-1.8,1.5-1.9,2.8-1.9c1,0,1.9,0,2.9,0c2.5,0.9,4.7,2.3,7,3.6c1.6,0.9,2.8,2.7,5,2.6l0,0C143.5,72.7,143.7,72.8,143.9,73z"/>
	<path class="st4" d="M167.9,97.4c0.6,0.2,0.5,1.8,1.7,1c0.9,1.7,0.4,3.5,0.5,5.3c-1.1,0.4-0.9,1.4-0.9,2.3c0,0.5,0.1,1-0.4,1.3
		c-0.4-0.5-0.2-1.4-1.1-1.6c-0.4,1.2-0.1,1.9,1.1,2l0,0c0.1,1.9-2.2,1.4-2.7,2.7c-0.1,0-0.3,0-0.4,0l0,0c-0.1-0.4-0.1-0.9-0.2-1.3
		c-0.5-3.2-2-6.1-2-9.4c0-0.1,0-0.3,0-0.4C165.2,99.5,166.6,98.6,167.9,97.4z"/>
	<path class="st4" d="M156.3,104.6c0-2.6-1.2-5-1.4-7.6c1-0.1,0.7,1,1.2,1.3c0.4-1.2-0.2-2.6,0.6-4.1c0.8,1.8-0.1,3.7,1.1,5
		c0.4-0.9-0.2-2,0.7-3.1c0.3,1.2,0.6,2,0.8,2.9c0.4,1.5,1.1,0.9,1.8,0.3c0.9,1.5,1.2,3.2,1.4,4.9c-1.4,0.3-2.9,2.2-4.1-0.3
		c-0.7,0.5-0.1,1.4-0.9,1.9C157.1,105.5,157.1,104.5,156.3,104.6z"/>
	<path class="st11" d="M163.4,99.2c0,0.1,0,0.3,0,0.4c-0.8-0.8-1-1.9-1.4-2.9c-0.9-2.1-1.4-4.5-3.4-6c0,0,0,0,0,0
		c0.2-0.8-0.4-1.2-0.9-1.6c-0.2-1.1-1.1-1.5-1.8-2.1c-0.5-1.2-1-2.4-1.7-3.9c1.7,0.1,2.5,1,3.3,2.1C160.8,89.4,162.9,94,163.4,99.2z
		"/>
	<path class="st6" d="M158.5,90.8c2,1.5,2.6,3.9,3.4,6c0.4,1,0.6,2.1,1.4,2.9c0,3.3,1.6,6.2,2,9.4c0.1,0.4,0.1,0.9,0.2,1.3
		c-0.8,0-0.8-0.7-1.1-1.2c-0.9-1.6-0.7-3.6-2-5.1c-0.2-1.7-0.5-3.4-1.4-4.9c-0.3-2.1-1.1-3.9-2-5.8
		C158.7,92.6,158.2,91.8,158.5,90.8z"/>
	<path class="st12" d="M143.4,72.5c-2.1,0.1-3.4-1.7-5-2.6c-2.3-1.3-4.5-2.7-7-3.6c0.7-0.9,1.5-0.3,2.2,0c3.6,1.2,7.1,2.5,9.8,5.4
		C143.3,71.9,143.3,72.2,143.4,72.5z"/>
	<path class="st10" d="M136.7,81.4c-2.2,0.1-4.7-0.7-6.4,2.1c-0.3-1.4,0.9-2,0.6-2.9c0.1,0,0.3-0.1,0.4-0.1c0.7,0,1.5,0,2.2,0
		C134.6,80.8,136,80,136.7,81.4z"/>
	<path class="st8" d="M144.3,84c-2.2-0.9-4.4-1.8-6.7-2.7C140.1,81,143.2,82.2,144.3,84z"/>
	<path class="st13" d="M155.8,87.1c0.7,0.6,1.6,1,1.8,2.1c0,0.4,0,0.8-0.1,1.2C156.9,89.3,155.3,88.8,155.8,87.1z"/>
	<path class="st4" d="M133.5,80.5c-0.7,0-1.5,0-2.2,0C132.1,79.1,132.8,79.1,133.5,80.5z"/>
	<path class="st8" d="M124.9,75.7c-0.1,0.4-0.4,0.4-0.7,0.3c-0.4-0.1-0.8-0.4-0.7-0.9c0-0.1,0.4-0.2,0.5-0.2
		C124.4,75.1,124.9,75.1,124.9,75.7z"/>
	<path class="st4" d="M130.5,80.5c-1.3-0.9-0.6-1.6,0.3-2.3C130.7,78.9,130.6,79.7,130.5,80.5z"/>
	<path class="st6" d="M157.6,90.4c0-0.4,0-0.8,0.1-1.2c0.5,0.4,1,0.8,0.9,1.6C158.1,90.9,157.8,90.7,157.6,90.4z"/>
	<path class="st1" d="M154.9,73.9c0.4,0,0.9,0,1,0.5c0.1,0.3-0.4,0.3-0.6,0.4c-0.2-0.2-0.3-0.3-0.5-0.5
		C154.9,74.2,154.9,74,154.9,73.9z"/>
	<path class="st4" d="M130.8,78.3c-0.1-0.5,0-1,0.5-1.3C131.3,77.5,131.5,78,130.8,78.3z"/>
	<path class="st11" d="M143.4,72.5c0-0.3,0-0.6,0-0.9c0.4,0.2,0.4,0.5,0.4,0.9C143.6,72.5,143.5,72.5,143.4,72.5L143.4,72.5z"/>
	<path class="st11" d="M151.8,71.2c-0.1-0.1-0.3-0.3-0.4-0.4c0,0,0,0,0,0C151.6,70.8,151.7,71,151.8,71.2L151.8,71.2z"/>
	<path class="st11" d="M152.3,71.6c-0.1-0.1-0.3-0.3-0.4-0.4c0,0,0,0,0,0C152,71.3,152.2,71.4,152.3,71.6L152.3,71.6z"/>
	<path class="st11" d="M152.7,72.1c-0.1-0.1-0.3-0.3-0.4-0.4c0,0,0,0,0,0C152.5,71.7,152.6,71.9,152.7,72.1
		C152.8,72,152.7,72.1,152.7,72.1z"/>
	<path class="st11" d="M153.2,72.5c-0.1-0.1-0.3-0.3-0.4-0.4c0,0,0,0,0,0C152.9,72.2,153,72.3,153.2,72.5L153.2,72.5z"/>
	<path class="st12" d="M143.4,72.5c0.1,0,0.3,0,0.4,0c0,0.1,0.1,0.3,0.1,0.4C143.7,72.8,143.5,72.7,143.4,72.5z"/>
	<path class="st11" d="M153.6,72.9c-0.1-0.1-0.3-0.3-0.4-0.4c0,0,0,0,0,0C153.3,72.6,153.5,72.8,153.6,72.9L153.6,72.9z"/>
	<path class="st11" d="M154.1,73.4c-0.1-0.1-0.3-0.3-0.4-0.4c0,0,0,0,0,0C153.8,73.1,153.9,73.2,154.1,73.4
		C154.1,73.4,154.1,73.4,154.1,73.4z"/>
	<path class="st11" d="M154.5,73.8c-0.1-0.1-0.3-0.3-0.4-0.4c0,0,0,0,0,0C154.2,73.5,154.4,73.7,154.5,73.8L154.5,73.8z"/>
	<path class="st11" d="M154.9,73.9c0,0.1,0,0.3,0,0.4c-0.1-0.1-0.2-0.3-0.3-0.4c0,0,0,0,0,0C154.6,73.8,154.8,73.9,154.9,73.9
		L154.9,73.9z"/>
	<path class="st4" d="M131.3,77c0.1-0.2,0.3-0.3,0.4-0.5C131.6,76.6,131.5,76.8,131.3,77z"/>
	<path class="st8" d="M125.2,77c-0.2,0.2-0.3,0.3-0.5,0.5C124.8,77.3,125,77.1,125.2,77z"/>
	<path class="st11" d="M146.9,77c0.1,0.1,0.1,0.1,0.2,0.2C147,77.1,147,77,146.9,77C146.9,77,146.9,77,146.9,77z"/>
	<path class="st8" d="M33.8,44.5c1.3,2.7,3.8,4.2,6.1,5.9c0.9,0.7,1.8,1,0.3,2.3c-2,1.7-3.5,4-4.5,6.5c-0.2,0.6-0.4,1.1-1,1.4
		c-1.5-2.3-2.6-4.7-3.5-7.3c-0.4-1-0.6-2-0.2-3c0.9-0.3,0.6-1,0.7-1.7c0.2-3.8-0.4-7.7,0.4-11.5c0.1-0.6,0.2-1.4-0.8-1.5
		c0.8-5.2,2.6-10,5.1-14.6c0.4,0.9-0.6,2.6,1.4,2.6c0,0.4,0,0.9,0,1.3c-0.2,0.1-0.6,0.2-0.6,0.4c-0.1,0.5,0.3,0.5,0.7,0.5
		c0.8,5.4,2.8,10.4,5.4,15.2c0.5,1,1.2,1.9,1.3,3c-0.6,0.4-1.2,0.9-1.8,1.3c-3-0.5-4.8-3.2-8.1-4.2c0.7,0.9,1,1.4,1.4,2
		c-0.9,0-1,0.8-1.4,1.4C34.4,44.5,34.1,44.5,33.8,44.5c0-0.4-0.1-0.7-0.4-0.9c0-0.1,0-0.1-0.1-0.2c0,0-0.1,0-0.1,0
		c0.1,0.1,0.1,0.1,0.2,0.2C33.4,43.9,33.5,44.3,33.8,44.5z"/>
	<path class="st6" d="M37,65.3c0.1-0.2,0.3-0.7,0.4-0.7c4.2,0,8.2-1.2,12.2-2.5c-2.9,3-6.8,4-10.5,5.5c-1.1-0.1-1.3-0.9-1.4-1.8
		C37.7,65.5,37.4,65.4,37,65.3L37,65.3z"/>
	<path class="st6" d="M40.1,69c1.6-0.2,3-1.1,4.4-1.9c1.2-0.7,1.4,0.1,1.4,1c0,0.1,0,0.3-0.1,0.4c-0.8,0.7-1.5,1.4-2.3,2.1
		c-1.8,1.8-2.2,1.8-3.3-0.6C40,69.7,40.1,69.3,40.1,69z"/>
	<path class="st4" d="M31.2,35.6c1,0.2,0.9,0.9,0.8,1.5c-0.8,3.8-0.2,7.6-0.4,11.5c0,0.6,0.2,1.4-0.7,1.7
		C30.7,45.3,30.3,40.4,31.2,35.6z"/>
	<path class="st13" d="M37.8,23.6c-2,0-1-1.7-1.4-2.6c0.2-1.1,0.4-2.1,1.4-2.7C37.8,20.1,37.8,21.8,37.8,23.6z"/>
	<path class="st0" d="M47.2,67.2c0-0.8,0.5-1.3,1.3-1.3C48.5,66.7,48,67.1,47.2,67.2z"/>
	<path class="st5" d="M28.4,49.8c-0.1,0-0.2,0-0.3,0c0.1-0.9-0.3-1.8,0.3-2.6C28.3,48,28.4,48.9,28.4,49.8z"/>
	<path class="st3" d="M37,65.3c0.4,0,0.7,0.1,0.8,0.5C37.4,65.8,37.1,65.8,37,65.3z"/>
	<path class="st0" d="M45.8,68.5c0-0.1,0-0.3,0.1-0.4c0.1,0,0.3,0,0.4,0C46.1,68.2,46,68.4,45.8,68.5z"/>
	<path class="st13" d="M89.1,33.7c0.7,0.9,1.5,1.8,2.2,2.7c-1.2,1-1.6,4.5-1.1,6.4c1.1,4.4,4.6,6.4,8.2,8.3
		c-2.9,2.9-4.7,1.9-7.7-0.9c-3.6-3.4-4.7-11.8-2.3-16.2C88.5,33.9,88.9,33.9,89.1,33.7z"/>
	<path class="st9" d="M109.1,31.1c0,0.3,0,0.7-0.1,1c-1.8-0.6-2.6-2.3-3.6-3.6c-1.6-1.9-3.4-3.6-5.1-5.3c0.2-0.8-0.6-1.9,0.8-2.2
		c1.2,2.3,3.3,3.8,5,5.6C107.3,27.9,108.5,29.3,109.1,31.1z"/>
	<path class="st11" d="M107.3,38.7c1.1,1.6,2.1,3.3,1.6,5.4c-0.2,1.1-0.8,1.3-1.5,0.3c-0.2-0.6,0-1.4-0.5-1.9c0-0.3,0-0.5,0-0.8
		c0-0.4,0-0.7-0.4-0.9c0,0,0,0,0,0c-0.2-1.3-0.8-2.3-1.7-3.4C106.1,37.2,106.4,38.4,107.3,38.7z"/>
	<path class="st9" d="M110,34.2c1.2-0.4,2.5-0.7,3.4,0.6c-0.5,0-1-0.2-1.3,0.3c-0.4,0.2-0.7,0.9-1.3,0.4c0-0.6-0.3-0.9-0.9-0.9
		c0,0,0,0,0,0C110,34.5,110,34.4,110,34.2z"/>
	<path class="st0" d="M102.9,42.2c-0.3,0-0.4-0.2-0.5-0.5C102.5,41.9,102.7,42.1,102.9,42.2z"/>
	<path class="st0" d="M102.4,41.8c-0.2-0.2-0.4-0.3-0.6-0.5C102,41.5,102.2,41.6,102.4,41.8z"/>
	<path class="st6" d="M146,46.7c0.5-0.8,1-1.6,1.4-2.5c0.8-1.7,1.7-3.5,0.1-5.3c-0.8-0.8,0.2-1.2,0.5-1.6c3.8-5,7.7-10,11.6-15.1
		c0.9-1.2,1.7-2.4,2.5-3.6c0.8-0.7,1.4-0.6,1.7,0.4c-0.4,0.3-0.4,0.8-0.4,1.2c0.2,8.3-2.2,16-6.1,23.3c-0.5,0.9-1.4,1.7-1,3.1
		c2.8-1.2,5.2-3.2,7.9-4.5c-1.6,2.5-4,4.1-6.3,5.7c-0.6,0.4-1.7,0.9-1.1,1.8c0.4,0.5,1.5,0.9,2.4,0.4c0.7-0.4,1.4-0.8,2.1-1.2
		c1-0.6,1.7-1.5,2.9-1.6c-3.3,4.4-8,6.8-13.1,8.6c1-1.8-0.1-4.5,2.5-5.6c1.6-0.7,1.7-1.9,1.1-3.5c-0.6-1.6-1.7-1-2.9-1
		C149.7,45.7,148,47.1,146,46.7z"/>
	<path class="st3" d="M154,66.7c-3.1-2.2-5.5-5.2-8.9-7.1c0.6-1,1.6-1.4,2.6-1.9c0.2,1,0.7,1.7,1.8,1.9c0.5,0.3,1,0.6,1.5,0.8
		c4.4,1.9,9,2.3,13.7,2.4c-0.5,0.8-0.2,1.8-1,2.5c-0.3-1-1-1-1.8-0.9c-2.4,0.2-4.8-0.5-7.1-1.1c-1.3-0.4-2.5-1.2-4-1.1
		c-0.1-0.1-0.2-0.1-0.2-0.2c0.1,0.1,0.1,0.2,0.2,0.2c1.7,1.9,4,2.8,6.3,3.6c1.6,0.5,3.1,1.6,4.9,1.4c0,0.7-0.2,1.4-0.9,1.7
		c-1-0.3-2.1-0.6-3.1-0.9C156.7,67.6,155.6,66.4,154,66.7z"/>
	<path class="st3" d="M146,46.7c2,0.4,3.7-1,5.6-1.1c1.2-0.1,2.3-0.7,2.9,1c0.6,1.5,0.6,2.7-1.1,3.5c-2.5,1.1-1.5,3.8-2.5,5.6
		c-0.5,0.4-0.9,0.9-1.4,1.3c-0.3,0-0.7-0.1-1-0.1c0.5-1.1,1-2.1,1.5-3.2c0.7-1.8-0.2-3.2-2.1-3.4c-0.3,0-0.6,0-0.9,0
		c-1.1-0.2-2.9,0.6-3.2-0.5C143.6,48.7,144.9,47.5,146,46.7z"/>
	<path class="st0" d="M163.8,19.1c-0.3-1-0.9-1.1-1.7-0.4c0.8-0.9,0.4-2.1,0.9-3.1c0.9-0.2,1.3,0.2,1.9,1c2,2.8,3.6,5.8,4.4,9.1
		c-0.1,1.7,0.5,3.1,1.4,4.5c0,0,0,0,0,0c0,0.5-0.1,1,0.4,1.4c0.2,0.4,0.7,0.8,0.4,1.3c-0.7-0.1-1.5-0.3-2.2-0.4c0.1-1.2-0.8-2-1.2-3
		C166.7,25.9,165.6,22.4,163.8,19.1z"/>
	<path class="st6" d="M148.6,56.8c0.3,0,0.7,0.1,1,0.1c0,0.9,0,1.8-0.1,2.7c-1.1-0.2-1.6-0.9-1.8-1.9
		C148,57.4,148.3,57.1,148.6,56.8z"/>
	<path class="st10" d="M140.2,47.1c0.5-0.5,1-0.5,1.5-0.1c-0.3,1.1-0.5,2.3-2,2.4C139.4,48.5,141.2,48.1,140.2,47.1L140.2,47.1z"/>
	<path class="st10" d="M141.9,46.9c-0.3-0.7,0.2-0.9,0.6-1.1C142.4,46.2,142.3,46.7,141.9,46.9z"/>
	<path class="st13" d="M42.7,45.4c0.6-0.4,1.2-0.9,1.8-1.3c0.5,0.4,0.9,0.9,1.4,1.3c0.2,0.6,0.5,1.3,0.8,2.1
		c-0.8-0.2-1.5-0.3-2.2-0.4C43.9,46.5,43.3,45.9,42.7,45.4z"/>
	<path class="st13" d="M37.8,25.8c-0.3-0.1-0.8-0.1-0.7-0.5c0-0.2,0.4-0.2,0.6-0.4C37.8,25.2,37.8,25.5,37.8,25.8z"/>
	<path class="st11" d="M112.6,50.3c-0.1-2.7,0.3-5.3-0.5-8l0.1-0.1c2.5,2.3,3,5.3,1.3,8.1C113.2,50.3,112.9,50.3,112.6,50.3z"/>
	<path class="st8" d="M110,35.6c-0.1,0.8,1.5,1.3,0.1,2.3C110,37.1,107.9,36.6,110,35.6C109.9,35.5,110,35.6,110,35.6z"/>
	<path class="st7" d="M112.6,50.3c0.3,0,0.6,0,0.9,0c-0.1,0.5-0.1,1.3-0.9,0.9C112.2,51,112.2,50.6,112.6,50.3z"/>
	<path class="st8" d="M106.9,42.6c0.6,0.5,0.4,1.2,0.5,1.9C106.5,44,106.9,43.2,106.9,42.6z"/>
	<path class="st8" d="M110,34.7c0.6,0,0.9,0.2,0.9,0.9c-0.3,0-0.6,0-0.9,0c0,0,0,0,0,0C110,35.3,110,35,110,34.7z"/>
	<path class="st8" d="M112.2,35.1c0.3-0.6,0.8-0.4,1.3-0.3c0,0.1,0,0.2-0.1,0.3C113,35.1,112.6,35.1,112.2,35.1z"/>
	<path class="st8" d="M106.4,40.9c0.4,0.2,0.4,0.5,0.4,0.9C106.5,41.6,106.4,41.3,106.4,40.9z"/>
	<path class="st11" d="M112.1,42.3c-0.2-0.1-0.4-0.1-0.5-0.2c0.1-0.1,0.2-0.2,0.2-0.2C111.9,42,112.1,42.1,112.1,42.3
		C112.2,42.2,112.1,42.3,112.1,42.3z"/>
	<path class="st13" d="M34.7,44.5c0.3-0.6,0.5-1.4,1.4-1.4c2.8,1.6,5.2,4,8.4,4.9c0.8,0.6,1.5,1.2,2.3,1.8c-0.7,0.5-1.7,0.2-2.2,0.9
		c-0.7-0.1-1.4-0.1-2.2-0.2c-1.2-1.6-3.2-2-4.6-3.2C36.6,46.5,35.5,45.6,34.7,44.5z"/>
	<path class="st6" d="M44.5,48c-3.2-1-5.6-3.3-8.4-4.9c-0.4-0.5-0.8-1-1.4-2c3.2,1,5.1,3.7,8.1,4.2c0.6,0.6,1.2,1.1,1.8,1.7
		C44.5,47.4,44.5,47.7,44.5,48z"/>
	<path class="st6" d="M44.5,50.7c0.6-0.7,1.6-0.4,2.2-0.9c0.5,0.3,1.2,0.4,1.2,1.1c0,0.4-0.3,0.7-0.7,0.7
		C46.3,51.4,45,52.3,44.5,50.7z"/>
	<path class="st1" d="M154.9,73.9c-0.1,0-0.2-0.1-0.4-0.1c-0.1-0.1-0.3-0.3-0.4-0.4c-0.1-0.1-0.3-0.3-0.4-0.4
		c-0.1-0.1-0.3-0.3-0.4-0.4c-0.1-0.1-0.3-0.3-0.4-0.4c-0.1-0.1-0.3-0.3-0.4-0.4c-0.1-0.1-0.3-0.3-0.4-0.4c-0.1-0.1-0.3-0.3-0.4-0.4
		c-0.3-0.4-0.7-0.8-1-1.3C152.5,69.8,154.6,71.9,154.9,73.9z"/>
	<path class="st1" d="M142.9,63.2c1.2-0.2,2.3,0.3,3.3,0.8c1,0.6,0.8,1.2,0.4,2C145.3,65.1,144.1,64.1,142.9,63.2z"/>
	<path class="st1" d="M149.1,68.1c1-0.1,1.5,0.3,1.4,1.3C150,69,149.5,68.5,149.1,68.1z"/>
	<path class="st1" d="M147.7,66.8c0.6,0,0.9,0.3,0.9,0.9C148.2,67.6,147.7,67.4,147.7,66.8z"/>
	<path class="st1" d="M146.7,66.2c0.7-0.5,1-0.1,1,0.6C147.3,66.8,146.9,66.7,146.7,66.2z"/>
	<path class="st5" d="M102.4,20.4c0.1,0.1,0.1,0.1,0.2,0.2C102.5,20.5,102.4,20.5,102.4,20.4C102.4,20.4,102.4,20.4,102.4,20.4z"/>
	<path class="st6" d="M81,56c-0.4-0.2-0.5-0.5-0.5-0.8c0.7,0,1.4-0.3,2.1,0.3C82.3,56.3,81.6,55.9,81,56z"/>
	<path class="st6" d="M81.1,57.3c-0.1-0.1-0.2-0.1-0.3-0.2C80.9,57.1,81,57,81,57C81.1,57.1,81.1,57.2,81.1,57.3z"/>
	<path class="st2" d="M43.2,143c3.1,0.6,6.2,1,9.4,1.1c1.6,0.2,3.2,0.2,4.8,0c0.9,0,1.8,0,2.7,0.1c-0.7,2.5-0.1,5.1-0.8,7.6
		c-0.2,0.9-0.5,2.4,1.1,2.7c1.5,0.2,2.4-0.5,2.4-2.1c1.1-0.8,1.4-2.1,2.3-3c0.4-0.4,1.1-1.5,1.2,0.2c-1.1,0.2-0.9,1.1-0.9,1.8
		c0.1,4.7,2,8.5,5.1,12c0.4,0.5,1.2,0.9,1.1,1.6c-0.2,3.5,1.7,6.5,2.7,9.7c-0.7,0.1-1.1-0.4-1.6-0.6c-4.4-2.3-9-3.9-13.9-4.8
		c-2.4-1.9-5.7-1.5-8.1-3.5c-0.7-1-1.2-2.1-1.3-3.3c0.5,0,1,0.1,1.8,0.1c-1.7-1.3-3.1-2.4-4.5-3.5c-0.8-3.8-2.4-7.3-2.9-11.1
		C43.6,146.2,43.4,144.6,43.2,143z"/>
	<path class="st7" d="M110.3,186.4c0.1,0.2,1-0.1,0.4,0.6c-0.4,0.4-1,0.4-1.2,0.9c-8.7,2.7-17,1.8-24.8-3.2
		c-0.7-0.4-1.4-0.8-1.5-1.8c0,0,0.1-0.1,0.1-0.1c0.9,0.4,1.8,0.9,2.8,1.3c3.5,1.7,7.1,3.2,11,3.4c1.8,0,3.5,0.1,5.3,0.1
		c0.5,0,0.9,0,1.4,0c0.3,0.1,0.7,0.1,0.9-0.3c0.3-0.1,0.6-0.1,0.8-0.2c0.6,0,1.2,0,1.8,0c0.7,0,1.5,0.3,1.9-0.7l0-0.2
		C109.5,186.5,109.9,186.5,110.3,186.4z"/>
	<path class="st7" d="M58.8,169.1c4.9,0.9,9.5,2.5,13.9,4.8c0.5,0.3,0.9,0.8,1.6,0.6c0,0,0,0,0,0c0,0.4,0.2,0.5,0.5,0.7
		c0.8,1.1,2.4,1.5,2.9,2.9c-0.2,0-0.5,0.1-0.7,0.1c-5.9-3.9-12.5-6.3-19.1-8.6C58.1,169.2,58.5,169.1,58.8,169.1z"/>
	<path class="st7" d="M46.7,158.9c1.4,1.1,2.8,2.2,4.5,3.5c-0.8-0.1-1.3-0.1-1.8-0.1c-5.7-2.1-9.6-6.3-12.5-11.6
		C40,153.6,42.7,157,46.7,158.9z"/>
	<path class="st11" d="M58.8,169.1c-0.4,0.1-0.8,0.1-1,0.5c-2.7-0.8-5.3-1.6-7.7-3.1c-0.2-0.2-0.8-0.3-0.3-0.8
		c0.2-0.2,0.6,0,0.9-0.1C53.1,167.5,56.4,167.2,58.8,169.1z"/>
	<path class="st11" d="M77,178.1c0.2,0,0.5-0.1,0.7-0.1c1.4,0.6,2.4,1.7,3,3c-0.1,0.1-0.1,0.1-0.2,0.2C79,180.6,78.1,179.3,77,178.1
		z"/>
	<path class="st11" d="M82.2,182.5c-0.5,0-0.7-0.3-0.8-0.8c0.1-0.1,0.1-0.1,0.2-0.2c0.6,0.1,1,0.4,1.3,0.9
		C82.6,182.5,82.4,182.5,82.2,182.5z"/>
	<path class="st11" d="M81.4,181.7c-0.3-0.2-0.6-0.3-0.9-0.5c0.1-0.1,0.1-0.1,0.2-0.2c0.3,0.2,0.6,0.3,0.8,0.5
		C81.5,181.6,81.4,181.7,81.4,181.7z"/>
	<path class="st7" d="M82.2,182.5c0.2,0,0.4,0,0.6-0.1c0.1,0.2,0.3,0.3,0.4,0.5c0,0-0.1,0.1-0.1,0.1C82.8,183,82.4,182.8,82.2,182.5
		z"/>
	<path class="st14" d="M104.6,187.5c-0.2,0.4-0.6,0.3-0.9,0.3c-0.3-0.1-0.6-0.3-0.9-0.4c0.2-1.2,1.7-2.7-0.5-3.6
		c1.5-1,3-2.1,4.5-3.1c0.1,1.1,1.3,1.9,1.8,1.1c1.3-2,3.5-3.4,4.5-5.6c0.8-1.7,1.5-2.7,3.7-2.8c3.1,0,4.4-2.1,3.4-4.8
		c0.3-0.6,1.2-0.6,1.4-1.3c0.1-0.2,0.2-0.3,0.4-0.5c0.2-0.3,0.4-0.6,0.6-0.9c0.8,0.1,0.6,0.9,0.9,1.3c0.6,0.8,1.5,1.4,2.3,0.3
		c1.3-1.8,0.7-4.3-1.1-5.2c2.3-1.9,5.1-3,7.1-5.3c1.2,1.2-1.1,1.4-0.6,2.3c3.5-0.2,5.3-1.8,6.5-5.4c0.3-0.2,0.6-0.3,0.9-0.5
		c2.7,0.4,5.4-1.9,4.7-4.4c-0.4-1.7,0-2.7,1.3-3.5c0.5-0.3,0.6-0.8,0.6-1.3c0.9-0.1,1.8-0.1,2.6-0.2c0.9,0.1,1.8,0.1,2.7,0.2
		c0.4,1.5,3.4,2.6,4.3,1.4c1.3-1.9,2.1-1.1,3.1-0.1c0.5,0.5,0.9,0.3,1.4,0c0.8-0.6,0-0.8-0.3-1.1c-0.7-0.8-0.2-0.9,0.5-1.1
		c1.5-0.4,2.4-0.2,2.1,1.7c-0.1,0.7,0.2,1.4,1.1,1.3c0.8-0.1,0.7-0.9,0.7-1.4c-0.1-1.2-0.3-2.5-0.4-3.7c0.5-0.2,0.9-0.3,1.4-0.5
		c1,1,2.1,1.3,3.5,1c3.1-0.6,4.5,0.3,4.9,2.9c0,0.3-0.1,0.6-0.1,0.9c-0.1,0.1-0.2,0.3-0.3,0.4c-0.1,0.2-0.3,0.3-0.4,0.5
		c-0.9-0.1-1.8-0.7-2.8-0.4c-1,0.3-2.1,0.6-1.1,2c0.4,0.5,0.4,1.2-0.1,1.6c-1,0.9-2.1,1.7-3.6,2.8c0.5-1.6,0.9-2.7,1.2-3.8
		c0.1-0.5,0.2-1.2-0.5-1.3c-0.9-0.1-0.5,0.6-0.5,1c0,1.3-1.3,2.3-1.2,3.7c-0.2,0-0.3,0-0.5,0c-0.9-2.1-0.9-1.9-2.6-0.3
		c-1.5,1.4-1.9,4.4-5.7,3.2c1.3,1.3,1.3,2,0.3,2.5c-0.9,0.4-0.8,1.1-0.4,1.8c-0.7,0.4-1.5,0.9-2.2,1.3c-0.1-0.8-0.4-1.5-1.4-1.3
		c-0.6,0.1-1.3,0.4-1.3,1.3c0,0.4,0.4,0.9-0.1,1.2c-0.6,0.2-0.9-0.3-1.2-0.7c-0.8-1.2-1.8-1.6-1.8,0.3c0,1.8-1.8,2.6-2.1,4.2
		c-0.1,0.5-1.3,0.3-2,0.1c-0.6-0.2-1.2-1.2-1.9-0.2c-0.5,0.7-0.2,1.4,0.3,2c0.2,0.3,0.3,0.7,0.4,1c0,0,0,0,0,0
		c-0.2,0.1-0.3,0.2-0.5,0.3c-0.3,0-0.6,0.1-0.9,0.1c-2.7-0.9-5.5-0.1-8.2-0.4c-0.1,0-0.2,0-0.2,0c-0.8,1.9-1.7,3.3-3.3,0.5
		c-0.1-0.3-0.7,0-0.9,0.3c-0.3,0.4-0.3,0.8-0.1,1.2c0.3,0.6,1.7,1.3,0.6,1.9c-1,0.5-2.2,1.9-3.7,0.6c-0.4-0.4-1-0.7-1.6-0.4
		c-0.5,0.5,0.1,0.8,0.2,1.1c0.7,2.3-0.3,3.5-2.6,3.6c-0.6,0-1.9,0.2-1.6,0.4c1.1,0.9-1.6,3,1.1,3.2c-0.8,0.8-1.8,1.2-2.7,1.8
		c-0.1-0.2-0.1-0.6-0.2-0.6c-1.5-0.1-2.9-0.2-4.4-0.3c-0.4,0-0.7,0.2-0.6,0.7c0.3,1-0.1,1.1-0.8,0.6c-0.7-0.5-1-0.3-1.1,0.5
		c-0.1,0.9-0.6,1.7-0.4,2.6c0,0,0,0.2,0,0.2c-0.7,0.1-1.4,0.1-1.9,0.7c-0.6,0-1.2,0-1.8,0C105.1,186.9,104.8,187,104.6,187.5z
		 M129.1,162.8c0.5-0.1,1.1-0.2,1.2-0.8c0.1-0.7-0.5-1.1-1.1-1.2c-0.6-0.1-1.2,0.2-1.3,0.9C127.8,162.5,128.5,162.6,129.1,162.8z
		 M122.3,168c-0.1,0.1-0.1,0.2-0.2,0.4c0.1,0.1,0.3,0.2,0.4,0.1c0.1,0,0.1-0.2,0.2-0.4C122.6,168.1,122.4,168,122.3,168z"/>
	<path class="st11" d="M139.8,169.2c0.3,0,0.6-0.1,0.9-0.1c0.2-0.1,0.3-0.2,0.5-0.3c0,0,0,0,0,0c3.4-0.9,6.8-1.5,10-3
		c0.7-0.3,1.3-1,2.6-0.7c-2,1.7-4.1,2.5-6.2,3.3c-6.4,2.3-13.1,3.7-19.1,7.1c-1,0.5-1.9,1.1-2.9,1.6c-0.1,0-0.3-0.1-0.7-0.3
		C129.2,172.7,134.6,171.1,139.8,169.2z"/>
	<path class="st11" d="M152.3,160.7c0.7-0.4,1.5-0.9,2.2-1.3c2.2-1,3.8-2.8,5.7-4.1c0.4,0,0.7,0,1.1,0c-2.5,3.7-7.7,7.1-10.7,6.9
		C150.7,161.3,151.9,161.4,152.3,160.7z"/>
	<path class="st12" d="M161.4,155.4c-0.4,0-0.7,0-1.1,0c0.9-0.9,1.7-1.8,2.6-2.7c0.1,0,0.1,0.1,0.2,0.1
		C162.9,153.9,162.3,154.8,161.4,155.4z"/>
	<path class="st11" d="M121.9,179.7c0.3-0.7,0.8-1.3,1.8-1.5c-0.2,1.1-0.9,1.5-1.6,1.7C122,179.8,121.9,179.8,121.9,179.7z"/>
	<path class="st11" d="M121.6,180.3c-0.3,0.2-0.5,0.4-0.8,0.6c-0.1-0.1-0.1-0.1-0.2-0.2c0.3-0.2,0.5-0.3,0.8-0.5
		C121.4,180.2,121.6,180.3,121.6,180.3z"/>
	<path class="st12" d="M162.9,152.2c0.2,0,0.3,0,0.5,0c-0.1,0.2-0.2,0.4-0.4,0.5c-0.1,0-0.1-0.1-0.2-0.1
		C162.9,152.5,162.9,152.3,162.9,152.2z"/>
	<path class="st11" d="M121.4,180.2c0.1-0.2,0.3-0.3,0.4-0.5c0.1,0.1,0.1,0.1,0.2,0.2c-0.2,0.1-0.3,0.3-0.5,0.4
		C121.6,180.3,121.4,180.2,121.4,180.2z"/>
	<path class="st2" d="M172.7,144.6c-0.4-2.6-1.9-3.4-4.9-2.9c-1.4,0.3-2.5,0-3.5-1c3.7-2,7.2-4.4,10.5-7.1c0.9,0.7,0.5,1.7,0.6,2.5
		c-1.2,0.9-0.6,2.5-1.2,3.6C173.9,141.5,173.5,143.1,172.7,144.6z"/>
	<path class="st0" d="M163.4,166.8c-0.1,0.6-0.1,1.2-0.9,0.4C162.6,166.8,163,166.9,163.4,166.8z"/>
	<path class="st2" d="M172.3,146c0.1-0.1,0.2-0.3,0.3-0.4C172.5,145.7,172.4,145.8,172.3,146z"/>
	<path class="st0" d="M161.2,168.7c-0.1,0-0.1-0.1-0.2-0.1C161,168.6,161.1,168.7,161.2,168.7C161.2,168.7,161.2,168.7,161.2,168.7z
		"/>
	<path class="st2" d="M109.1,186.5c-0.2-0.9,0.3-1.7,0.4-2.6c0.1-0.8,0.4-1.1,1.1-0.5c0.7,0.5,1.1,0.5,0.8-0.6
		c-0.1-0.5,0.1-0.7,0.6-0.7c1.5,0.1,3,0.2,4.4,0.3c0.1,0,0.1,0.4,0.2,0.6c-1.9,1.6-4.3,2.2-6.3,3.4
		C109.9,186.5,109.5,186.5,109.1,186.5z"/>
	<path class="st14" d="M126,141c0.6,0.1,1.3,0,1.4,0.8c-1.1,1.5,1.8,2.7,0.1,4.3c2.4,0.9,2.7-1.6,4-2.4c1,1.2,1.2,2.5,1.1,4
		c-0.6,0-1.5,0-1.5,0.8c-0.1,0.9,0.7,1.3,1.5,1.4c0.2,0.9-0.1,1.7-0.8,2.3c-0.9-2-1.3-2.1-2.8-0.5c-0.5,0.5-1,1.2-1.2,1.8
		c-0.7,1.7-1.6,3.1-3.4,3.7c-0.6,0.2-1.3,0.8-1.3,1.6c0.9,0.7,1.8-1.4,2.5,0.3c-0.3,0.2-0.6,0.4-0.9,0.5c-0.5,0-1-0.1-1.3,0.4
		c0,0,0,0,0,0c-1.5-0.5-3.2-0.6-4.7-1c-2.4-0.6-4.7,0.4-7-0.3c-0.7-0.2-1.6,0.1-1.7-1c0-0.8-0.1-1.7,0.8-2.1
		c1.1-0.5,1.4-1.4,1.5-2.5c0-0.5,0.3-1.3,0.6-1.4c3.5-1.1,2.5-3.3,1.3-5.5c-0.3-0.5,0.2-1,0.2-1.5c0-1.3-0.8-2.2-1.7-3
		c-1.1-1-0.8,1.3-1.8,0.9c-0.3-0.4-0.7-0.9-1-1.3c0.2-0.1,0.3-0.4,0.5-0.4c0.8-0.2,1.4-0.6,1.2-1.5c-0.3-0.9-1.1-0.3-1.6-0.5
		c-1.2-0.5-1.9,0.4-2.8,0.7c-1.3-0.2-2.6-0.4-3.9-0.6c0.8-1.7,2-0.4,3-0.4c0.5,0,1.2,0.2,1.3-0.5c0.1-0.8-0.6-0.7-1.1-0.8
		c-1.9-0.1-3.8,0.1-6.3-0.5c0.9,1,2,1.3,1.7,2.2c-1,0-2.1,0-3.1,0c-0.1-0.6,0.2-1.2-0.5-1.6c-2-1.4-4.2-0.5-6.3-0.9
		c-1.4-0.3-1,1.1-1.4,1.8c-0.1,0.2-0.6,0.4-1,0.4c-0.9,0.1-1.2,0.6-1.1,1.3c0.1,1.1-0.4,1.9-1.1,2.7c-1.1,1.2-0.6,2.4,1,3.1
		c0,1,0,2.1,0,3.1c-1.2-0.1-1.6,0-1.2,1.6c0.6,3,2.8,4.2,5.2,5.5c0.4,0.2,1.1,0.1,0.8,0.7c-0.2,0.5-0.7,0.9-1,1.4
		c-1.1-1-1.6,0.6-2.4,0.6c-3.3,0.1-7.1,2.4-9.5-1.9c-0.1-0.2-0.3-0.3-0.5-0.4c-2.6-0.6-3-2.6-2.7-4.8c0.3-2.3-0.3-4.6,0.3-7
		c0.3-1-0.6-1-1.2-1c0-0.4,0.1-0.9,0.1-1.3c0.1-0.1,0.2-0.3,0.4-0.4l0,0c1,0.1,2,0.4,3.1,0.4c1.3-0.1,2.9,0,2.7-2
		c-0.2-2,0.6-2.7,2.5-2.4c0.9,0.1,2.3,0.3,2.3-1c0-1.2,0.2-2.7-1.1-3.6c0.3-0.2,0.5-0.5,0.8-0.7c0.9,1.7,2,2,3.6,0.8
		c2.1-1.6,5-1.5,7-3.2c0.7-0.6,1.9-1,0.1-1.6c1.4-1.7,3.4-0.4,5-1c1.2,0.4,2.4,0.7,3.5,1.1c0,0.3,0,0.5,0,0.8
		c-0.7,0.1-1.3,0.3-1.2,1.2c0,0.4,0.3,0.5,0.6,0.5c0.9-0.3,0.5-1.1,0.6-1.7c0.6,0,1.2,0,1.8,0c0,0,0,0,0,0c1,3.3,3.6,4.4,6.2,2.7
		c0.2,0,0.3,0.1,0.5,0.1c0.3,0.1,0.5,0.2,0.8,0.3c0.2,0.1,0.3,0.3,0.5,0.4c0.6,2-1.8,2.6-2.1,4.3c3.6-1.1,3.9-0.9,4.7,2.9
		c0.2,0.9,0.5,1.3,1.5,1c0.5-0.2,1.1-0.3,1.5-0.1c1.7,0.6,1.9-0.3,1.9-1.6c0.6,0.4,1.4,0.4,1.8,1.1c-0.4,0.3-1.2,0.7-0.5,1.2
		C125.3,142.2,125.9,141.9,126,141z M106.2,132.8c0.1-0.4-0.1-0.5-0.3-0.5c-0.2,0-0.5,0.1-0.5,0.2c-0.1,0.3,0.1,0.5,0.4,0.5
		C105.9,133,106.1,132.8,106.2,132.8z"/>
	<path class="st1" d="M98.8,139.2c1,0,2.1,0,3.1,0c0.4,0,0.9,0,1.3,0c1.3,0.2,2.6,0.4,3.9,0.6c0,0.8,0.5,1,1.1,0.8
		c0.9-0.2,1.2,0.5,1.6,0.9c0.3,0.4,0.7,0.9,1,1.3c1.9,3.3,1.9,6.6-0.6,9.4c-1.7,1.9-3.6,3.7-6.3,4.4c-0.7,0.7-1.7,0.1-2.5,0.6
		c0.2,2,1.8,2.8,3.1,3.7c3.7,2.5,7.7,3.1,11.9,1.8c1.2-0.3,2.6-0.4,3.6-1.2c1.2,0,2.2-0.6,3-1.4c0,0,0,0,0,0
		c0.5-0.1,1.1,0.3,1.3-0.4c0.3-0.2,0.6-0.4,0.9-0.5c1-0.6,2-1.1,2.9-1.8c1.4-1.1,2.6-2.5,2.9-4.3c0.2-0.1,0.4-0.2,0.3-0.5
		c0.1-0.1,0.1-0.3,0.1-0.4c0.7-0.6,1-1.3,0.8-2.3c0-0.7,0-1.5,0-2.2c0.1-1.5-0.1-2.8-1.1-4c0.1-0.2,0.1-0.3,0.2-0.5
		c0.7-0.3,1.1,0.6,1.8,0.5c1.8,1.5,3.5,3,4.9,4.8c0.8,1.1,1.2,2.3,0.9,3.6c-2.4,0.1-2.4-2.8-4.5-3.6c0.6,1.2-0.8,2,0,3.1
		c-1.1,1.7-1.7,3.8-3.1,5.4c-2,2.3-4.8,3.4-7.1,5.3c-1.2,0.9-1.1,2.6-2.1,3.6c-0.2,0.3-0.4,0.6-0.6,0.9c-0.2,0.1-0.4,0.2-0.4,0.5
		c-0.2,0.8-1.1,0.7-1.4,1.3c-2.1,1.5-4.1,3.2-6.9,3.2c-0.7,0-1.3,0.6-1.5,1.2c-0.8,3.1-2.9,5.4-5,7.7c-1.5,1-3,2.1-4.5,3.1
		c-1.2,0-2.4,0-3.6,0c-4.6-2.3-7.9-5.8-9.8-10.6c-0.2-0.6-0.5-0.9-1.2-1c-5.4-0.9-9.1-3.9-11.1-9c-0.2-0.4,0-1-0.7-1.2
		c-2-0.6-3.4-2-4.8-3.5c-2.5-2.5-5.2-5-4.9-9c-0.1-1.7-0.7-0.7-1.2-0.2c-0.9,0.9-1.2,2.2-2.3,3c-1.3-0.6-1.5-1.6-0.8-2.8
		c0.5-1,1.1-2.1,1.6-3.1c1,0.1,1.6-0.5,2.3-1c1-0.7,1.7-1.8,3.2-1.6c-0.6,2.8-0.9,5.7,0,8.4c1.9,5.1,6.1,7.6,11.1,9.2
		c0.9,0.4,1.7,0.7,2.6,1.1c4.6,1.9,12.8,0.5,15.9-3.6c0.3-0.4,1-0.6,0.6-1.3c-0.2-0.4-0.6-0.6-1.1-0.6c-0.4,0-0.9,0-1.3,0
		c-3.6-1.7-6.1-4.7-8.2-8c0-1,0-2.1,0-3.1c0.2-1.6,1-2.8,2-4C92.8,139.5,95.7,139.1,98.8,139.2z M101.9,161.6c0-0.4-0.1-0.5-0.4-0.2
		c0,0.2-0.1,0.4-0.1,0.7c-0.2,0.3-0.2,0.6,0,0.9c0,3,0,6,0.1,8.9c-0.1,0.3-0.1,0.5-0.2,0.8c0,0.1-0.1,0.1-0.1,0.2
		c0,0.1,0.1,0.2,0.2,0.4c0.1,0.3,0.1,0.6,0.2,0.8c-0.5,0.1-0.3,1.3-1.2,0.8c-0.7-0.4-0.7-1-0.4-1.7c0.2-0.2,0.2-0.4,0-0.6
		c0-0.2,0-0.4,0-0.6c0.3-1.1,0.4-2.2-0.1-3.3c0-2.3,0-4.7,0-7.4c-3.8,2.8-7.4,4.5-11.6,4.5c1,4.7,2.6,9,6.1,12.4
		c0.7,1.7,2.3,2.3,3.6,3.3c1.7,1.3,3.2,1.1,5.1-0.1c4.6-2.8,7.2-6.9,8.6-11.9c0.3-1,0.7-2.3,0.4-3.2c-0.4-1.3-1.9-0.4-2.9-0.7
		c-2.6-0.8-4.9-2.1-7.2-3.5C102,161.9,101.9,161.7,101.9,161.6z M107.4,146.9c1.6-0.3,2.3-1.6,1.5-3.1c-1-1.9-4.2-2.8-6.8-1.8
		c-2-0.9-4-0.4-6,0c-1.4,0.2-2.3,1-2.6,2.4c-0.3,1.5,0.4,2.7,1.8,3.5C98.2,149.4,104.7,149,107.4,146.9z"/>
	<path class="st1" d="M67.2,133.9c-7.2-0.3-12.6-3.3-16-9.7c-0.1-0.1-0.1-0.3-0.2-0.4c-1.2-0.8-2.6-1.9-2.3-3.1
		c0.3-1.1,1.8-2.1,2.9-2.9c2.6-1.9,4.1-4.8,7.1-6.3c5.5-2.8,10.8-2.6,16,0.3c2.6,1.4,4.5,3.8,5.6,6.6c0.7,2.9,2.1,5.5,3.2,8.3
		c0.6,1.6,0,2-1.2,2.3c-3.1,0.7-6.2,1.3-8.7,3.6c-0.3,0.3-1,0.2-1.4,0.5C70.6,133.9,68.7,133.1,67.2,133.9z M56.9,119.2
		c-0.4,0.2-0.4,0.6-0.3,1c-0.1,1.4-0.4,2.9,0.8,4c0.3,1.4,1.1,2.3,2.2,3.1c1.8,2.5,4.8,2.9,7.4,3.4c2.1,0.4,4.4-0.8,6.4-2.1
		c1.3-0.7,2.3-1.6,2.8-2.9c1.3-1.5,0.7-3.3,0.8-5c-0.2-0.8,0.7-1.5-0.3-2.4c-2-2-6.1-2.1-8.3-0.2c-1.3,1.1-2.9,1.8-4.4,2.7
		c-0.4-0.8-0.9-1.6-0.9-2.6c-0.1-1.3-0.9-1.9-2.2-1.8C58.7,116,57.4,117.1,56.9,119.2z M79,123.4c-0.2,0.7-0.5,1.4-0.7,2.1
		c-0.1,0.4-0.7,0.8-0.3,1.2c0.4,0.3,1,0.4,1.5,0.1C81.8,125.4,79.6,124.4,79,123.4z"/>
	<path class="st9" d="M67.2,133.9c1.5-0.8,3.4,0,4.9-0.9c0.4-0.2,1.1-0.2,1.4-0.5c2.5-2.3,5.6-2.9,8.7-3.6c1.2-0.3,1.8-0.7,1.2-2.3
		c-1.1-2.8-2.5-5.4-3.2-8.3c1.9-0.3,3.3-1.6,4.9-2.4c1.3-0.7,2.3-0.9,2.9,0.9c1.6,4.4,5,7,9.3,8.6c1.7,0.6,3.8,0.6,5.1,2.2
		c-1.6,0.6-3.6-0.8-5,1c-3.9,0.3-7.7,1.1-10.6,4c-0.3,0.2-0.5,0.5-0.8,0.7c-3.2,2.6-6.3,5.1-9.5,7.7c-2.5,1.1-5.5,0.7-7.6,2.8
		c-1.4-0.2-2.2,0.9-3.2,1.6c-0.7,0.5-1.3,1.2-2.3,1c-0.6-1.4,1.5-2.3,0.8-3.8c-0.9,0.8-1.9,0.8-2.9,0.8c1.5-2.4,3.1-4.8,4.6-7.3
		C66.5,135.4,67.2,134.8,67.2,133.9z"/>
	<path class="st1" d="M120.2,119.7c2.4-7.7,10.7-12.4,18.8-9.4c2.9,1,5.3,2.7,7.6,4.5c0.3,0.7,0.9,1.1,1.5,1.5l0.2-0.1
		c0,0-0.2,0.1-0.2,0.1c1,1,1.9,1.9,2.9,2.9c0,0,0,0,0,0c0.2,0.2,0.3,0.3,0.5,0.5c0,0,0,0,0,0c0.2,0.4,0.4,0.9,0.6,1.3
		c-1.3,2.5-3.4,4.5-4.8,6.8c-2.1,3.3-5.7,3.9-8.6,5.7c-1.9,0-3.9,0-5.8,0c0,0,0.1-0.1,0.1-0.1c-0.3-1-0.6-2-0.5-3
		c3.1,0.1,6.2-0.2,8.5-2.7c0,0,0,0,0,0c0.2-0.1,0.3-0.3,0.5-0.4c1.2-0.8,2-1.8,2.2-3.2c0.8-1,0.3-2.1,0.4-3.1c0-0.5,0.2-1.1,0-1.5
		c-0.5-0.9-0.5-2.5-2.3-2c-2.1-1.3-3.7,0.3-5.4,0.9c-1.8,0.6-2.1,1.5-1,2.9c0.4,0.5,0.9,1,1.3,1.4c-1.4,0-3,0-3.9-0.9
		c-1.8-1.7-3.7-1.9-5.9-1.3c-3.2,0-3.2,0-3.2,2.9c0,0.9-0.5,1.1-1.2,1.1c0-0.3-0.1-0.6-0.1-0.9c0.4-1.4,0-2.9,0.7-4.3
		C121.8,120.3,121,119.8,120.2,119.7z M146.5,124.2c0.6-0.8,1-1.4,1.3-2c0.8-1.6-0.1-2-1.3-1.3C145.5,121.6,145.8,122.9,146.5,124.2
		z"/>
	<path class="st8" d="M162.6,104.1c1.3,1.5,1,3.5,2,5.1c0.3,0.5,0.3,1.2,1.1,1.2c0,0,0,0,0,0c0.1,0.2,0.1,0.4,0.2,0.6
		c0.1-0.2,0.1-0.4,0.2-0.5c0.5-1.3,2.8-0.8,2.7-2.7c0.7-0.2,0.9,1,1.9,0.4c-0.6-0.7-0.1-1.9-1.4-2.1c0-0.9-0.2-1.8,0.9-2.3
		c1.1,3.5,2.4,7,3.8,10.5c0.8,1.9-0.2,3.7-1.3,4.9c-1.6,1.7-3.8,2-6.1,1.3c-5.8-1.7-8.4-6.2-9.8-11.7c-0.3-1.3-0.7-2.7-0.4-4.1
		c0.8-0.1,0.8,0.9,1.2,1.2c0.8-0.5,0.2-1.4,0.9-1.9C159.7,106.3,161.1,104.4,162.6,104.1z M170.7,109.8c0,0.1,0,0.1-0.1,0.2
		c0.1,0,0.2,0,0.2,0c0-0.1,0-0.1,0-0.2C170.8,109.8,170.7,109.8,170.7,109.8z"/>
	<path class="st0" d="M122.1,124.6c0.8,0,1.2-0.2,1.2-1.1c-0.1-2.9,0-2.9,3.2-2.9c0,0.3,0,0.6,0,0.8c-3,0.2-3.4,1.1-1.9,3.8
		c0.4,0.7,0.8,1.2,1.4,1.6c1.5,2.3,3.8,3,6.3,3.6c-0.1,1,0.1,2,0.5,3c-1,0-2,0.5-2.8-0.5c0-0.3,0.2-0.8-0.2-1
		c-0.5-0.2-0.5,0.3-0.6,0.6c-1.7-0.6-3.2-1.6-4.7-2.2c-1.6-0.6-3.6-1.4-5.6-1.4c-2.1,0-2.1-1.1-1.3-2.5c0.8-1.3,0.6-3,1.7-4.2
		c1.1,0.6-0.3,2.4,1.3,2.7c0,0.5-0.9,1,0.1,1.4c0.6,0.3,1.4,0.7,1.8,0.2C123.3,125.9,122.1,125.4,122.1,124.6z"/>
	<path class="st2" d="M139.3,152.2c0.3-1.4-0.1-2.5-0.9-3.6c1.7-2-0.7-3.2-1-4.9c0.5,0,1,0,1.5,0c0,0,0,0,0,0c0.1,0.3,0.3,0.4,0.4,0
		c0.3,0,0.6-0.1,1-0.1c1.5,1.2,3.3,0.2,4.9,0.7c0,0.5-0.1,1-0.6,1.3c-1.3,0.8-1.7,1.8-1.3,3.5c0.6,2.5-2,4.8-4.7,4.4
		c0-0.2,0-0.3,0-0.5c0.1-0.1,0.3-0.3,0.4-0.4C139,152.5,139.2,152.4,139.3,152.2z"/>
	<path class="st10" d="M140.8,88c7.4,2.8,13.5,17.9,13.9,26.3C151.3,104.9,148.3,95.3,140.8,88z"/>
	<path class="st12" d="M61.5,143.3c1,0,2,0,2.9-0.8c0.6,1.5-1.4,2.4-0.8,3.8c-0.5,1-1,2.1-1.6,3.1c-0.7,1.2-0.5,2.2,0.8,2.8
		c0,1.6-0.9,2.3-2.4,2.1c-1.6-0.3-1.3-1.7-1.1-2.7c0.7-2.5,0.1-5.1,0.8-7.6c0,0,0,0,0,0c0.2-0.1,0.3-0.2,0.5-0.3
		C60.9,143.8,61.3,143.8,61.5,143.3z"/>
	<path class="st2" d="M123.3,139.5c0.1,1.3-0.2,2.2-1.9,1.6c-0.4-0.2-1-0.1-1.5,0.1c-1,0.3-1.3-0.1-1.5-1c-0.8-3.8-1.2-4-4.7-2.9
		c0.2-1.7,2.7-2.4,2.1-4.3C118.9,134.5,120.8,137.4,123.3,139.5z"/>
	<path class="st10" d="M138.9,143.8c-0.5,0-1,0-1.5,0c0.4,1.7,2.7,2.9,1,4.9c-1.4-1.9-3.2-3.4-4.9-4.8c0.1-0.4,0.2-1.1,0.8-0.6
		c0.7,0.6,1.3,0.4,1.7-0.2c0.4-0.7-0.4-1-0.8-1.4c-1.8-2.2-4.2-3.8-7.1-5.5C134,136.2,135.8,140.8,138.9,143.8z"/>
	<path class="st2" d="M163,141.2c0.1,1.2,0.3,2.5,0.4,3.7c0,0.5,0.2,1.3-0.7,1.4c-0.8,0.1-1.2-0.6-1.1-1.3c0.3-1.9-0.6-2-2.1-1.7
		c-0.7,0.2-1.2,0.3-0.5,1.1c0.3,0.3,1.1,0.6,0.3,1.1c-0.4,0.3-0.9,0.5-1.4,0c-1.1-1-1.9-1.8-3.1,0.1c-0.9,1.3-3.8,0.2-4.3-1.4
		c3.1,0.2,5.8-1.7,8.8-2c0.6-0.1,1.3-0.2,1.9-0.3c0.2,0.3,0.4,0.5,0.7,0.2c0.3-0.3,0-0.5-0.2-0.7C161.9,141,162.5,141.1,163,141.2z"
		/>
	<path class="st10" d="M119.5,91c-0.6-0.4-0.9-0.4-0.9-0.6c-0.3-0.5,0-1,0.3-1.4c1.4-2,3-3.8,5-5.2c1-0.7,1.9-1.6,2.9-2.4
		c0.4-0.3,0.8-0.5,1.2-0.1c0.4,0.4,0.2,0.8-0.1,1.2c-1.3,1.3-2.5,2.7-3.9,3.9c-1.4,1.3-3,2.3-4.2,3.9
		C119.6,90.4,119.6,90.8,119.5,91z"/>
	<path class="st4" d="M64.1,81.3C63,80,64.7,79.6,65,78.7c1.4-0.6,2.7-1.2,4.1-1.9c0.2,0.2,0.5,0.3,0.7,0.6c0.6,0.8,1.7,1.7,1.4,2.6
		c-0.4,1.1-1.8,0.3-2.8,0.5C66.9,80.8,65.5,81.1,64.1,81.3z M67.1,79c0.1,0,0.1,0.1,0.2,0.1c0,0,0-0.1,0.1-0.2
		c-0.1,0-0.1-0.1-0.2-0.1C67.1,78.9,67.1,79,67.1,79z"/>
	<path class="st10" d="M145.1,144.4c-1.6-0.5-3.4,0.5-4.9-0.7c0.1-0.3,0.4-0.7,0.1-1c-0.3-0.2-0.8-0.1-1-0.3
		c-0.8-0.7-1.5-1.6-1.7-2.7c-0.1-0.4,0.3-0.6,0.7-0.6c1.3,0,1.9,1.1,2.2,1.9c0.9,2.5,2.6,3.3,5.1,3c0.7-0.1,1.5-0.3,2.1,0.4
		C146.9,144.2,146,144.3,145.1,144.4z"/>
	<path class="st2" d="M131.7,143.3c-0.1,0.2-0.1,0.3-0.2,0.5c-1.3,0.9-1.6,3.3-4,2.4c1.6-1.6-1.2-2.9-0.1-4.3c1.1,0,2.1,0.2,3.1,0.6
		c0.2,0.1,0.3,0.2,0.5,0.4c0.1,0,0.3,0.1,0.4,0.1C131.4,143.2,131.4,143.5,131.7,143.3L131.7,143.3z"/>
	<path class="st2" d="M114,132.2c-2.6,1.7-5.2,0.6-6.2-2.7C110.1,129.8,112.3,130.4,114,132.2z"/>
	<path class="st0" d="M120.2,119.7c0.8,0.1,1.7,0.6,2.5-0.3c-0.7,1.5-0.4,3-0.7,4.3c-0.4,0.2-0.8,0.3-1.2,0.5
		c-0.2-0.4-0.2-0.7,0.1-1.1c0.9-1.3,0.3-1.9-1.1-2.1C119.9,120.6,119.6,120,120.2,119.7z"/>
	<path class="st1" d="M119.7,121c1.4,0.1,2,0.8,1.1,2.1c-0.3,0.5-0.3,0.7-0.1,1.1c0,0.3,0,0.6-0.1,0.8c-1.6-0.3-0.2-2.1-1.3-2.7
		C119.4,121.9,119.1,121.3,119.7,121z"/>
	<path class="st10" d="M132.6,133.6c1.9,0,3.9,0,5.8,0c-1.7,1.2-3.6,0.8-5.5,0.8C132.3,134.4,132.6,133.9,132.6,133.6z"/>
	<path class="st10" d="M150.9,119.3c-1-1-1.9-1.9-2.9-2.9C149.6,116.8,150.5,117.8,150.9,119.3z"/>
	<path class="st2" d="M126,141c-0.1,0.9-0.7,1.2-1.3,0.8c-0.7-0.5,0-0.9,0.5-1.2C125.5,140.7,125.8,140.6,126,141z"/>
	<path class="st10" d="M57.4,144.1c-1.6,0.2-3.2,0.2-4.8,0C54.2,143.6,55.8,143.6,57.4,144.1z"/>
	<path class="st2" d="M106,129.5c0-0.3,0-0.5,0-0.8c0.8-0.1,1.3,0.2,1.8,0.8C107.2,129.5,106.6,129.5,106,129.5z"/>
	<path class="st10" d="M148,116.4c-0.6-0.4-1.2-0.8-1.5-1.5C147.4,115,148.1,115.3,148,116.4z"/>
	<path class="st1" d="M129.1,132.7c0.1-0.3,0.1-0.8,0.6-0.6c0.4,0.2,0.2,0.6,0.2,1C129.6,133,129.2,133.2,129.1,132.7z"/>
	<path class="st10" d="M151.9,121c-0.2-0.4-0.4-0.9-0.6-1.3C152.3,119.8,152.5,120.2,151.9,121z"/>
	<path class="st14" d="M161.6,141.5c0.3,0.2,0.5,0.4,0.2,0.7c-0.3,0.3-0.5,0-0.7-0.2C161.3,141.8,161.4,141.7,161.6,141.5z"/>
	<path class="st2" d="M115.3,132.6c-0.3-0.1-0.5-0.2-0.8-0.3C114.8,132.2,115.1,132.2,115.3,132.6z"/>
	<path class="st10" d="M139.3,143.8c-0.1,0.4-0.3,0.3-0.4,0C139,143.8,139.2,143.8,139.3,143.8z"/>
	<path class="st2" d="M60.5,143.9c-0.2,0.1-0.3,0.2-0.5,0.3C60.1,143.9,60.3,143.8,60.5,143.9z"/>
	<path class="st1" d="M131.8,143.4c-0.4,0.2-0.4-0.2-0.4-0.4C131.6,143,131.8,143,131.8,143.4z"/>
	<path class="st14" d="M130.9,142.9c-0.2-0.1-0.3-0.2-0.5-0.4C130.6,142.6,130.8,142.7,130.9,142.9z"/>
	<path class="st10" d="M151.4,119.8c-0.2-0.2-0.3-0.3-0.5-0.5C151.1,119.4,151.2,119.6,151.4,119.8z"/>
	<path class="st1" d="M169.1,32.5c0.7,0.1,1.5,0.3,2.2,0.4c1.4,1.3,0.9,2.9,1,4.5c0,0.9,0,1.8,0.1,2.6c0,0.6,0,1.2,0,1.8
		c0,2.5,0,5,0,7.5c0,0.5-0.3,1,0.3,1.4c-0.8,1.1,0,2.5-0.7,3.5c-0.3,0.6-0.8,1.1-1.1,1.8c-0.7,2.1-1.5,4.3-2.8,6
		c-2.2,3-3.9,6.2-5.6,9.4c-0.9,0.9-1.5,1.9-1.7,3.1c-1.2-0.5-1.5-1.5-1.4-2.7c0.4-1.1,1.5-1.8,1.8-3.1c0.8-0.3,0.9-1,0.9-1.7
		c0.6-0.6,1.2-1.2,1.7-1.8c0.7-0.7,0.5-1.7,1-2.5c3-4.8,5.6-9.6,5.4-15.5C170,42.4,170.3,37.4,169.1,32.5z"/>
	<path class="st10" d="M162.4,71.6c1.7-3.2,3.4-6.5,5.6-9.4c1.3-1.7,2.1-3.9,2.8-6c0.3-0.7,0.7-1.2,1.1-1.8c1,1.7,0,3.2-0.6,4.6
		c-2.1,4.9-4.4,9.6-8,13.6C163,72.3,162.6,72.1,162.4,71.6z"/>
	<path class="st10" d="M172.4,41.8c0-0.6,0-1.2,0-1.8c0.5,0.1,0.8,0.4,0.8,0.9c0,3,0,6.1,0,9.1c0,0.2-0.3,0.5-0.4,0.7
		c-0.6-0.4-0.3-0.9-0.3-1.4C173,46.8,173,44.3,172.4,41.8z"/>
	<path class="st1" d="M170.6,30.2c-0.9-1.4-1.4-2.8-1.4-4.5C170.5,26.9,170.4,28.6,170.6,30.2z"/>
	<path class="st10" d="M140.2,47.1c-0.2,0.3-0.4,0.8-0.9,0.7c-0.1,0-0.2-0.2-0.2-0.3C139.3,47,139.8,47.2,140.2,47.1
		C140.2,47.1,140.2,47.1,140.2,47.1z"/>
	<path class="st1" d="M170.9,31.5c-0.5-0.4-0.4-0.9-0.4-1.4C171.2,30.5,171,31,170.9,31.5z"/>
	<path class="st1" d="M161.3,75.5c-0.5-0.1-0.6-0.4-0.6-0.8C161.1,74.9,161.3,75.1,161.3,75.5z"/>
	<path class="st5" d="M172.8,91.2c0.1,0.2,0.2,0.4,0.3,0.5C172.4,92,172.9,91.4,172.8,91.2z"/>
	<path class="st1" d="M161.7,76.1c-0.1-0.2-0.3-0.4-0.4-0.5C161.4,75.7,161.5,75.9,161.7,76.1z"/>
	<path class="st9" d="M182.4,63.6c0.1,0.2,0,0.3-0.2,0.4C182.2,63.9,182.3,63.8,182.4,63.6z"/>
	<path class="st6" d="M161.2,68.9c-0.2,1.2-1.4,2-1.8,3.1c-1.3-0.7-2.1-2-3.1-3.1c0.7-0.1,1.7,0.3,1.8-0.9
		C159.1,68.4,160.1,68.7,161.2,68.9z"/>
	<path class="st13" d="M158,68.1c-0.1,1.2-1.1,0.8-1.8,0.9c-0.8-0.7-2-1-2.2-2.2C155.6,66.4,156.7,67.6,158,68.1z"/>
	<path class="st13" d="M169.2,105.9c1.3,0.2,0.8,1.5,1.4,2.1c-1,0.7-1.2-0.6-1.9-0.4c0,0,0,0,0,0c0-0.1,0-0.3,0-0.4
		C169.3,106.9,169.2,106.4,169.2,105.9z"/>
	<path class="st8" d="M168.7,107.3c0,0.1,0,0.3,0,0.4c-1.2-0.1-1.5-0.8-1.1-2C168.5,105.9,168.3,106.8,168.7,107.3z"/>
	<path class="st6" d="M166,110.4c-0.1,0.2-0.1,0.4-0.2,0.5c-0.1-0.2-0.1-0.4-0.2-0.6C165.7,110.4,165.9,110.4,166,110.4z"/>
	<path class="st6" d="M33.8,44.5c-0.4-0.2-0.4-0.5-0.4-0.9l0,0C33.7,43.8,33.8,44.1,33.8,44.5C33.8,44.5,33.8,44.5,33.8,44.5z"/>
	<path class="st6" d="M33.4,43.6c-0.1-0.1-0.1-0.1-0.2-0.2c0,0,0.1,0,0.1,0C33.3,43.5,33.4,43.5,33.4,43.6
		C33.4,43.6,33.4,43.6,33.4,43.6z"/>
	<path class="st13" d="M169.1,32.5c1.2,4.9,0.9,9.9,1,14.9c0.2,5.9-2.4,10.8-5.4,15.5c-4.7-0.1-9.4-0.5-13.7-2.4
		c-0.5-0.2-1-0.6-1.5-0.8c0-0.9,0-1.8,0.1-2.7c0.5-0.4,0.9-0.9,1.4-1.3c5.1-1.8,9.8-4.2,13.1-8.6c-1.2,0.1-2,1-2.9,1.6
		c-0.7,0.4-1.4,0.9-2.1,1.2c-0.9,0.5-2.1,0.1-2.4-0.4c-0.6-0.8,0.6-1.4,1.1-1.8c2.4-1.6,4.8-3.2,6.3-5.7c-2.7,1.3-5,3.3-7.9,4.5
		c-0.4-1.3,0.5-2.2,1-3.1c3.9-7.3,6.3-14.9,6.1-23.3c0-0.4,0-0.9,0.4-1.2c1.8,3.3,2.9,6.8,4.1,10.3
		C168.3,30.4,169.3,31.2,169.1,32.5z M166.1,40c0.1-0.1,0.1-0.1,0.2-0.2C166.2,39.9,166.1,39.9,166.1,40c-0.1,0-0.2,0.1-0.2,0.2
		C165.9,40.1,166,40.1,166.1,40z M165.7,45.4c0.3-0.1,0.7-0.1,0.6-0.6c0-0.1-0.1-0.1-0.1-0.1C165.7,44.6,165.7,45,165.7,45.4
		c-0.2,0.1-0.3,0.3-0.4,0.5c0,0,0.1,0.1,0.2,0.1C165.5,45.8,165.6,45.6,165.7,45.4z"/>
	<path class="st13" d="M163.8,65.4c-0.6,0.6-1.2,1.2-1.7,1.8c-1.8,0.3-3.3-0.8-4.9-1.4c-2.3-0.7-4.6-1.7-6.3-3.6l0,0
		c1.4-0.1,2.7,0.7,4,1.1c2.3,0.7,4.6,1.3,7.1,1.1C162.8,64.4,163.6,64.4,163.8,65.4z"/>
	<path class="st13" d="M150.9,62.3c-0.1-0.1-0.1-0.2-0.2-0.2C150.8,62.1,150.9,62.2,150.9,62.3C150.9,62.2,150.9,62.3,150.9,62.3z"
		/>
	<path class="st12" d="M66.3,149.5c-0.3,4.1,2.4,6.5,4.9,9c1.4,1.4,2.8,2.9,4.8,3.5c0.7,0.2,0.5,0.8,0.7,1.2c2,5.1,5.7,8.1,11.1,9
		c0.7,0.1,1,0.4,1.2,1c1.9,4.8,5.2,8.3,9.8,10.6c-1,1.1-1.7,2.3-1.8,3.9c-4-0.2-7.5-1.7-11-3.4c-0.9-0.4-1.8-0.9-2.8-1.3
		c-0.1-0.2-0.3-0.3-0.4-0.5c-0.3-0.5-0.7-0.8-1.3-0.9c-0.3-0.2-0.6-0.3-0.8-0.5c-0.7-1.4-1.6-2.4-3-3c-0.5-1.4-2.1-1.8-2.9-2.9
		c-0.2-0.2-0.3-0.4-0.5-0.6c0,0,0,0,0,0c-1-3.2-2.9-6.2-2.7-9.7c0-0.7-0.7-1.1-1.1-1.6c-3-3.4-5-7.3-5.1-12
		C65.4,150.6,65.2,149.7,66.3,149.5z"/>
	<path class="st2" d="M97.1,187.7c0-1.5,0.7-2.8,1.8-3.9c1.2,0,2.4,0,3.6,0c2.2,0.9,0.7,2.3,0.5,3.6c-0.2,0.1-0.3,0.3-0.5,0.4
		C100.6,187.7,98.8,187.7,97.1,187.7z"/>
	<path class="st11" d="M107.3,187.4c0.5-0.6,1.2-0.6,1.9-0.7C108.8,187.6,108,187.3,107.3,187.4z"/>
	<path class="st12" d="M102.4,187.7c0.2-0.1,0.3-0.3,0.5-0.4c0.3,0.1,0.6,0.3,0.9,0.4C103.3,187.8,102.8,187.8,102.4,187.7z"/>
	<path class="st2" d="M104.6,187.5c0.2-0.5,0.5-0.6,0.8-0.2C105.2,187.4,104.9,187.4,104.6,187.5z"/>
	<path class="st2" d="M74.3,174.5c0.2,0.2,0.3,0.4,0.5,0.6C74.5,175,74.3,174.8,74.3,174.5z"/>
	<path class="st2" d="M106.8,180.7c2.1-2.3,4.2-4.5,5-7.7c0.2-0.6,0.7-1.2,1.5-1.2c2.8,0,4.8-1.6,6.9-3.2c0.9,2.7-0.4,4.8-3.4,4.8
		c-2.2,0-2.9,1.1-3.7,2.8c-1,2.2-3.2,3.6-4.5,5.6C108.1,182.6,107,181.8,106.8,180.7z"/>
	<path class="st2" d="M131.7,157.1c1.4-1.6,2-3.6,3.1-5.4c1.7-0.2,1.1,2.4,2.7,2.3c-1.1,3.6-3,5.2-6.5,5.4
		C130.7,158.5,132.9,158.2,131.7,157.1z"/>
	<path class="st2" d="M162.9,152.2c0,0.1,0,0.3-0.1,0.4c-0.9,0.9-1.7,1.8-2.6,2.7c-1.9,1.3-3.6,3.1-5.7,4.1
		c-0.4-0.7-0.6-1.4,0.4-1.8c1-0.5,1-1.2-0.3-2.5c3.8,1.2,4.3-1.8,5.7-3.2C162,150.3,162,150.1,162.9,152.2z"/>
	<path class="st2" d="M122.5,166c1-1,0.9-2.7,2.1-3.6c1.9,0.9,2.5,3.4,1.1,5.2c-0.8,1.1-1.7,0.5-2.3-0.3
		C123.1,166.9,123.4,166.1,122.5,166z"/>
	<path class="st12" d="M137.6,154c-1.6,0.1-1-2.5-2.7-2.3c-0.9-1.1,0.5-1.9,0-3.1c2.1,0.8,2.1,3.7,4.5,3.6c-0.1,0.1-0.3,0.3-0.4,0.4
		c-0.1,0.1-0.3,0.3-0.4,0.4c0,0.2,0,0.3,0,0.5C138.2,153.7,137.9,153.9,137.6,154z"/>
	<path class="st2" d="M129.1,162.8c-0.5-0.2-1.3-0.3-1.2-1.1c0.1-0.7,0.7-1,1.3-0.9c0.6,0.1,1.1,0.5,1.1,1.2
		C130.2,162.6,129.6,162.7,129.1,162.8z"/>
	<path class="st2" d="M122.3,168c0.1,0.1,0.2,0.1,0.4,0.2c-0.1,0.1-0.1,0.3-0.2,0.4c-0.1,0-0.2-0.1-0.4-0.1
		C122.2,168.2,122.3,168.1,122.3,168z"/>
	<path class="st2" d="M121.6,167.3c-0.1-0.3,0.1-0.4,0.4-0.5C121.9,167,121.7,167.2,121.6,167.3z"/>
	<path class="st2" d="M141.2,168.7c-0.2,0.1-0.3,0.2-0.5,0.3C140.9,168.9,141,168.8,141.2,168.7z"/>
	<path class="st2" d="M88.5,149.1c2.1,3.3,4.5,6.3,8.2,8c-0.8,1.8-2.6,2.5-4.2,3.4c-4,2.4-8.2,1.3-12.4,0.4
		c-0.2-0.2-0.3-0.6-0.5-0.7c-5.5-2.6-6.8-10.5-3.5-16.5c0.7,0,1.5,0,1.2,1c-0.6,2.3,0,4.6-0.3,7c-0.3,2.2,0.1,4.2,2.7,4.8
		c0.2,0,0.4,0.2,0.5,0.4c2.4,4.3,6.2,2,9.5,1.9c0.8,0,1.2-1.6,2.4-0.6c0.4-0.4,0.9-0.8,1-1.4c0.2-0.6-0.5-0.6-0.8-0.7
		c-2.4-1.2-4.5-2.4-5.2-5.5C86.9,149.1,87.3,149,88.5,149.1z"/>
	<path class="st12" d="M76.1,143.7c-3.2,6-2,13.8,3.5,16.5c0.2,0.1,0.3,0.4,0.5,0.7c0,0.2,0,0.4-0.1,0.6c-4.9-1.6-9.2-4.1-11.1-9.2
		c-1-2.7-0.6-5.6,0-8.4c2.1-2.1,5.1-1.7,7.6-2.8c0,0.3,0,0.6,0.1,1c0,0,0,0,0,0c-0.1,0.1-0.2,0.3-0.4,0.4
		C76.2,142.8,76.1,143.3,76.1,143.7z"/>
	<path class="st2" d="M104.1,156.7c2.6-0.7,4.6-2.6,6.3-4.4c2.5-2.8,2.5-6.1,0.6-9.4c1,0.4,0.6-1.9,1.8-0.9c0.9,0.8,1.7,1.7,1.7,3
		c0,0.5-0.5,1-0.2,1.5c1.1,2.2,2.2,4.4-1.3,5.5c-0.3,0.1-0.6,0.9-0.6,1.4c0,1.1-0.4,2-1.5,2.5c-0.9,0.5-0.9,1.3-0.8,2.1
		c0.1,1.1,1,0.8,1.7,1c2.3,0.7,4.6-0.4,7,0.3c1.5,0.4,3.2,0.5,4.7,1c-0.9,0.7-1.8,1.4-3,1.4c-1.3-0.3-2.4,0.3-3.7,0.4
		c-1.2,0-2.3,0-3.5,0c-0.5,0-0.9,0-1.4-0.1C108.5,161.3,105.5,160.2,104.1,156.7z"/>
	<path class="st2" d="M98.8,139.2c-3.1-0.2-6,0.3-8.3,2.8c-1.1,1.2-1.8,2.4-2,4c-1.7-0.7-2.1-1.8-1-3.1c0.7-0.8,1.3-1.6,1.1-2.7
		c-0.1-0.8,0.2-1.3,1.1-1.3c0.3,0,0.8-0.2,1-0.4c0.4-0.7,0-2,1.4-1.8c2.1,0.4,4.4-0.5,6.3,0.9C99,138.1,98.8,138.7,98.8,139.2z"/>
	<path class="st2" d="M76.6,142c0-0.3,0-0.6-0.1-1c3.2-2.6,6.3-5.1,9.5-7.7c1.3,0.9,1.1,2.4,1.1,3.6c0,1.3-1.4,1.1-2.3,1
		c-1.9-0.2-2.7,0.4-2.5,2.4c0.2,2-1.4,2-2.7,2C78.6,142.4,77.6,142.1,76.6,142z"/>
	<path class="st2" d="M86.8,132.6c2.9-2.9,6.7-3.7,10.6-4c1.8,0.6,0.7,1-0.1,1.6c-2,1.8-4.9,1.6-7,3.2
		C88.8,134.6,87.7,134.3,86.8,132.6z"/>
	<path class="st2" d="M131.8,152.2c0,0.1,0,0.3-0.1,0.4c-0.1,0.2-0.2,0.3-0.3,0.5c-0.3,1.9-1.5,3.2-2.9,4.3
		c-0.9,0.7-1.9,1.2-2.9,1.8c-0.7-1.7-1.6,0.4-2.5-0.3c0-0.8,0.7-1.4,1.3-1.6c1.8-0.7,2.8-2,3.4-3.7c0.3-0.7,0.7-1.3,1.2-1.8
		C130.5,150.2,130.9,150.3,131.8,152.2z"/>
	<path class="st2" d="M103.3,139.2c-0.4,0-0.9,0-1.3,0c0.3-1-0.8-1.2-1.7-2.2c2.5,0.7,4.4,0.5,6.3,0.5c0.5,0,1.2,0,1.1,0.8
		c-0.1,0.7-0.8,0.5-1.3,0.5C105.3,138.8,104.1,137.5,103.3,139.2z"/>
	<path class="st2" d="M110,141.5c-0.5-0.4-0.8-1.1-1.6-0.9c-0.6,0.1-1.1-0.1-1.1-0.8c0.9-0.2,1.6-1.2,2.8-0.7
		c0.5,0.2,1.3-0.4,1.6,0.5c0.3,0.9-0.4,1.3-1.2,1.5C110.3,141.2,110.1,141.4,110,141.5z"/>
	<path class="st2" d="M132.6,147.8c0,0.7,0,1.5,0,2.2c-0.8-0.1-1.6-0.5-1.5-1.4C131.1,147.7,132,147.8,132.6,147.8z"/>
	<path class="st2" d="M106,129.5c-0.1,0.6,0.3,1.4-0.6,1.7c-0.3,0.1-0.6-0.1-0.6-0.5C104.6,129.9,105.2,129.6,106,129.5z"/>
	<path class="st2" d="M106.2,132.8c-0.1,0-0.3,0.2-0.4,0.2c-0.3,0-0.5-0.2-0.4-0.5c0.1-0.1,0.4-0.2,0.5-0.2
		C106.1,132.3,106.3,132.4,106.2,132.8z"/>
	<path class="st2" d="M124.7,159.8c-0.3,0.7-0.9,0.4-1.3,0.4C123.6,159.7,124.2,159.8,124.7,159.8z"/>
	<path class="st2" d="M76.2,142.4c0.1-0.1,0.2-0.3,0.4-0.4C76.5,142.1,76.3,142.3,76.2,142.4z"/>
	<path class="st15" d="M94.3,178.1c-3.5-3.4-5.1-7.7-6.1-12.4c4.2,0,7.9-1.7,11.6-4.5c0,2.8,0,5.1,0,7.4c-0.2,1.1-0.3,2.2,0.1,3.3
		c0,0.2,0,0.4,0,0.6c0,0.2,0,0.4,0,0.6c-0.3,0.7-0.3,1.3,0.4,1.7c0.8,0.5,0.6-0.7,1.2-0.8c1.3-1.3,1.2-3.1,2-4.6
		c1.3-2.4,4.4-3.4,6.7-1.9c0.5,0.3,0.5,0.8,0.4,1.3c-1.3,4.8-3.5,8.9-8,11.4c-2,1.1-3.7,0.7-5.2-0.7
		C96.5,178.6,95.5,178.2,94.3,178.1z"/>
	<path class="st11" d="M94.3,178.1c1.2,0.1,2.2,0.5,3.1,1.4c1.5,1.5,3.1,1.9,5.2,0.7c4.5-2.5,6.7-6.6,8-11.4c0.2-0.6,0.1-1-0.4-1.3
		c-2.3-1.5-5.4-0.5-6.7,1.9c-0.8,1.5-0.7,3.3-2,4.6c-0.1-0.3-0.1-0.6-0.2-0.8c0-0.2,0-0.3,0-0.5c0.1-0.3,0.1-0.5,0.2-0.8
		c0.7-3,0.9-6-0.1-8.9c-0.3-0.3-0.2-0.6,0-0.9c0.2,0,0.4,0,0.7,0c2.3,1.4,4.6,2.7,7.2,3.5c1,0.3,2.5-0.6,2.9,0.7
		c0.3,0.9-0.1,2.2-0.4,3.2c-1.4,5-4,9-8.6,11.9c-1.9,1.2-3.4,1.4-5.1,0.1C96.7,180.4,95,179.8,94.3,178.1z"/>
	<path class="st13" d="M107.4,146.9c-2.7,2.1-9.2,2.6-12.1,0.9c-1.4-0.8-2-1.9-1.8-3.5c0.2-1.4,1.2-2.1,2.6-2.4c2-0.4,4-0.9,6,0
		c-0.1,2.5,0.8,3.6,3.3,4C106.1,146.1,107,145.9,107.4,146.9z"/>
	<path class="st11" d="M80.1,161.4c0-0.2,0-0.4,0.1-0.6c4.2,0.9,8.3,2,12.4-0.4c1.5-0.9,3.3-1.6,4.2-3.4c0.4,0,0.9,0,1.3,0
		c0.5,0,0.9,0.2,1.1,0.6c0.4,0.6-0.3,0.9-0.6,1.3c-3.1,4.1-11.4,5.5-15.9,3.6C81.8,162.2,80.9,161.8,80.1,161.4z"/>
	<path class="st2" d="M107.4,146.9c-0.4-0.9-1.2-0.8-2-0.9c-2.5-0.4-3.4-1.5-3.3-4c2.6-1,5.8-0.1,6.8,1.8
		C109.6,145.3,109,146.6,107.4,146.9z"/>
	<path class="st11" d="M104.1,156.7c1.4,3.5,4.4,4.6,7.6,5.3c0.4,0.5,0.9,0.5,1.4,0.1c1.2,0,2.3,0,3.5,0c0,0.3,0,0.5,0.1,0.8
		c-4.3,1.3-8.3,0.6-11.9-1.8c-1.3-0.9-2.9-1.7-3.1-3.7C102.4,156.8,103.4,157.4,104.1,156.7z"/>
	<path class="st15" d="M101.4,162.9c1,3,0.8,6,0.1,8.9C101.4,168.9,101.4,165.9,101.4,162.9z"/>
	<path class="st12" d="M116.7,162.8c0-0.3,0-0.5-0.1-0.8c1.2-0.1,2.4-0.7,3.7-0.4C119.2,162.5,117.9,162.5,116.7,162.8z"/>
	<path class="st6" d="M99.9,172c-0.4-1.1-0.3-2.2-0.1-3.3C100.3,169.7,100.2,170.8,99.9,172z"/>
	<path class="st6" d="M101.5,161.3c0.3-0.2,0.4-0.1,0.4,0.2C101.8,161.5,101.6,161.4,101.5,161.3z"/>
	<path class="st14" d="M131.3,153.1c0.1-0.2,0.2-0.3,0.3-0.5C131.8,153,131.6,153.1,131.3,153.1z"/>
	<path class="st6" d="M99.9,173.2c0-0.2,0-0.4,0-0.6C100.1,172.8,100.1,173,99.9,173.2z"/>
	<path class="st6" d="M101.3,172.7c0,0.2,0,0.3,0,0.5c-0.1-0.1-0.1-0.2-0.2-0.4C101.2,172.8,101.3,172.7,101.3,172.7z"/>
	<path class="st15" d="M101.5,161.3c0.1,0.1,0.3,0.2,0.4,0.2c0,0.1,0.1,0.3,0.1,0.4c-0.2,0-0.4,0-0.7,0
		C101.4,161.8,101.4,161.5,101.5,161.3z"/>
	<path class="st3" d="M60.9,116.2c1.3-0.1,2.1,0.5,2.2,1.8c0.1,1,0.5,1.8,0.9,2.6c0.5,2.1,2.6,3,5.6,2.3c0,0-0.1,0.1-0.1,0.1
		c-0.1,0.7,0.3,0.6,0.8,0.6c0.6-0.1,0.8,0.4,1.3,0.5c0,1-0.8,1.5-1.4,2.1c-2.6,0.9-5.1,0.3-7.5-0.9l0,0c-0.1-0.1-0.3-0.3-0.4-0.4
		c-0.1-0.2-0.2-0.3-0.3-0.5c-0.2-0.2-0.4-0.4-0.6-0.6c-0.4-0.9-0.8-1.8-1.2-2.6c0-0.2,0-0.5,0-0.7c0-0.1,0.1-0.1,0.1-0.2
		c0-0.1-0.1-0.2-0.1-0.4c0-0.1,0-0.3-0.1-0.4c0-0.1,0.1-0.3,0.1-0.4C60.5,118.3,60.7,117.2,60.9,116.2z"/>
	<path class="st11" d="M62.8,125.5c2.4,1.2,4.9,1.8,7.5,0.9c0.6,1.4,2.2,1.2,3.1,2.2c-1.9,1.3-4.3,2.6-6.4,2.1
		c-2.6-0.5-5.6-0.9-7.4-3.4c0.2-0.3,0.4-0.4,0.7-0.3C62.6,128,62.6,128,62.8,125.5z"/>
	<path class="st0" d="M69.7,122.9c-3,0.7-5.1-0.2-5.6-2.3c1.5-0.9,3.1-1.5,4.4-2.7c2.2-1.9,6.3-1.8,8.3,0.2c0.9,0.9,0,1.6,0.3,2.4
		c-0.3,0-0.6,0-0.8,0c-1-2-2.9-2.8-4.9-2C69.3,119.5,69.1,121.1,69.7,122.9z"/>
	<path class="st7" d="M62.8,125.5c-0.2,2.5-0.2,2.5-2.5,1.5c-0.3-0.1-0.5,0-0.7,0.3c-1.1-0.8-2-1.7-2.2-3.1c0.5-1.4,1.1-2.7,2.9-2.8
		c0.4,0.9,0.8,1.8,1.2,2.6c0.1,0.3,0.2,0.5,0.6,0.6c0.1,0.2,0.2,0.3,0.3,0.5C62.5,125.2,62.6,125.3,62.8,125.5L62.8,125.5z"/>
	<path class="st7" d="M73.4,128.5c-0.9-0.9-2.5-0.8-3.1-2.2c0.6-0.6,1.4-1.1,1.4-2.1c0.7-0.1,1.5-0.3,2.2-0.4c0.9,0.4,1.7,1,2.3,1.8
		C75.7,126.9,74.7,127.8,73.4,128.5z"/>
	<path class="st8" d="M60.2,121.4c-1.8,0.1-2.4,1.4-2.9,2.8c-1.2-1.2-0.8-2.6-0.8-4c1.3,0.8,2.4-0.1,3.5-0.5c0,0.1,0.1,0.3,0.1,0.4
		c0,0.2,0,0.3,0,0.5C60.2,120.9,60.2,121.1,60.2,121.4z"/>
	<path class="st6" d="M60.9,116.2c-0.2,1-0.5,2.1-0.7,3.1c-1-2.3-2.2-0.1-3.3-0.1C57.4,117.1,58.7,116,60.9,116.2z"/>
	<path class="st8" d="M76.2,125.6c-0.6-0.8-1.4-1.3-2.3-1.8c1.7-0.4,2.3-1.6,2.3-3.3c0.3,0,0.6,0,0.8,0
		C76.9,122.2,77.5,124.1,76.2,125.6z"/>
	<path class="st7" d="M79,123.4c0.6,1.1,2.7,2,0.5,3.3c-0.4,0.3-1.1,0.3-1.5-0.1c-0.4-0.4,0.2-0.8,0.3-1.2
		C78.6,124.8,78.8,124.1,79,123.4z"/>
	<path class="st13" d="M56.9,119.2c1.1,0,2.3-2.2,3.3,0.1c0,0.1-0.1,0.3-0.1,0.4c-1.1,0.4-2.2,1.3-3.5,0.5
		C56.5,119.8,56.5,119.4,56.9,119.2z"/>
	<path class="st11" d="M132.2,130.4c-2.5-0.6-4.8-1.3-6.3-3.6c1.1-0.7,1.3-2,1.8-3.1c0.9,0,1.5,0.7,1.9,1.3c1.6,1.9,3.6,1.5,5.5,1.3
		c1-0.1,1.8-0.8,2.8-1.2c-0.6,2.4,1,2.6,2.7,2.7C138.4,130.3,135.4,130.5,132.2,130.4z"/>
	<path class="st3" d="M138,125c-0.9,0.4-1.8,1.1-2.8,1.2c-1.9,0.2-4,0.6-5.5-1.3c-0.5-0.6-1-1.3-1.9-1.3c-0.2-0.9-0.5-1.8-1.4-2.3
		c0-0.3,0-0.6,0-0.8c2.2-0.6,4.1-0.4,5.9,1.3c0.9,0.8,2.5,0.9,3.9,0.9c0.1,0,0.2-0.1,0.3-0.1c0.7,0,1.5,0,2.2,0.1l0.1,0
		C139.1,123.7,138.5,124.4,138,125z"/>
	<path class="st2" d="M136.7,122.7c-0.1,0-0.2,0.1-0.3,0.1c-0.4-0.5-0.9-0.9-1.3-1.4c-1-1.5-0.7-2.4,1-2.9c1.8-0.6,3.4-2.2,5.4-0.9
		c0.6,1.2,0.6,2.3,0.1,3.5c-0.3,0.3-0.6,0.6-0.9,0.9c-0.5,0.3-1.1,0.6-1.6,0.9c0,0-0.1,0-0.1,0C138.2,122.2,137.4,122.3,136.7,122.7
		z"/>
	<path class="st7" d="M139,122.8c0.5-0.3,1.1-0.6,1.6-0.9c-0.1,2,2.2,1.1,2.7,2.3c-0.3,1.4-1.1,2.4-2.2,3.2
		c-0.1,0.1-0.3,0.3-0.5,0.4c0,0,0,0,0,0c-1.7-0.1-3.3-0.3-2.7-2.7C138.5,124.4,139.1,123.7,139,122.8z"/>
	<path class="st8" d="M143.4,124.2c-0.6-1.2-2.9-0.3-2.7-2.3c0.3-0.3,0.6-0.6,0.9-0.9c0.7,0,1.5,0,2.2,0
		C143.7,122.1,144.2,123.2,143.4,124.2z"/>
	<path class="st13" d="M143.7,121.1c-0.7,0-1.5,0-2.2,0c0.6-1.2,0.5-2.3-0.1-3.5c1.8-0.5,1.8,1.1,2.3,2
		C144,119.9,143.8,120.5,143.7,121.1z"/>
	<path class="st11" d="M120.6,125.1c0-0.3,0-0.6,0.1-0.8c0.4-0.2,0.8-0.3,1.2-0.5c0,0.3,0.1,0.6,0.1,0.9c0,0.8,1.2,1.3,0.5,2.1
		c-0.5,0.5-1.2,0-1.8-0.2C119.7,126,120.6,125.5,120.6,125.1z"/>
	<path class="st7" d="M146.5,124.2c-0.7-1.3-1-2.6,0.1-3.3c1.2-0.8,2.1-0.3,1.3,1.3C147.5,122.8,147.1,123.4,146.5,124.2z"/>
	<path class="st11" d="M140.7,127.7c0.2-0.1,0.3-0.3,0.5-0.4C141,127.5,140.9,127.6,140.7,127.7z"/>
	<path class="st13" d="M170.7,109.8c0,0,0.1,0,0.1,0c0,0,0,0.1,0,0.2c-0.1,0-0.2,0-0.2,0C170.6,109.9,170.7,109.8,170.7,109.8z"/>
	<path class="st7" d="M126.4,121.4c0.8,0.5,1.2,1.4,1.4,2.3c-0.5,1.1-0.7,2.4-1.8,3.1c-0.6-0.4-1-1-1.4-1.6
		C123,122.5,123.4,121.7,126.4,121.4z"/>
	<path class="st14" d="M138.5,153.1c0.1-0.1,0.3-0.3,0.4-0.4C138.8,152.8,138.6,153,138.5,153.1z"/>
	<path class="st8" d="M67.1,79c0-0.1,0-0.2,0.1-0.2c0.1,0,0.1,0,0.2,0.1c0,0.1,0,0.2-0.1,0.2C67.2,79.1,67.2,79,67.1,79z"/>
	<path class="st9" d="M172.4,41.8c0.6,2.5,0.6,5,0,7.5C172.4,46.8,172.4,44.3,172.4,41.8z"/>
	<path class="st6" d="M165.6,45.3c0.1-0.3,0.1-0.7,0.6-0.7c0.1,0,0.1,0.1,0.1,0.1C166.4,45.3,166,45.3,165.6,45.3L165.6,45.3z"/>
	<path class="st6" d="M165.7,45.4c-0.1,0.2-0.2,0.4-0.2,0.6c-0.1,0-0.2-0.1-0.2-0.1C165.4,45.7,165.5,45.5,165.7,45.4
		C165.6,45.3,165.7,45.4,165.7,45.4z"/>
	<path class="st6" d="M166,40c0.1-0.1,0.1-0.1,0.2-0.2C166.2,39.9,166.1,40,166,40C166.1,40,166,40,166,40z"/>
	<path class="st6" d="M166.1,40c-0.1,0.1-0.1,0.1-0.2,0.2C165.9,40.1,166,40.1,166.1,40C166,40,166.1,40,166.1,40z"/>
	<path class="st12" d="M113.1,162.1c-0.5,0.4-0.9,0.5-1.4-0.1C112.2,162,112.7,162.1,113.1,162.1z"/>
	<path class="st2" d="M76.2,120.5c0.1,1.7-0.6,2.8-2.3,3.3c-0.7,0.1-1.5,0.3-2.2,0.4c-0.4-0.1-0.7-0.7-1.3-0.5
		c-0.3-0.2-0.5-0.4-0.8-0.6c0,0,0.1-0.1,0.1-0.1c-0.6-1.8-0.4-3.5,1.6-4.3C73.3,117.7,75.2,118.6,76.2,120.5z"/>
	<path class="st0" d="M69.7,123.1c0.3,0.2,0.5,0.4,0.8,0.6C70,123.7,69.5,123.7,69.7,123.1z"/>
	<path class="st11" d="M62.8,125.5c-0.1-0.1-0.3-0.3-0.4-0.4C62.5,125.2,62.6,125.3,62.8,125.5z"/>
	<path class="st6" d="M60.2,120.6c0-0.2,0-0.3,0-0.5c0,0.1,0.1,0.2,0.1,0.4C60.3,120.5,60.3,120.6,60.2,120.6z"/>
	<path class="st11" d="M62,124.6c-0.3-0.1-0.5-0.3-0.6-0.6C61.6,124.2,61.8,124.4,62,124.6z"/>
	<path class="st13" d="M136.7,122.7c0.8-0.4,1.5-0.5,2.2,0.1C138.2,122.7,137.4,122.7,136.7,122.7z"/>
</g>
</svg>
